<svg width="75" height="64" viewBox="0 0 75 64" fill="none" xmlns="http://www.w3.org/2000/svg">
<path d="M25.4154 11.3488C21.0604 4.81232 16.4057 0 16.4057 0C16.4057 0 0 16.8848 0 30.4689C0 38.1375 5.06963 44.4405 12.0935 46.3016C11.8662 44.9562 11.7183 43.5873 11.7183 42.1881C11.7183 31.2243 19.0966 19.4418 25.4154 11.3486L25.4154 11.3488Z" fill="url(#paint0_linear_223_2081)"/>
<path d="M58.5938 0C58.5938 0 53.9391 4.81187 49.5845 11.3488C55.9029 19.4417 63.2815 31.2237 63.2815 42.1883C63.2815 43.5876 63.1336 44.9564 62.9063 46.3014C69.9284 44.4387 74.9998 38.1383 74.9998 30.4698C74.9998 16.8857 58.5941 0.00090402 58.5941 0.00090402L58.5938 0Z" fill="url(#paint1_linear_223_2081)"/>
<path d="M37.4997 4.68732C37.4997 4.68732 16.4055 25.2074 16.4055 42.1872C16.4055 53.6479 26.0359 63.2814 37.4997 63.2814C48.9604 63.2814 58.5939 53.6483 58.5939 42.1872C58.5939 25.2063 37.4997 4.68732 37.4997 4.68732V4.68732Z" fill="url(#paint2_linear_223_2081)"/>
<defs>
<linearGradient id="paint0_linear_223_2081" x1="12.7077" y1="0" x2="12.7077" y2="46.3016" gradientUnits="userSpaceOnUse">
<stop stop-color="#F9305C"/>
<stop offset="1" stop-color="#8F0116"/>
</linearGradient>
<linearGradient id="paint1_linear_223_2081" x1="62.2921" y1="0" x2="62.2921" y2="46.3014" gradientUnits="userSpaceOnUse">
<stop stop-color="#F9305C"/>
<stop offset="1" stop-color="#8F0116"/>
</linearGradient>
<linearGradient id="paint2_linear_223_2081" x1="37.4997" y1="4.68732" x2="37.4997" y2="63.2814" gradientUnits="userSpaceOnUse">
<stop stop-color="#F9305C"/>
<stop offset="1" stop-color="#8F0116"/>
</linearGradient>
</defs>
</svg>
