<svg width="76" height="76" viewBox="0 0 76 76" fill="none" xmlns="http://www.w3.org/2000/svg">
<path d="M68.005 34.7149C78.4989 25.72 75.501 8.48032 75.501 8.48032C61.6341 9.23011 60.5097 16.3508 60.5097 16.3508C58.261 12.9778 48.8916 10.729 48.8916 10.729C49.2661 8.47968 53.0138 4.73203 53.0138 4.73203C48.8909 3.98224 44.0189 5.48182 41.0204 6.98075C40.2706 6.23096 39.5215 3.98224 36.8975 2.85788C35.024 2.10872 32.7753 2.10872 30.9011 0.984375C31.2757 2.48331 32.7753 4.35746 33.8997 5.48182C34.2742 5.85639 34.2742 6.2316 34.2742 6.60618C31.2764 5.10662 27.1535 3.98224 23.7804 4.73203C23.7804 4.73203 27.5281 8.10511 27.9033 10.7284C27.9033 10.7284 18.5338 12.9771 16.2851 16.3502C16.2851 16.3502 15.5353 9.60404 1.29385 8.47968C1.29385 8.47968 -1.70466 25.7193 8.7898 34.7142C8.7898 34.7142 5.04215 38.4619 5.04215 42.2102C5.04215 45.9578 2.41885 49.7061 2.41885 49.7061C2.41885 49.7061 4.66757 48.9563 6.16651 45.9585C6.16651 45.9585 2.79343 57.2021 8.7898 60.9497L9.91416 57.2021C9.91416 57.2021 13.2872 67.6959 11.0385 69.9446C11.0385 69.9446 13.6618 67.6959 13.6618 65.8217C13.6618 65.8217 15.536 70.3192 20.0334 72.1933L23.7811 68.4457C23.7811 68.4457 27.5287 72.9431 27.5287 75.9416C27.5287 75.9416 29.7774 72.5686 29.7774 71.0696C29.7774 71.0696 33.5251 75.5671 38.7723 75.5671C43.6443 75.5671 47.7672 71.0696 47.7672 71.0696C47.7672 72.5686 50.0159 75.9416 50.0159 75.9416C50.0159 72.9431 53.7636 68.4457 53.7636 68.4457L57.5112 72.1933C62.0087 70.3192 63.8828 65.8217 63.8828 65.8217C63.8828 67.6959 66.5061 69.9446 66.5061 69.9446C64.2574 67.6959 67.6305 57.2021 67.6305 57.2021L68.7548 60.9497C74.7512 57.2021 71.3781 45.9585 71.3781 45.9585C72.8771 48.957 75.1258 49.7061 75.1258 49.7061C75.1258 49.7061 72.5025 45.9585 72.5025 42.2102C71.7533 38.4625 68.005 34.7149 68.005 34.7149V34.7149ZM19.6575 27.2189C26.4037 26.8443 31.2757 31.7164 30.9011 38.4625C24.5302 38.8371 19.283 33.9651 19.6575 27.2189ZM51.8897 65.8214C51.5152 66.5712 51.14 67.3204 50.3908 67.6956C50.0156 68.0701 49.641 68.4454 48.8913 68.4454C46.6425 69.1951 44.3938 68.8199 42.1451 67.6956C40.6462 66.9458 39.5218 65.8214 38.0222 65.4469C36.5233 65.8214 35.3989 66.9458 33.8994 67.6956C32.0252 68.8199 29.4019 68.8199 27.1532 68.4454C26.4034 68.4454 26.0288 68.0708 25.6543 67.6956C24.9045 67.321 24.5299 66.5712 24.1553 65.8214C23.4062 63.1981 23.031 60.1996 23.7808 57.2018C24.5305 54.2032 26.0295 51.58 28.2782 49.7058C26.7793 52.3291 26.404 55.3276 27.5284 58.3261C27.903 59.0759 28.2782 59.8251 28.6528 60.5748C30.1517 62.0738 32.7756 62.449 34.2746 61.3246C35.7735 60.2003 36.5233 57.577 35.3989 55.7028C34.6491 54.5785 33.9 53.8287 32.7756 53.0795C32.0258 52.3297 30.9015 51.5806 30.9015 50.4562L30.5269 49.3319C30.5269 48.5821 30.5269 47.8329 30.9015 47.4577C31.2761 47.0832 32.0258 46.7079 32.7756 46.7079C33.1502 46.7079 33.5254 46.7079 33.9 47.0825C35.0244 47.4571 36.1487 47.8323 37.2731 47.8323H38.0229C38.0229 47.8323 38.3974 47.8323 38.3974 48.2069L38.772 47.8323H39.5218C40.6462 47.8323 41.7705 47.4577 42.8949 47.0825C43.2694 47.0825 43.6447 46.7079 44.0192 46.7079C44.769 46.7079 45.1436 46.7079 45.8934 47.4577C46.268 47.8323 46.6432 48.5821 46.268 49.3319L45.8934 50.4562C45.5188 51.5806 44.769 52.3304 44.0192 53.0795C43.2694 53.8293 42.1451 54.5785 41.3959 55.7028C40.2716 57.577 40.6462 60.2003 42.5203 61.3246C44.0192 62.8236 46.6432 62.0744 48.1421 60.5748C48.8919 59.8251 49.2665 59.0759 49.2665 58.3261C50.0163 55.7028 50.0163 52.3297 48.5167 49.7058C50.7654 51.58 52.6395 54.2032 53.0141 57.2018C53.7639 60.1996 53.3887 63.1981 51.8898 65.8214H51.8897ZM45.8934 38.4625C45.5188 31.7164 50.3908 26.8443 57.137 27.2189C57.5115 33.9651 52.6395 38.8371 45.8934 38.4625Z" fill="#0AD9D9"/>
</svg>
