<svg width="121" height="123" viewBox="0 0 121 123" fill="none" xmlns="http://www.w3.org/2000/svg">
<path fill-rule="evenodd" clip-rule="evenodd" d="M112.267 43.0826C112.561 43.98 112.876 44.9431 113.126 45.3451L113.151 45.3048C113.513 44.9183 110.984 38.4277 110.614 37.6143C109.462 35.1502 108.407 33.3866 106.837 31.164C106.769 31.0672 106.701 30.9717 106.635 30.8776C105.176 28.8113 104.16 27.3727 102.319 25.4626C101.369 24.4801 97.9226 21.0899 96.8757 20.655C96.8904 20.6794 97.2748 21.0507 97.8319 21.5888C99.115 22.828 101.314 24.952 102.022 25.7605C106.596 31.0029 109.116 35.2709 111.749 41.6005C111.897 41.9565 112.078 42.506 112.267 43.0826ZM110.368 30.7902C110.766 31.3335 111.012 31.6701 111.121 31.7519C110.864 29.3199 101.208 19.3102 98.9131 17.6272C98.1666 17.0799 97.4408 16.5126 96.7124 15.9431C94.9969 14.6022 93.2664 13.2495 91.2146 12.119C90.9859 11.993 90.7373 11.855 90.4727 11.7083C88.101 10.3924 84.4445 8.36376 82.3001 7.76245C82.7925 8.22746 84.8063 9.33123 85.9252 9.94453C86.1239 10.0535 86.2944 10.1469 86.4232 10.2186C87.4048 10.7615 88.3118 11.3306 89.228 11.9054C89.6571 12.1747 90.0883 12.4452 90.5301 12.7149C102.363 19.8468 108.338 28.0149 110.368 30.7902ZM66.8628 3.55081C67.1366 3.88903 71.2597 5.10501 71.8958 5.19359C71.9748 5.03202 71.9386 5.05935 71.8941 5.09286C71.8388 5.1345 71.7709 5.18569 71.8958 4.89564L78.2254 6.2002C76.8564 5.23386 68.8358 3.47028 66.8628 3.55081ZM67.0084 6.184C64.0592 5.7606 62.4194 5.52519 59.277 6.12772C59.6344 6.14801 60.0013 6.16783 60.375 6.18801C62.6712 6.31201 65.2232 6.44982 67.3701 6.79611C67.8856 6.87819 68.4024 6.94822 68.919 7.01822C69.6693 7.1199 70.419 7.22149 71.163 7.35981C71.4322 7.40939 71.7927 7.49081 72.1882 7.58013C73.1416 7.79545 74.2981 8.05665 74.8673 8.02819C74.1104 7.60944 68.6666 6.41762 67.5151 6.25657C67.3418 6.23187 67.173 6.20764 67.0084 6.184ZM48.9775 1.36044L43.5096 2.2382C47.5441 0.442416 55.1298 -0.129336 59.5267 0.0236683C67.193 0.289412 74.9881 2.25431 82.1713 5.00032C84.0154 5.70444 85.6529 6.54816 87.3628 7.42919C87.7062 7.60615 88.0526 7.78462 88.4042 7.96377C88.7341 8.13075 89.0665 8.29773 89.4001 8.46532C91.0936 9.31609 92.8185 10.1826 94.4196 11.1446C95.2447 11.6438 96.2891 12.0013 97.321 12.3544C98.6861 12.8216 100.029 13.2812 100.814 14.0517C100.577 14.0089 100.331 13.9015 100.082 13.7927C99.6284 13.5944 99.1647 13.3917 98.7279 13.5685C98.6425 14.1153 99.697 14.94 100.681 15.7093C101.088 16.0277 101.483 16.3367 101.78 16.6125C103.342 18.0701 105.041 19.6807 106.064 21.6214C106.101 21.6936 106.137 21.7624 106.17 21.8281C106.539 22.5541 106.713 22.8957 107.747 23.0951C108.206 23.1841 108.472 23.1809 108.67 23.1785C109.063 23.1738 109.188 23.1723 110.018 23.9003L110.035 23.9157C110.363 24.2092 111.437 25.1699 111.548 25.4626C111.389 25.4656 111.257 25.4605 111.147 25.4563C110.663 25.4377 110.591 25.4349 110.493 26.1954C110.436 26.6679 110.401 26.8301 110.447 26.9645C110.492 27.0935 110.611 27.1968 110.855 27.5241C111.276 28.0806 111.902 29.1274 112.556 30.2219C113.606 31.9781 114.73 33.8572 115.196 34.0308L115.067 32.3317C115.438 32.6618 117.483 37.5418 117.829 38.3874C118.884 40.9401 119.375 42.6957 119.561 45.5222L119.979 44.9666C120.056 45.9933 120.16 47.0162 120.263 48.0378C120.422 49.6045 120.581 51.1681 120.64 52.7376C120.922 59.9529 120.245 68.2554 117.91 75.1406C117.601 76.0512 117.314 76.928 117.035 77.7833C115.964 81.0577 114.996 84.0174 113.304 87.3567C111.467 90.9805 109.358 94.6526 107.264 98.1314L107.159 97.6241C106.112 97.8979 103.552 101.852 103.068 102.955C102.989 103.136 102.916 103.305 102.847 103.465C102.435 104.42 102.158 105.064 101.337 105.967C101.156 106.161 100.728 106.519 100.277 106.896C99.6242 107.442 98.9234 108.028 98.8567 108.214C99.7608 108.116 100.82 107.315 101.671 106.672C102.229 106.25 102.697 105.896 102.972 105.854C102.697 106.173 102.504 106.445 102.326 106.696C101.914 107.278 101.577 107.753 100.475 108.455C99.5481 109.043 98.7397 109.271 97.9139 109.504C96.3659 109.94 94.7569 110.393 92.189 113.271C92.0474 113.427 91.7584 113.663 91.4778 113.893C91.1362 114.172 90.8071 114.441 90.7717 114.543C90.9587 114.781 91.1585 114.809 91.4127 114.845C91.5635 114.866 91.7334 114.89 91.9313 114.962C91.7862 115.07 90.2093 115.317 88.3521 115.608C86.1894 115.947 83.6465 116.345 82.5417 116.653C81.2021 117.034 79.7042 117.328 78.2996 117.604C78.2182 117.62 78.137 117.636 78.0563 117.652C77.259 117.805 76.486 117.933 75.6807 118.054C75.3173 118.11 74.9096 118.135 74.503 118.159C74.0266 118.189 73.5518 118.218 73.1521 118.296C73.3705 118.51 73.7135 118.596 74.0383 118.677C74.3482 118.754 74.6415 118.827 74.7949 119.004C74.352 119.294 72.1857 119.834 71.5657 119.971C69.6666 120.391 67.9932 120.27 66.6087 120.171C65.498 120.091 64.5733 120.024 63.8672 120.261C63.493 120.388 63.1911 120.501 62.9162 120.604C62.2324 120.86 61.7155 121.054 60.6702 121.243C58.5201 121.63 54.8721 121.485 52.6737 121.227C51.3692 121.074 49.8713 121.058 48.5587 121.122C47.4272 121.179 46.9447 121.417 46.3976 121.687C46.0958 121.835 45.7743 121.994 45.3134 122.137C45.0931 122.018 44.8219 121.809 44.5321 121.586C43.9213 121.117 43.2277 120.584 42.7526 120.687C42.6494 120.71 42.5207 120.74 42.3741 120.774C41.4343 120.994 39.7555 121.385 39.2818 121.163C39.4309 121.045 39.6385 120.949 39.8499 120.852C40.1869 120.698 40.5333 120.539 40.6669 120.277C39.9019 119.89 37.5505 119.89 36.6969 120.148C35.8852 120.402 35.5049 120.968 35.1253 121.534C34.9023 121.867 34.6795 122.199 34.3696 122.467C32.8476 123.78 28.6682 122.354 27.1221 121.541C27.4021 121.504 27.8649 121.554 28.3755 121.609C29.3186 121.71 30.4245 121.829 30.8425 121.452C31.2509 120.389 27.9855 119.4 25.695 118.706C24.689 118.401 23.8711 118.154 23.6352 117.982C23.8081 117.702 24.2057 117.577 24.6102 117.449C24.9402 117.345 25.2747 117.239 25.4954 117.048C24.8531 116.483 24.0872 116.477 23.4218 116.472C22.986 116.469 22.5933 116.466 22.3065 116.307C22.4921 116.088 22.7039 115.953 22.8752 115.844C23.4472 115.48 23.5691 115.402 20.7684 113.432C20.3442 113.137 19.9487 112.863 19.5531 112.589C19.3554 112.452 19.1577 112.315 18.9565 112.176C18.8184 112.082 18.5563 111.859 18.2786 111.622C17.8598 111.265 17.4058 110.877 17.2895 110.863L17.1849 111.725C17.0336 111.558 16.8349 111.111 16.6502 110.695C16.54 110.446 16.4347 110.209 16.3474 110.05C16.0027 109.42 15.6535 108.88 15.3141 108.355C15.0112 107.887 14.7161 107.431 14.4388 106.933C14.385 106.838 14.332 106.73 14.277 106.618C14.0441 106.144 13.7747 105.596 13.247 105.596C12.9034 105.958 12.8898 106.434 12.8769 106.883C12.8669 107.234 12.8573 107.568 12.6914 107.819C12.4895 107.611 12.2572 107.158 11.9747 106.606C11.502 105.683 10.8887 104.485 10.042 103.704C9.86138 103.541 9.50005 103.301 9.19526 103.098C8.94286 102.931 8.72923 102.789 8.68911 102.738L10.7667 102.263C10.5548 101.978 10.2749 101.819 9.95902 101.64C9.39862 101.322 8.72505 100.939 8.11736 99.6776C7.71471 98.832 6.80474 97.0523 5.83035 96.8993L5.44381 99.0656C5.16383 97.8864 5.09265 96.9304 5.01604 95.9016C4.97808 95.3917 4.93878 94.8639 4.87206 94.2822C4.75759 93.3316 4.29249 92.7132 3.8113 92.0734C3.5139 91.678 3.21035 91.2744 2.97964 90.7792C2.97962 90.7792 2.97958 90.7792 2.97955 90.7791L2.89912 90.6745L2.89902 90.6744L2.82664 90.602L2.82655 90.602C2.72893 90.4271 2.58612 90.1794 2.41576 89.8839C1.57421 88.4242 0.0602738 85.7982 0 85.0214C0.420487 85.3201 1.32754 86.2081 2.07345 86.9383C2.41321 87.2709 2.71954 87.5708 2.93123 87.7674C3.3987 88.2076 3.88501 88.6327 4.37285 89.0592C4.89346 89.5143 5.41581 89.9709 5.91884 90.449C7.87568 92.3092 9.98552 94.0405 12.1598 95.6431C14.3904 97.2778 23.6431 103.591 25.7771 104.799C31.1645 107.843 36.1331 109.88 42.2452 111.104C48.0217 112.255 51.4426 112.152 56.5719 111.996C57.0772 111.981 57.5991 111.965 58.1415 111.95C59.5669 111.902 61.0003 110.992 61.6686 109.76C62.0609 109.735 62.4205 109.718 62.7594 109.702C64.2225 109.631 65.3017 109.579 66.9755 109.075C68.1673 108.713 70.3174 107.996 71.2757 107.449C72.2903 108.987 72.846 108.874 74.0459 107.577C74.2053 107.406 74.3889 107.217 74.5826 107.017C75.1713 106.411 75.8525 105.709 76.2282 105.121L76.8805 105.379C77.1449 104.308 78.5322 103.437 80.0178 102.506C81.1563 101.792 82.3525 101.041 83.1456 100.137C83.2443 100.025 83.3295 99.8698 83.414 99.7164C83.5362 99.4943 83.6568 99.2753 83.814 99.1944L84.3454 100.128C84.9091 99.8225 89.604 94.5962 90.5703 93.2514C91.0916 92.5237 91.298 91.9388 91.5228 91.3017C91.6314 90.994 91.7443 90.6742 91.899 90.3201C92.895 91.2025 93.3361 90.7254 94.0377 89.9666C94.1812 89.8113 94.3357 89.6442 94.5081 89.4746C95.646 88.3489 95.7402 88.3359 96.5555 88.223C96.8192 88.1865 97.1583 88.1396 97.6326 88.0412C105.542 86.4163 106.123 80.1502 106.696 73.9811C106.81 72.7514 106.923 71.5255 107.095 70.341C107.626 66.6689 108.633 37.3244 107.932 35.2951L102.158 35.279C101.16 34.184 100.31 32.9274 99.4517 31.6581C98.6624 30.491 97.8659 29.3132 96.9401 28.2408C94.6772 25.6317 93.5257 24.4237 90.7072 22.3864C90.9471 22.6961 91.5786 23.2704 92.3737 23.9934C93.6872 25.1878 95.4472 26.7882 96.626 28.273C96.6748 28.3345 96.7369 28.4124 96.8104 28.5047C97.9019 29.8748 101.512 34.4063 101.482 35.1984C101.105 35.2725 100.18 33.8706 99.6017 32.9942C99.4255 32.7272 99.2814 32.5089 99.1949 32.3961C96.4247 28.7401 95.0316 27.1617 91.6977 23.8198C91.3944 23.5165 90.9971 23.1739 90.5909 22.8237C89.9402 22.2626 89.2665 21.6817 88.9195 21.2107C88.5106 20.659 87.2598 19.8407 86.3807 19.2656C86.169 19.1271 85.9788 19.0027 85.8272 18.8995C83.7093 17.458 81.2209 16.2098 78.8937 15.1469C73.5144 12.6747 67.668 11.3218 61.7894 10.7983C57.0463 10.3715 51.6348 10.8306 46.9319 11.6842C46.5803 11.7481 46.0902 11.8614 45.5594 11.9841C44.4859 12.2323 43.246 12.519 42.6478 12.5136C46.3561 11.3577 47.4187 11.1808 50.8611 10.6078C50.992 10.586 51.1263 10.5637 51.2644 10.5406C51.4924 10.5002 52.1473 10.4312 52.8038 10.362C53.5844 10.2797 54.3672 10.1972 54.4372 10.1622C53.8422 9.91582 52.2466 10.088 50.8766 10.2358C49.8732 10.3441 48.9908 10.4393 48.7116 10.3474C48.7277 10.3393 50.6202 9.985 50.8376 9.95279C50.989 9.92986 51.2063 9.90496 51.4489 9.87718C52.058 9.8074 52.8263 9.71941 53.1085 9.59847L50.8859 9.67094C51.0315 9.61467 51.2496 9.54649 51.5054 9.46655C52.4939 9.15752 54.0449 8.67268 54.1473 8.02011C53.744 7.78799 52.7152 7.85246 51.9467 7.90062C51.7022 7.91594 51.4841 7.92961 51.3208 7.93156C51.7338 7.69332 56.0387 7.09486 56.5751 7.15553C56.5819 7.1565 56.5887 7.15749 56.5954 7.15848C56.5894 7.15737 56.5826 7.15638 56.5751 7.15553C54.1546 6.80981 48.3012 7.81296 45.4986 8.59189L44.4115 8.914C44.2733 8.9831 44.2231 8.97577 44.2224 8.97896C44.2218 8.98171 44.2583 8.99233 44.3068 9.06701C44.0761 9.20333 43.0466 9.45572 42.1873 9.66637C41.7269 9.77925 41.3153 9.88015 41.1018 9.94477C40.8359 10.0262 40.4814 10.1542 40.1001 10.2918C39.3496 10.5628 38.4954 10.8712 38.0095 10.9353C38.1561 10.7459 38.715 10.4778 39.1451 10.2715C39.2821 10.2058 39.4059 10.1464 39.4993 10.0978C39.5556 10.0736 39.6925 10.0092 39.7409 9.96893C39.8567 9.87537 39.9035 9.87793 39.9059 9.8689C39.9078 9.86161 39.8807 9.84676 39.8375 9.7676C40.9246 9.22806 42.503 8.59994 43.6948 8.17314C43.9196 8.0922 44.5462 7.92198 45.2522 7.73019C46.4426 7.40681 47.8587 7.02211 47.9548 6.90079C48.5341 6.68066 49.8854 6.52199 51.3994 6.34422C54.0946 6.02777 57.3052 5.65078 57.594 4.75874C54.9768 4.01788 46.626 5.83782 43.7592 6.65921C40.9166 7.46449 37.6954 8.608 35.0138 9.89645C34.8214 9.98865 34.5986 10.1013 34.3603 10.2218C33.6413 10.5852 32.782 11.0196 32.1953 11.1769C34.5065 9.16364 42.1164 6.28878 45.2087 5.49155C45.0378 5.43102 44.9866 5.43503 44.9554 5.43747C44.9161 5.44054 44.9088 5.44111 44.7336 5.30633C46.6663 4.67016 48.1802 4.27557 50.2579 3.9454C50.4946 3.90717 50.898 3.85123 51.3868 3.78345C53.0599 3.55147 55.7332 3.1808 56.1445 2.90658C51.8362 2.85021 44.4679 4.54936 40.4495 6.22436C39.5815 6.5849 38.7441 6.92386 37.928 7.25421C34.3147 8.7168 31.118 10.0108 27.5247 12.264C23.5627 14.7523 20.2852 17.3695 16.9755 20.6712C14.8334 22.8052 12.0713 25.7122 10.2514 28.1683C10.0579 28.4297 9.85499 28.7263 9.64588 29.032C9.18481 29.706 8.69347 30.4243 8.20594 30.9063C8.76158 27.0732 11.0325 23.9728 13.6899 21.2912L13.7675 21.2126C16.2005 18.7477 18.7597 16.1548 21.4609 14.0034C21.8801 13.669 22.2913 13.3382 22.6977 13.0113C25.1098 11.0709 27.3553 9.2646 30.1258 7.6175C32.7311 6.05782 35.1711 5.17613 37.7594 4.24086C38.7392 3.8868 39.7403 3.52506 40.7797 3.11596C41.0496 3.23166 42.5664 2.8394 43.4502 2.61086C43.6735 2.55309 43.8565 2.50578 43.9686 2.47978C45.0074 2.24625 46.2878 2.03688 47.3588 1.88387C48.5426 1.72282 49.7264 1.59397 50.9182 1.46513C51.1316 1.44112 51.5791 1.41623 52.095 1.38753C53.1369 1.32959 54.458 1.25611 54.695 1.14301C53.8414 0.716213 50.0807 1.17522 48.9775 1.36044ZM38.0095 10.9353L37.8162 11.0319C37.8397 10.9655 37.8176 10.9427 37.8218 10.9359C37.8262 10.9286 37.8602 10.9394 38.0095 10.9353ZM74.4876 8.56139C74.8677 8.68034 75.1592 8.80124 75.3343 8.92203L75.3344 8.92206C75.1593 8.80126 74.8677 8.68035 74.4876 8.56139ZM94.2658 18.8693C94.2331 18.8316 94.2015 18.7952 94.1701 18.7595C94.2015 18.7952 94.2331 18.8316 94.2658 18.8692C94.2658 18.8693 94.2658 18.8693 94.2658 18.8693ZM94.2658 18.8693C94.3836 19.0049 94.5149 19.156 94.6967 19.3445ZM94.7336 19.3827C94.7211 19.3698 94.7088 19.357 94.6967 19.3445ZM96.9459 21.4543C96.8552 21.3742 96.7649 21.2944 96.6747 21.2145C96.7649 21.2944 96.8552 21.3742 96.9459 21.4543C96.9459 21.4543 96.9459 21.4543 96.9459 21.4543ZM100.596 25.0519C100.504 24.9473 100.414 24.8455 100.324 24.7462C100.414 24.8455 100.504 24.9473 100.596 25.0519C100.596 25.0519 100.596 25.0519 100.596 25.0519ZM105.492 31.0413C105.594 31.1808 105.697 31.321 105.798 31.4619C105.798 31.4619 105.798 31.4619 105.798 31.462C106.531 32.478 106.891 33.0581 107.107 33.4644C107.236 33.7081 107.314 33.8893 107.389 34.0644C107.483 34.2842 107.573 34.4945 107.757 34.8073C107.773 34.8344 107.789 34.8623 107.807 34.8911C107.821 34.9151 107.836 34.9397 107.852 34.9649C107.866 34.9888 107.881 35.0125 107.896 35.0361C107.919 35.0734 107.942 35.1102 107.966 35.1467C108.231 35.563 108.491 35.9273 108.748 36.2867C108.748 36.2867 108.748 36.2867 108.748 36.2867C109.187 36.9 109.615 37.499 110.038 38.3174C110.066 38.3719 110.094 38.4274 110.123 38.484C110.123 38.484 110.123 38.484 110.123 38.484M110.568 39.4215C111.615 41.7021 112.692 44.577 113.32 46.8106C113.369 46.9894 113.414 47.1659 113.458 47.3405C113.6 47.9052 113.737 48.4498 114.02 48.9849C114.817 50.5069 115.607 54.4608 115.526 56.0231C115.526 56.0231 115.526 56.0231 115.526 56.0231C115.607 54.4609 114.817 50.5069 114.02 48.9849C113.737 48.4498 113.6 47.9052 113.458 47.3405C113.414 47.1659 113.369 46.9894 113.32 46.8107C112.693 44.577 111.615 41.7021 110.568 39.4215ZM115.173 55.9979C115.004 55.9725 114.842 55.948 114.511 56.0231C114.511 56.0231 114.511 56.0231 114.511 56.0231C114.3 56.0728 114.17 56.1396 114.043 56.2048C113.964 56.2451 113.886 56.2849 113.792 56.3196C113.742 56.3378 113.687 56.3546 113.626 56.3694C113.313 56.0225 112.511 54.0139 112.115 53.0215C112.051 52.862 111.998 52.7288 111.959 52.6329C111.541 51.5979 111.118 50.7077 110.672 49.768C110.542 49.494 110.41 49.2158 110.276 48.9286C110.276 48.9286 110.276 48.9286 110.276 48.9286C110.276 48.9286 110.276 48.9286 110.276 48.9285C110.161 49.1294 110.628 50.5087 111.054 51.7647C111.345 52.6238 111.616 53.4251 111.669 53.7522C111.571 53.9125 111.483 54.0093 111.394 54.1064C111.243 54.2727 111.091 54.4398 110.888 54.9279C110.556 55.7241 110.326 56.0256 110.143 56.0837C109.97 56.1385 109.839 55.9754 109.704 55.8073M100.596 25.0519C102.31 27.0072 103.953 28.9484 105.492 31.0413ZM109.512 63.77C109.354 60.2908 109.176 56.3469 109.366 55.5077C109.366 55.5077 109.366 55.5077 109.366 55.5077C109.176 56.3468 109.354 60.2908 109.511 63.77C109.602 65.7664 109.685 67.6099 109.688 68.6258C109.688 68.9683 109.659 69.53 109.628 70.1391C109.573 71.2057 109.511 72.4178 109.583 72.8535C109.583 72.8535 109.583 72.8535 109.583 72.8535C109.511 72.4177 109.573 71.2057 109.628 70.1392C109.659 69.53 109.688 68.9683 109.688 68.6258C109.685 67.6099 109.602 65.7665 109.512 63.77ZM110.944 71.6859C111.025 72.3059 110.952 73.3689 110.654 73.9245C110.431 74.3477 110.184 74.4906 109.945 74.5319C110.184 74.4906 110.431 74.3478 110.654 73.9246C110.952 73.3689 111.025 72.306 110.944 71.6859C110.944 71.6859 110.944 71.6859 110.944 71.6859ZM109.511 74.534C109.418 74.5274 109.33 74.5227 109.249 74.5338C109.187 74.5422 109.129 74.5598 109.076 74.5929C108.891 75.0117 109.382 75.9378 109.664 76.3001C109.664 76.3002 109.664 76.3001 109.664 76.3002C109.978 76.7052 110.251 76.9196 110.593 77.1614C110.642 77.196 110.692 77.2311 110.744 77.2674C110.813 77.3155 110.885 77.3657 110.96 77.4195C110.96 77.4195 110.96 77.4195 110.96 77.4195M111.263 77.7001C111.8 78.3748 111.194 79.182 110.615 79.9538C110.467 80.1511 110.32 80.3461 110.195 80.5359C110.012 80.8183 109.806 81.169 109.589 81.537C109.158 82.2707 108.686 83.073 108.278 83.5396C108.11 83.7318 107.53 84.2794 106.976 84.8036C106.392 85.3555 105.835 85.8816 105.814 85.9394L105.814 85.9394C105.835 85.8816 106.392 85.3556 106.976 84.8037C107.53 84.2795 108.11 83.7319 108.279 83.5397C108.686 83.0731 109.158 82.2707 109.59 81.537C109.806 81.1691 110.012 80.8184 110.195 80.536C110.32 80.3461 110.467 80.1511 110.615 79.9538C111.194 79.182 111.8 78.3748 111.263 77.7001ZM107.095 86.4709C106.941 86.7457 106.79 86.8839 106.643 87.0188C106.321 87.3148 106.016 87.5947 105.734 89.2652C105.654 89.7451 105.068 91.5772 104.458 91.6916C105.068 91.5773 105.654 89.7451 105.734 89.2652C106.016 87.5947 106.321 87.3148 106.643 87.0189C106.79 86.884 106.941 86.7457 107.095 86.4709L107.095 86.4709ZM104.212 90.2075C104.212 90.2074 104.212 90.2074 104.212 90.2074C103.968 90.3386 103.914 90.4213 103.847 90.5255C103.737 90.6963 103.59 90.925 102.505 91.52C101.492 92.0716 101.366 92.3421 101.271 92.5455C101.213 92.6688 101.167 92.7674 100.942 92.889C101.167 92.7675 101.213 92.6689 101.271 92.5456C101.366 92.3422 101.492 92.0716 102.505 91.52C103.59 90.925 103.737 90.6963 103.847 90.5256C103.914 90.4214 103.968 90.3387 104.212 90.2075ZM99.7841 91.8027C100.107 91.2941 100.392 90.8465 100.62 90.747C100.392 90.8465 100.107 91.2941 99.784 91.8026C99.4016 92.4044 98.965 93.0915 98.5023 93.3883C98.3859 93.4641 98.2961 93.5022 98.2223 93.514C98.2961 93.5022 98.3859 93.4642 98.5024 93.3883C98.965 93.0915 99.4017 92.4044 99.7841 91.8027ZM97.5602 93.1709C97.5602 93.1709 97.5602 93.1708 97.5602 93.1708C96.8998 95.49 95.7 97.2617 94.025 98.9367C93.8272 99.1344 93.3877 99.6127 92.8539 100.194C91.5833 101.576 89.7784 103.54 89.4268 103.688L89.4269 103.688C89.7784 103.54 91.5833 101.576 92.8539 100.194C93.3878 99.6127 93.8273 99.1345 94.025 98.9367C95.7 97.2617 96.8999 95.4901 97.5602 93.1709ZM88.8873 102.673L88.8872 102.673C88.7436 102.803 88.6175 103.014 88.4851 103.234C88.3801 103.409 88.2711 103.591 88.1464 103.744C87.4168 104.627 86.1834 105.4 84.9629 106.165C83.3679 107.164 81.795 108.149 81.3981 109.349C81.3981 109.349 81.3982 109.349 81.3982 109.349C81.7951 108.149 83.3679 107.164 84.963 106.165C86.1834 105.4 87.4169 104.627 88.1465 103.744C88.2712 103.591 88.3802 103.409 88.4852 103.234C88.6176 103.014 88.7437 102.803 88.8873 102.673ZM80.8887 109.14C80.8887 109.14 80.8886 109.14 80.8886 109.14C80.7293 109.131 80.5573 109.348 79.8359 110.211C79.5824 110.511 79.2858 110.817 78.9972 111.116C78.8365 111.282 78.6782 111.445 78.5313 111.604C78.4563 111.685 78.3818 111.772 78.3059 111.86C78.0021 112.215 77.6755 112.596 77.2015 112.714C77.6756 112.596 78.0022 112.215 78.306 111.86C78.3819 111.772 78.4564 111.685 78.5314 111.604C78.6783 111.445 78.8366 111.282 78.9973 111.116C79.2859 110.817 79.5825 110.511 79.8359 110.211C80.5574 109.348 80.7294 109.131 80.8887 109.14ZM76.9852 112.747C76.9852 112.747 76.9852 112.747 76.9852 112.747C76.9851 112.747 76.9851 112.747 76.9851 112.747C76.9851 112.747 76.9852 112.747 76.9852 112.747ZM75.423 111.62C75.0809 111.688 74.319 112.023 73.7118 112.29C73.4613 112.4 73.2372 112.499 73.0796 112.562C71.5839 113.156 70.4515 113.489 69.3229 113.688C70.4515 113.489 71.5839 113.156 73.0795 112.562C73.2371 112.499 73.4612 112.4 73.7117 112.29C74.319 112.023 75.0808 111.688 75.4229 111.62C75.4229 111.62 75.423 111.62 75.423 111.62ZM65.059 114.036C65.059 114.036 65.0589 114.036 65.0589 114.036C64.4395 115.592 62.9845 116.142 61.4352 116.362C62.9845 116.142 64.4395 115.592 65.059 114.036ZM59.2656 116.526C59.2656 116.526 59.2656 116.526 59.2656 116.526C59.0368 116.535 58.8142 116.545 58.6005 116.556C58.6006 116.556 58.6006 116.556 58.6006 116.556C58.8143 116.545 59.0369 116.536 59.2656 116.526ZM12.9491 99.3796C12.949 99.3796 12.949 99.3796 12.949 99.3796C12.958 99.404 12.9715 99.4308 12.9891 99.46C12.9715 99.4309 12.9581 99.404 12.9491 99.3796ZM15.232 101.479C15.3068 101.539 15.3821 101.6 15.4575 101.661C15.4576 101.661 15.4576 101.661 15.4576 101.661C15.3822 101.6 15.3069 101.539 15.232 101.479ZM18.0627 103.929C18.2211 104.113 18.3122 104.263 18.3122 104.364C18.3122 104.364 18.3122 104.364 18.3123 104.364C18.3123 104.263 18.2212 104.113 18.0627 103.929ZM58.7535 10.1219L59.6232 10.2588C59.9453 10.2588 60.1708 10.2588 60.4849 10.3232L65.6145 10.9755C65.8177 11.0087 66.2826 11.0946 66.8743 11.2038C68.7211 11.5448 71.8031 12.1139 72.0165 12.0224C71.8313 11.8935 69.488 11.3379 69.037 11.2412C67.9579 11.0077 66.9272 10.8064 65.832 10.6292C64.7368 10.4521 59.5346 9.86421 58.7535 10.1219ZM63.1609 9.71617C61.4955 9.58335 57.6483 9.27655 57.0544 9.50989C57.4303 9.65085 58.9701 9.71348 59.8453 9.74908C60.0201 9.75619 60.1683 9.76222 60.2755 9.76758L66.6131 10.5245C67.3942 10.6614 69.0692 10.9191 69.802 10.9111C69.7997 10.9087 69.7968 10.9057 69.7936 10.9023C69.7747 10.8823 69.7433 10.849 69.7295 10.8628C69.7247 10.8774 69.7081 10.8626 69.6903 10.8468C69.6787 10.8364 69.6666 10.8257 69.6571 10.8225L69.5121 10.7581C69.4678 10.7433 69.3662 10.7195 69.2811 10.6995C69.2271 10.6869 69.1797 10.6757 69.1578 10.6695L66.8869 10.2266C66.5699 10.1788 66.2427 10.1223 65.9109 10.0651C65.1807 9.93915 64.4284 9.80936 63.7141 9.75952C63.5815 9.7497 63.3923 9.73461 63.1609 9.71617Z" fill="url(#paint0_linear_63_545)"/>
<defs>
<linearGradient id="paint0_linear_63_545" x1="60.3498" y1="0" x2="60.3498" y2="123" gradientUnits="userSpaceOnUse">
<stop stop-color="white"/>
<stop offset="1" stop-color="white" stop-opacity="0.2"/>
</linearGradient>
</defs>
</svg>
