<svg width="800" height="578" viewBox="0 0 800 578" fill="none" xmlns="http://www.w3.org/2000/svg">
<path d="M746.339 41.2678C745.635 41.7663 744.806 42.0589 743.945 42.1129C741.619 42.2212 739.314 41.6327 737.325 40.4227C734.649 39.0143 734.508 38.4509 730.001 37.7467C730.759 37.1999 731.623 36.8162 732.537 36.6199C734.718 36.021 737.033 36.1195 739.156 36.9016C741.126 37.542 742.98 38.4929 744.649 39.7185C745.27 40.1684 745.837 40.6883 746.339 41.2678V41.2678Z" fill="#C74E1A"/>
<path d="M762.678 67.1833C766.667 67.6258 770.704 67.1932 774.509 65.9157C775.612 65.5878 776.624 65.0093 777.466 64.2255C772.649 65.2831 767.621 64.7901 763.1 62.8171C759.639 61.184 756.566 58.8311 754.086 55.9156C752.2 53.7481 750.547 51.3877 749.157 48.8734C748.525 47.803 748.006 46.6702 747.607 45.4931C751.39 50.2309 756.73 53.4746 762.678 54.648C765.144 55.1728 767.698 55.1246 770.143 54.5072C768.164 54.7003 766.17 54.3598 764.368 53.5213C761.128 52.2537 757.044 49.1551 753.664 42.9579C750.283 36.7607 744.65 33.6621 740.988 32.817C738.945 32.3793 736.833 32.3793 734.79 32.817C735.898 31.1542 737.352 29.7515 739.055 28.7059C740.757 27.6602 742.666 26.9965 744.65 26.7606C747.624 26.233 750.688 26.8358 753.241 28.4508C758.171 32.2536 761.833 34.0846 764.368 34.648C765.638 35.0666 766.982 35.2106 768.312 35.0705C766.058 34.5071 764.65 32.2536 761.551 26.479C760.877 25.3104 759.914 24.3342 758.755 23.6437C757.596 22.9533 756.28 22.5716 754.931 22.5353C753.466 22.5381 752.004 22.6796 750.565 22.9578C752.379 21.2605 754.71 20.2192 757.185 20.0001C758.65 19.7131 760.163 19.7945 761.589 20.237C763.015 20.6795 764.309 21.4693 765.354 22.5353C767.051 24.3912 769.113 25.8775 771.41 26.9015C772.91 27.5755 774.568 27.8193 776.199 27.6057C777.336 27.5111 778.441 27.175 779.438 26.6198C779.876 26.4329 780.263 26.143 780.565 25.7747C778.619 26.1558 776.605 25.974 774.759 25.2505C772.913 24.527 771.311 23.2919 770.143 21.6902C769.113 20.2064 768.394 18.5296 768.03 16.7606C770.847 20.8451 773.664 21.4085 776.621 20.986C779.579 20.5634 782.678 19.2958 786.34 20.2818C790.111 21.1009 793.461 23.2509 795.776 26.3381C796.721 27.7355 797.479 29.2508 798.03 30.8452C798.59 32.4405 798.968 34.0943 799.157 35.7747C799.387 37.3601 799.481 38.9621 799.438 40.5635C799.425 41.8826 799.331 43.1996 799.157 44.5072L798.452 48.1691C798.2 48.8063 798.012 49.4668 797.889 50.141C798.875 45.6339 798.312 42.6762 797.185 40.986C796.058 39.2959 794.509 38.8733 793.382 39.8593C792.765 40.3227 792.036 40.6143 791.269 40.7043C790.002 40.7043 788.312 40.141 786.481 37.7466C784.65 35.3522 780.847 36.1973 779.438 37.7466C780.081 37.5776 780.75 37.5298 781.41 37.6057C782.063 37.6015 782.7 37.8035 783.231 38.1828C783.762 38.5622 784.16 39.0996 784.368 39.7184C785.636 42.9579 786.199 44.0846 787.326 44.3663C786.712 44.4455 786.089 44.3976 785.495 44.2255C783.557 43.5227 781.818 42.3632 780.424 40.8452C778.875 39.2959 774.368 38.5917 771.551 43.3804C772.514 43.1155 773.525 43.0674 774.509 43.2396C776.199 43.6621 778.452 44.9297 780.283 48.7325C781.219 51.0578 782.972 52.9611 785.213 54.0847C786.111 54.4231 787.082 54.5202 788.03 54.3663C786.845 54.7276 785.594 54.8237 784.368 54.648C781.541 54.1676 779.013 52.6006 777.326 50.2818C777.999 52.2513 779.051 54.0697 780.424 55.6339C781.695 57.2871 783.451 58.5016 785.446 59.1077C787.441 59.7138 789.575 59.6812 791.551 59.0142C791.551 59.0142 794.509 58.4509 796.762 53.5213C794.227 59.8593 790.847 64.0847 786.903 66.479C783.571 68.7099 779.645 69.8876 775.635 69.8593C772.534 69.9543 769.439 69.5257 766.481 68.5917C765.177 68.2251 763.905 67.7541 762.678 67.1833Z" fill="#C74E1A"/>
<path d="M723.101 91.972C722.265 92.1509 721.401 92.1509 720.565 91.972C718.291 91.2615 716.28 89.8883 714.791 88.0284C713.353 85.7999 711.297 84.0381 708.875 82.9579C709.802 82.7701 710.751 82.7227 711.692 82.8171C713.969 83.0058 716.133 83.891 717.889 85.3523C720.21 87.0297 722.015 89.3227 723.101 91.972V91.972Z" fill="#C74E1A"/>
<path d="M729.579 121.972C734.932 124.226 738.734 124.93 741.129 124.789C742.284 124.866 743.441 124.673 744.509 124.226C739.591 123.523 735.013 121.308 731.41 117.888C728.751 115.202 726.688 111.987 725.354 108.451C724.301 105.733 723.592 102.894 723.241 100C722.996 98.8416 722.854 97.6632 722.819 96.4792C723.504 98.175 724.304 99.822 725.213 101.409C725.99 102.754 726.886 104.026 727.889 105.212C729.538 107.208 731.544 108.88 733.805 110.141C735.404 111.046 737.107 111.755 738.875 112.254L740.988 112.536C739.036 112.066 737.239 111.095 735.777 109.719C733.241 107.324 730.425 103.099 729.439 96.0566C728.895 92.7758 727.646 89.6521 725.777 86.9017C724.517 85.0394 722.887 83.4571 720.988 82.2538C719.189 81.1106 717.176 80.344 715.072 80.0003C716.869 78.7256 718.946 77.9042 721.129 77.6059C722.946 77.2263 724.826 77.2746 726.622 77.7468C729.585 78.3557 732.233 80.0043 734.087 82.3947C737.326 87.6059 740.002 90.4228 742.256 91.9721C743.316 92.8327 744.575 93.4138 745.918 93.6623C744.844 92.8743 744.093 91.7231 743.805 90.4228C743.172 88.0635 742.701 85.6635 742.396 83.2397C742.188 81.92 741.636 80.6784 740.795 79.6399C739.955 78.6014 738.855 77.8027 737.608 77.3242C736.271 76.717 734.843 76.3362 733.382 76.1975C734.461 75.7505 735.6 75.4657 736.763 75.3524C738.084 75.2347 739.415 75.3298 740.706 75.6341C742.182 75.9138 743.567 76.5468 744.745 77.4788C745.922 78.4109 746.856 79.6144 747.467 80.9862C750.002 86.62 753.242 88.8735 755.777 89.4369C757.352 89.8611 759.018 89.8121 760.565 89.2961C758.357 88.7978 756.317 87.7294 754.65 86.1975C753.536 84.9389 752.718 83.447 752.256 81.8313C751.833 80.0797 751.738 78.2653 751.974 76.4791C753.242 81.2679 755.636 82.6763 758.453 83.3806C761.27 84.0848 764.791 83.9439 767.889 86.0566C771.132 88.1736 773.526 91.365 774.65 95.0707C775.378 98.3701 775.329 101.793 774.509 105.071C773.923 107.878 772.927 110.583 771.551 113.099C770.97 114.223 770.311 115.305 769.58 116.338C769.254 116.933 768.877 117.499 768.453 118.029C773.242 110.282 770.425 105.916 767.749 106.761C767.027 107.026 766.244 107.075 765.495 106.902C764.227 106.479 762.819 105.352 761.974 102.395C761.129 99.4369 757.185 99.0144 755.354 100C756.047 100.029 756.723 100.222 757.326 100.564C757.93 100.82 758.441 101.253 758.794 101.807C759.146 102.36 759.321 103.007 759.298 103.662C759.439 107.043 759.58 108.31 760.565 108.874C759.946 108.806 759.359 108.562 758.875 108.169C757.361 106.798 756.16 105.117 755.354 103.24C754.368 101.268 750.284 99.1553 746.058 102.676C747.063 102.656 748.048 102.951 748.875 103.521C749.75 104.151 750.472 104.969 750.988 105.916C751.827 107.328 752.31 108.923 752.396 110.564C752.392 111.821 752.639 113.067 753.122 114.228C753.606 115.389 754.317 116.442 755.213 117.324C755.921 117.979 756.8 118.419 757.749 118.592C756.515 118.534 755.312 118.196 754.227 117.606C751.752 116.196 749.931 113.869 749.157 111.127C749.131 113.188 749.465 115.237 750.143 117.183C750.797 119.161 752.036 120.893 753.696 122.15C755.356 123.408 757.358 124.131 759.439 124.226C759.439 124.226 762.537 124.648 766.34 120.705C764.299 123.001 761.981 125.035 759.439 126.761C757.289 128.033 754.963 128.982 752.537 129.578C748.609 130.501 744.497 130.256 740.706 128.874C737.782 127.832 735.028 126.36 732.537 124.507C731.465 123.768 730.474 122.919 729.579 121.972Z" fill="#C74E1A"/>
<path d="M683.805 131.268C682.991 131.196 682.212 130.904 681.551 130.423C679.643 128.979 678.258 126.951 677.607 124.648C677.035 122.069 675.712 119.716 673.805 117.888C674.731 118.046 675.632 118.33 676.481 118.733C678.547 119.695 680.267 121.268 681.41 123.24C682.944 125.639 683.774 128.42 683.805 131.268Z" fill="#C74E1A"/>
<path d="M679.438 161.691C682.219 164.505 685.519 166.754 689.157 168.31C690.219 168.787 691.372 169.028 692.537 169.015C688.187 166.683 684.687 163.035 682.537 158.592C680.901 155.114 680.082 151.308 680.142 147.465C680.117 144.572 680.448 141.686 681.128 138.874C681.337 137.684 681.62 136.508 681.973 135.353C682.114 143.099 684.509 148.592 687.466 152.113C689.057 154.074 691.019 155.702 693.241 156.902C691.654 155.701 690.355 154.161 689.438 152.395C687.748 149.155 686.762 144.367 688.311 137.324C689.021 134.076 689.021 130.713 688.311 127.465C687.7 125.284 686.698 123.232 685.354 121.409C684.123 119.723 682.536 118.328 680.706 117.324C689.861 114.93 696.621 121.831 697.466 126.198C698.311 130.564 700.283 135.916 701.833 138.029C702.449 139.196 703.375 140.17 704.509 140.846C703.816 139.758 703.518 138.465 703.664 137.184L704.931 130C705.178 128.677 705.089 127.312 704.67 126.032C704.252 124.753 703.518 123.598 702.537 122.676C701.479 121.72 700.294 120.914 699.016 120.282C701.511 120.189 703.974 120.878 706.058 122.254C707.343 123.021 708.425 124.088 709.209 125.363C709.994 126.639 710.459 128.084 710.565 129.578C710.847 135.775 713.1 139.015 715.354 140.564C716.677 141.483 718.25 141.974 719.861 141.972C715.213 138.874 714.509 135.071 714.79 132.113C714.974 130.294 715.499 128.526 716.34 126.902C715.776 131.972 717.466 134.085 720.002 135.775C722.537 137.465 725.776 138.451 727.889 141.55C730.239 144.597 731.346 148.422 730.988 152.254C730.603 155.64 729.394 158.88 727.466 161.691C725.827 164.088 723.886 166.266 721.692 168.17L718.734 170.705L717.044 171.691C720.706 169.015 722.255 166.339 722.537 164.226C722.819 162.113 721.833 160.986 720.424 160.986C719.646 160.946 718.903 160.649 718.311 160.141C717.185 159.437 716.199 157.888 716.481 154.789C716.762 151.691 713.241 149.86 711.269 150.141C711.861 150.463 712.386 150.893 712.819 151.409C713.291 151.877 713.621 152.47 713.77 153.118C713.92 153.766 713.883 154.443 713.664 155.071C712.537 158.31 712.255 159.437 712.819 160.423C712.307 160.1 711.874 159.667 711.551 159.155C710.537 157.349 710.004 155.312 710.002 153.24C709.72 151.127 706.762 147.606 701.551 149.437C702.465 149.815 703.248 150.451 703.804 151.268C704.931 152.677 705.776 155.071 704.649 159.155C703.523 163.24 704.086 164.93 704.931 166.479C705.378 167.272 706.005 167.947 706.762 168.451C705.687 167.949 704.728 167.23 703.945 166.339C703.02 165.258 702.319 164.004 701.884 162.65C701.448 161.296 701.287 159.868 701.41 158.451C701.41 158.451 701.128 159.155 700.847 160.141C700.492 161.523 700.303 162.941 700.283 164.367C700.157 166.451 700.687 168.523 701.799 170.291C702.91 172.06 704.547 173.435 706.48 174.226C707.035 174.561 707.664 174.755 708.311 174.789C710.32 174.95 712.33 174.508 714.086 173.522C709.267 176.291 703.699 177.473 698.171 176.902C694.232 176.224 690.541 174.525 687.466 171.972C685.057 170.046 683.007 167.71 681.41 165.071C680.632 164.019 679.971 162.886 679.438 161.691Z" fill="#C74E1A"/>
<path d="M631.973 157.324C631.973 157.324 627.889 156.338 627.325 149.578C627.044 146.62 627.466 146.198 625.213 142.113C626.768 142.615 628.175 143.495 629.306 144.675C630.437 145.855 631.257 147.298 631.692 148.874C632.567 151.61 632.665 154.536 631.973 157.324V157.324Z" fill="#C74E1A"/>
<path d="M621.41 186.479C628.452 195.916 632.818 196.057 632.818 196.057C623.945 188.31 623.241 179.437 624.508 172.677C625.035 169.783 625.984 166.984 627.325 164.367C627.829 163.257 628.393 162.175 629.015 161.127C627.42 166.973 628.073 173.204 630.846 178.592C632.005 180.842 633.582 182.85 635.494 184.508C634.184 183.019 633.265 181.228 632.818 179.296C631.832 175.916 631.691 170.846 634.931 164.367C638.17 157.888 637.889 151.409 636.48 148.029C635.661 146.042 634.41 144.262 632.818 142.817C634.948 142.677 637.081 143.023 639.058 143.828C641.034 144.633 642.801 145.877 644.227 147.465C646.217 149.722 647.318 152.625 647.325 155.634C646.621 161.831 647.184 165.775 648.03 168.31C648.393 169.626 649.069 170.834 650.001 171.831C649.156 169.578 650.142 167.184 653.522 161.409C654.195 160.224 654.537 158.879 654.512 157.516C654.488 156.154 654.097 154.823 653.382 153.662C652.652 152.416 651.751 151.279 650.706 150.282C654.649 150.986 660.565 156.198 658.875 162.676C657.184 169.155 658.593 172.395 660.283 174.508C661.226 175.82 662.555 176.805 664.086 177.324C660.706 172.817 660.987 169.015 662.255 166.338C662.922 164.655 663.985 163.158 665.353 161.972C663.241 166.479 664.227 169.015 666.058 171.409C667.889 173.803 670.706 175.775 671.692 179.437C674.368 187.888 670.565 194.226 666.058 198.17C664.035 199.886 661.812 201.352 659.438 202.536C658.443 203.085 657.407 203.556 656.339 203.944L654.649 204.508C662.114 201.55 662.396 196.198 659.861 195.353C659.861 195.353 655.917 194.085 657.607 188.31C658.734 185.353 655.917 182.817 653.945 182.536C651.973 182.254 656.762 185.071 655.072 187.747C653.382 190.423 652.818 191.691 653.1 192.677C653.382 193.662 651.128 190.846 652.114 185.071C652.396 182.958 650.424 178.874 645.072 179.155C645.832 179.795 646.414 180.62 646.762 181.55C647.466 183.099 647.607 185.634 645.917 189.296C642.537 195.493 646.058 198.733 646.058 198.733C645.116 198.021 644.346 197.106 643.804 196.057C642.439 193.506 642.136 190.52 642.959 187.747C641.841 189.456 641.074 191.372 640.706 193.381C640.274 195.39 640.429 197.481 641.153 199.404C641.878 201.327 643.14 203.001 644.79 204.226C644.79 204.226 646.903 206.339 651.691 205.493C639.72 208.451 632.255 203.522 627.607 198.029C624.81 194.618 622.706 190.695 621.41 186.479V186.479Z" fill="#C74E1A"/>
<path d="M573.945 178.451C573.945 178.451 569.719 177.324 569.438 170.564C569.156 167.606 569.719 167.043 567.607 162.958C569.18 163.444 570.595 164.339 571.709 165.552C572.823 166.764 573.594 168.251 573.945 169.859C574.74 172.668 574.74 175.642 573.945 178.451V178.451Z" fill="#C74E1A"/>
<path d="M562.677 207.465C569.72 216.902 573.945 217.184 573.945 217.184C556.762 201.268 570.846 182.113 570.846 182.113C566.48 197.465 576.762 205.634 576.762 205.634C576.762 205.634 569.579 198.31 576.762 185.493C583.945 172.676 575.635 163.803 575.635 163.803C587.044 163.662 590.565 172.817 589.861 177.183C587.325 189.437 591.41 193.521 591.41 193.521C590.847 191.268 591.832 189.014 595.776 183.381C599.72 177.747 593.945 172.113 593.945 172.113C598.03 172.958 603.382 178.733 600.987 184.93C596.903 196.902 604.931 200 604.931 200C598.875 190.564 607.466 184.93 607.466 184.93C602.396 193.522 610.706 195.634 611.973 202.958C615.776 220.282 596.48 225.916 596.48 225.916L594.931 226.338C601.973 223.803 602.396 218.592 600.001 217.606C600.001 217.606 596.34 216.057 598.171 210.423C599.297 207.606 596.762 204.789 594.79 204.367C592.818 203.944 597.466 207.043 595.635 209.719C593.804 212.395 593.382 213.381 593.663 214.507C593.945 215.634 591.832 212.536 592.959 206.902C593.241 204.789 591.551 200.564 586.199 200.564C586.199 200.564 590.424 203.803 586.762 210.705C583.1 217.606 586.762 220.141 586.762 220.141C585.291 218.772 584.254 217.002 583.778 215.049C583.303 213.097 583.41 211.048 584.086 209.155C584.086 209.155 577.466 218.169 585.494 225.634C585.494 225.634 587.607 227.747 592.114 227.043C569.438 231.831 562.677 207.465 562.677 207.465Z" fill="#C74E1A"/>
<path d="M515.212 199.296C515.212 199.296 511.128 198.169 510.705 191.409C510.564 188.451 510.987 187.888 508.874 183.803C510.453 184.306 511.877 185.204 513.011 186.412C514.145 187.62 514.951 189.097 515.353 190.705C516.166 193.518 516.117 196.511 515.212 199.296V199.296Z" fill="#C74E1A"/>
<path d="M504.085 228.31C511.128 237.747 515.353 238.029 515.353 238.029C498.029 222.113 512.114 202.958 512.114 202.958C507.888 218.31 518.17 226.479 518.17 226.479C518.17 226.479 510.987 219.156 518.029 206.339C525.071 193.522 516.902 184.789 516.902 184.789C528.311 184.648 531.973 193.662 531.128 198.17C528.733 210.282 532.818 214.367 532.818 214.367C532.114 212.113 533.24 209.86 537.043 204.226C540.846 198.592 535.212 192.958 535.212 192.958C539.297 193.803 544.79 199.719 542.395 205.916C538.311 217.747 546.339 220.986 546.339 220.986C540.142 211.55 548.874 205.916 548.874 205.916C543.663 214.508 551.973 216.479 553.381 223.944C557.043 241.127 537.888 246.761 537.888 246.761L536.339 247.184C543.381 244.649 543.804 239.578 541.41 238.451C541.41 238.451 537.607 237.043 539.579 231.409C540.705 228.451 538.029 225.775 536.198 225.353C534.367 224.93 538.874 228.029 537.043 230.705C535.212 233.381 534.79 234.367 535.071 235.353C535.353 236.339 533.1 233.522 534.226 227.747C534.649 225.634 532.959 221.409 527.607 221.409C527.607 221.409 531.691 224.648 528.17 231.691C524.649 238.733 528.17 241.127 528.17 241.127C526.707 239.722 525.667 237.934 525.169 235.967C524.671 234 524.735 231.933 525.353 230.001C525.353 230.001 518.733 239.015 526.762 246.48C526.762 246.48 528.874 248.733 533.381 248.029C510.705 252.677 504.085 228.31 504.085 228.31Z" fill="#C74E1A"/>
<path d="M456.621 220.282C456.621 220.282 452.395 219.155 451.973 212.395C451.832 209.296 452.395 208.874 450.142 204.789C451.741 205.254 453.186 206.139 454.325 207.353C455.465 208.568 456.258 210.065 456.621 211.691C457.416 214.499 457.416 217.473 456.621 220.282V220.282Z" fill="#C74E1A"/>
<path d="M445.353 249.296C452.395 258.592 456.62 258.874 456.62 258.874C439.437 243.099 453.522 223.803 453.522 223.803C449.156 239.156 459.437 247.325 459.437 247.325C459.437 247.325 452.254 240.142 459.437 227.325C466.62 214.508 458.17 205.634 458.17 205.634C469.578 205.494 473.24 214.649 472.536 219.015C470.001 231.268 474.085 235.212 474.085 235.212C473.522 232.958 474.508 230.705 478.311 225.212C482.113 219.719 476.48 213.803 476.48 213.803C480.705 214.789 486.057 220.564 483.663 226.761C479.578 238.733 487.606 241.832 487.606 241.832C481.55 232.395 490.142 226.761 490.142 226.761C484.93 235.353 493.381 237.325 494.649 244.789C498.451 261.973 479.156 267.606 479.156 267.606L477.606 268.17C484.649 265.635 485.071 260.423 482.677 259.437C482.677 259.437 479.015 257.888 480.846 252.254C481.973 249.437 479.437 246.62 477.466 246.198C475.494 245.775 480.142 248.874 478.311 251.55C476.48 254.226 476.057 255.212 476.339 256.339C476.62 257.466 474.508 254.367 475.635 248.592C475.916 246.62 474.226 242.254 468.874 242.395C468.874 242.395 473.099 245.494 469.437 252.536C465.775 259.578 469.437 261.973 469.437 261.973C467.957 260.609 466.904 258.846 466.404 256.896C465.904 254.947 465.979 252.894 466.62 250.987C466.62 250.987 460.001 260.001 468.17 267.325C468.17 267.325 470.142 269.578 474.789 268.874C452.113 273.522 445.353 249.296 445.353 249.296Z" fill="#C74E1A"/>
<path d="M397.888 241.127C397.888 241.127 393.663 240.141 393.24 233.381C393.099 230.282 393.522 229.86 391.409 225.775C393.008 226.24 394.453 227.125 395.593 228.34C396.733 229.554 397.525 231.051 397.888 232.677C398.694 235.436 398.694 238.368 397.888 241.127V241.127Z" fill="#C74E1A"/>
<path d="M386.761 270.282C393.944 279.578 398.169 279.86 398.169 279.86C389.437 271.973 388.592 263.24 389.86 256.48C390.741 252.347 392.415 248.425 394.789 244.93C393.021 250.719 393.525 256.964 396.198 262.395C397.356 264.645 398.933 266.653 400.845 268.311C400.845 268.311 393.662 261.127 400.705 248.17C407.747 235.212 399.437 226.62 399.437 226.62C410.986 226.339 414.507 235.494 413.803 240.001C411.409 252.113 415.493 256.198 415.493 256.198C414.789 253.944 415.916 251.691 419.719 246.057C423.522 240.423 417.888 234.789 417.888 234.789C421.972 235.634 427.324 241.409 425.071 247.747C420.986 259.578 429.015 262.818 429.015 262.818C428.136 261.67 427.503 260.353 427.154 258.951C426.804 257.548 426.747 256.088 426.985 254.662C427.222 253.236 427.75 251.875 428.535 250.661C429.32 249.447 430.346 248.408 431.55 247.606C426.338 256.198 434.648 258.311 436.057 265.635C436.893 268.909 436.736 272.357 435.608 275.542C434.479 278.727 432.429 281.505 429.719 283.522C427.007 285.764 423.903 287.483 420.564 288.592L419.015 289.015C426.057 286.48 426.479 281.409 424.085 280.282C424.085 280.282 420.282 278.733 422.254 273.24C422.446 272.621 422.51 271.969 422.443 271.324C422.376 270.679 422.178 270.054 421.862 269.488C421.546 268.921 421.118 268.425 420.604 268.029C420.091 267.633 419.502 267.345 418.874 267.184C418.874 267.184 421.55 269.86 419.719 272.395C417.888 274.93 417.465 276.198 417.747 277.184C418.029 278.17 415.916 275.353 416.902 269.578C417.324 267.466 415.634 263.24 410.282 263.24C410.282 263.24 414.507 266.48 410.845 273.522C407.183 280.564 410.986 282.818 410.986 282.818C409.482 281.47 408.401 279.714 407.876 277.764C407.351 275.814 407.404 273.753 408.029 271.832C408.029 271.832 401.55 280.846 409.719 288.311C409.719 288.311 411.691 290.423 416.198 289.719C393.803 294.508 386.761 270.282 386.761 270.282Z" fill="#C74E1A"/>
<path d="M339.156 263.099C339.156 263.099 334.789 262.254 334.226 255.493C333.944 252.395 334.508 251.972 332.254 247.888C333.844 248.307 335.295 249.141 336.458 250.304C337.621 251.466 338.455 252.917 338.874 254.508C339.754 257.291 339.851 260.264 339.156 263.099V263.099Z" fill="#C74E1A"/>
<path d="M328.874 292.677C336.339 301.691 340.424 301.832 340.424 301.832C331.55 294.226 330.424 285.494 331.55 278.733C332.017 275.799 332.919 272.95 334.226 270.282C334.759 269.115 335.371 267.986 336.057 266.902C335.207 269.798 334.944 272.834 335.282 275.833C335.621 278.832 336.555 281.733 338.029 284.367C339.207 286.643 340.837 288.656 342.818 290.282C341.473 288.775 340.465 286.998 339.86 285.071C338.874 281.691 338.733 276.62 342.114 270.141C345.494 263.663 345.353 257.184 344.086 253.663C343.323 251.645 342.063 249.853 340.424 248.451C351.973 248.029 355.776 257.043 355.071 261.55C352.818 273.803 357.043 277.747 357.043 277.747C356.339 275.494 357.325 273.24 361.128 267.465C364.931 261.691 359.015 256.198 359.015 256.198C363.241 257.043 368.733 262.677 366.48 269.015C364.226 275.353 365.635 278.733 367.184 280.987C368.069 282.308 369.282 283.376 370.705 284.085C367.607 279.296 368.17 275.634 369.438 272.958C370.285 271.347 371.49 269.95 372.959 268.874C367.888 277.606 376.339 279.437 377.748 286.902C378.593 290.136 378.484 293.546 377.434 296.72C376.384 299.894 374.439 302.696 371.832 304.789C370.032 306.345 368.045 307.67 365.917 308.733C364.976 309.218 363.984 309.595 362.959 309.86L361.41 310.423C368.311 307.747 368.593 302.677 366.198 301.55C366.198 301.55 362.395 300.142 364.226 294.508C365.212 291.691 362.677 289.015 360.705 288.592C358.733 288.17 363.381 291.268 361.691 293.803C360.001 296.339 359.579 297.606 359.86 298.592C360.142 299.578 357.888 296.761 358.874 290.987C358.904 290.121 358.743 289.26 358.404 288.464C358.064 287.668 357.554 286.956 356.909 286.378C356.265 285.801 355.501 285.372 354.672 285.122C353.844 284.871 352.97 284.806 352.114 284.93C352.114 284.93 356.339 288.029 352.959 295.071C349.579 302.113 353.24 304.508 353.24 304.508C351.711 303.176 350.604 301.428 350.054 299.477C349.503 297.525 349.534 295.456 350.142 293.522C349.087 295.198 348.369 297.064 348.029 299.015C347.648 301.023 347.828 303.098 348.548 305.011C349.269 306.924 350.502 308.602 352.114 309.86C352.114 309.86 354.226 312.113 358.733 311.268C347.607 313.804 340.283 309.296 335.494 303.944C332.639 300.609 330.398 296.794 328.874 292.677V292.677Z" fill="#C74E1A"/>
<path d="M280.845 287.466C280.005 287.305 279.225 286.915 278.592 286.339C276.813 284.681 275.709 282.423 275.493 280.001C275.212 277.043 275.634 276.48 273.099 272.536C274.746 272.92 276.27 273.716 277.526 274.849C278.782 275.982 279.73 277.415 280.282 279.015C281.223 281.731 281.417 284.649 280.845 287.466V287.466Z" fill="#C74E1A"/>
<path d="M272.113 317.466C274.689 320.47 277.733 323.038 281.127 325.071C282.088 325.594 283.14 325.929 284.226 326.057C274.93 319.015 273.24 310.423 273.944 303.522C274.492 299.274 275.83 295.166 277.888 291.409C276.545 297.393 277.607 303.666 280.845 308.874C282.196 310.992 283.913 312.852 285.916 314.367C284.498 313 283.434 311.308 282.817 309.437C281.55 306.057 281.127 300.987 284.085 294.367C287.043 287.747 286.902 281.268 285.353 277.747C284.491 275.788 283.131 274.088 281.409 272.818C293.099 271.691 297.184 280.564 296.761 285.071C296.008 289.294 296.249 293.634 297.465 297.747C297.867 299.005 298.54 300.159 299.437 301.128C298.733 299.015 299.578 296.621 303.099 290.846C306.62 285.071 300.564 279.578 300.564 279.578C304.789 280.282 310.564 285.775 308.451 292.113C306.339 298.452 308.029 301.832 309.719 304.085C310.649 305.352 311.918 306.328 313.381 306.902C306.62 297.888 314.93 291.691 314.93 291.691C310.282 300.564 318.733 302.114 320.423 309.437C321.44 312.619 321.516 316.027 320.642 319.25C319.767 322.474 317.979 325.376 315.493 327.607C313.038 329.941 310.173 331.803 307.043 333.1L305.493 333.663C312.113 330.705 312.113 325.494 309.719 324.649C309.719 324.649 305.916 323.381 307.465 317.747C307.61 317.109 307.626 316.448 307.513 315.803C307.399 315.159 307.158 314.543 306.804 313.992C306.45 313.442 305.99 312.967 305.451 312.596C304.911 312.225 304.303 311.965 303.662 311.832C303.662 311.832 306.479 314.367 304.93 317.043C303.381 319.719 302.958 320.987 303.381 321.973C303.803 322.959 301.268 320.142 301.972 314.367C302.113 312.395 300.141 308.17 294.789 308.592C294.789 308.592 299.155 311.55 296.198 318.733C295.642 319.811 295.306 320.989 295.209 322.198C295.113 323.407 295.257 324.623 295.634 325.776C295.912 326.631 296.396 327.404 297.043 328.029C295.467 326.787 294.283 325.116 293.633 323.217C292.983 321.318 292.896 319.272 293.381 317.325C292.435 319.077 291.815 320.986 291.55 322.959C291.331 324.987 291.659 327.036 292.502 328.894C293.344 330.752 294.669 332.35 296.338 333.522C296.782 333.921 297.312 334.211 297.888 334.367C299.476 334.93 301.2 334.979 302.817 334.508C292.113 337.747 284.507 333.522 279.437 328.452C276.378 325.241 273.9 321.524 272.113 317.466Z" fill="#C74E1A"/>
<path d="M223.803 315.775C223.803 315.775 219.437 315.494 218.029 308.733C217.324 305.775 217.747 305.212 214.93 301.55C216.597 301.749 218.18 302.389 219.517 303.404C220.854 304.419 221.896 305.773 222.536 307.325C223.789 309.953 224.23 312.895 223.803 315.775V315.775Z" fill="#C74E1A"/>
<path d="M217.606 346.48C226.197 354.367 230.282 353.944 230.282 353.944C220.564 347.606 218.028 339.156 218.169 332.254C218.285 329.286 218.806 326.348 219.719 323.522C220.079 322.307 220.55 321.129 221.127 320.001C220.283 326.014 221.797 332.121 225.352 337.043C226.874 339.092 228.789 340.815 230.986 342.113C229.42 340.905 228.205 339.3 227.465 337.466C225.916 334.226 225.071 329.296 227.606 322.395C230.141 315.494 229.437 309.015 227.606 305.634C226.694 303.697 225.222 302.078 223.38 300.987C235.071 299.015 239.859 307.606 239.578 312.113C239.296 316.62 240.141 322.254 241.268 324.649C241.747 325.934 242.519 327.092 243.521 328.029C242.535 325.775 243.24 323.522 246.338 317.465C246.954 316.226 247.238 314.848 247.164 313.466C247.09 312.084 246.66 310.745 245.916 309.578C245.133 308.372 244.185 307.281 243.099 306.339C247.324 306.761 253.381 311.832 251.831 318.311C250.282 324.789 252.113 328.029 253.803 330.142C254.824 331.374 256.202 332.259 257.747 332.677C254.085 328.451 254.226 324.649 255.212 321.832C255.686 320.651 256.352 319.556 257.183 318.592L258.31 317.465C254.085 326.48 262.676 327.606 264.93 334.789C266.127 337.896 266.418 341.279 265.77 344.545C265.121 347.811 263.56 350.826 261.268 353.24C259.677 354.958 257.879 356.472 255.916 357.747L253.381 359.156L251.972 359.86C253.308 359.144 254.502 358.189 255.493 357.043C256.209 356.249 256.695 355.275 256.902 354.226C257.145 353.532 257.121 352.773 256.834 352.096C256.548 351.419 256.02 350.873 255.352 350.564C255.352 350.564 251.55 349.578 252.535 343.944C252.635 343.296 252.604 342.635 252.444 341.998C252.285 341.362 252 340.764 251.606 340.24C251.213 339.715 250.719 339.274 250.153 338.943C249.587 338.612 248.96 338.397 248.31 338.311C248.31 338.311 251.409 340.705 250 343.522C248.592 346.339 248.31 347.466 248.873 348.451C249.437 349.437 246.62 346.761 246.902 340.987C246.902 338.874 244.648 334.93 239.437 335.775C240.28 336.28 240.964 337.012 241.409 337.888C242.254 339.437 242.676 341.973 241.55 345.635C239.296 352.113 243.099 354.93 243.099 354.93C242.108 354.302 241.247 353.489 240.564 352.536C238.95 350.189 238.249 347.335 238.592 344.508C237.781 346.277 237.349 348.196 237.324 350.142C237.246 352.189 237.713 354.22 238.678 356.026C239.644 357.833 241.072 359.351 242.817 360.423C243.781 361.01 244.867 361.366 245.991 361.464C247.114 361.561 248.246 361.398 249.296 360.987C239.014 364.79 231.268 361.268 225.775 356.62C222.457 353.766 219.688 350.329 217.606 346.48V346.48Z" fill="#C74E1A"/>
<path d="M169.155 349.156C169.155 349.156 164.789 349.437 162.676 342.818C161.69 340.001 162.113 339.297 158.873 335.916C159.928 335.952 160.972 336.142 161.972 336.48C163.085 336.829 164.118 337.395 165.012 338.144C165.907 338.893 166.644 339.811 167.183 340.846C168.13 342.747 168.749 344.795 169.014 346.902C169.185 347.641 169.232 348.402 169.155 349.156V349.156Z" fill="#C74E1A"/>
<path d="M166.197 380.423C169.319 382.812 172.786 384.712 176.479 386.057C177.503 386.479 178.62 386.624 179.718 386.48C169.296 381.268 165.775 373.24 165.352 366.339C165.044 362.042 165.62 357.728 167.042 353.663C166.738 359.767 168.865 365.743 172.958 370.282C174.683 372.143 176.736 373.671 179.014 374.79C177.382 373.656 176.033 372.162 175.07 370.423C173.239 367.466 171.831 362.536 173.662 355.353C175.493 348.17 174.085 341.973 171.972 338.733C170.872 336.933 169.251 335.508 167.324 334.649C178.873 331.409 184.366 339.437 184.648 343.944C184.93 348.451 186.197 354.085 187.465 356.339C188.024 357.576 188.898 358.645 190 359.437C188.873 357.466 189.296 354.93 191.831 348.592C192.307 347.31 192.453 345.929 192.256 344.575C192.059 343.222 191.526 341.939 190.704 340.846C189.791 339.692 188.697 338.693 187.465 337.888C191.831 337.888 198.451 342.395 197.465 349.015C196.479 355.635 198.592 358.592 200.423 360.564C201.57 361.65 202.976 362.426 204.507 362.818C200.563 358.874 200.282 355.071 201.127 352.254C201.66 350.524 202.575 348.936 203.803 347.606C200.563 357.043 209.014 357.325 211.972 364.226C213.442 367.185 214.05 370.497 213.726 373.785C213.402 377.072 212.16 380.203 210.141 382.818C208.221 385.489 205.777 387.742 202.958 389.437L201.69 390.283C207.465 386.339 206.479 381.268 204.085 380.846C204.085 380.846 200.141 380.142 200.564 374.367C200.602 373.083 200.138 371.834 199.27 370.887C198.402 369.94 197.198 369.369 195.916 369.297C195.916 369.297 199.014 371.268 198.028 374.226C197.042 377.184 196.761 378.311 197.324 379.156C197.887 380.001 195.071 377.888 194.648 372.113C194.507 370.001 191.831 366.198 186.761 367.606C187.646 368.038 188.382 368.725 188.873 369.578C189.859 370.987 190.704 373.381 189.859 377.184C189.495 378.345 189.37 379.567 189.491 380.777C189.612 381.987 189.977 383.161 190.563 384.226C191.01 385.018 191.637 385.694 192.394 386.198C191.376 385.67 190.468 384.953 189.718 384.085C187.841 381.938 186.792 379.191 186.761 376.339C186.217 378.212 186.026 380.17 186.197 382.113C186.354 384.153 187.049 386.115 188.212 387.797C189.375 389.48 190.964 390.824 192.817 391.691C192.817 391.691 195.211 393.24 199.155 391.55C189.578 396.48 181.409 393.663 175.493 389.719C171.878 387.184 168.733 384.038 166.197 380.423V380.423Z" fill="#C74E1A"/>
<path d="M118.451 389.297C118.451 389.297 114.084 390.001 111.127 383.804C109.859 381.128 110.141 380.423 106.62 377.466C108.284 377.237 109.979 377.471 111.519 378.142C113.06 378.813 114.386 379.894 115.352 381.268C117.116 383.602 118.189 386.383 118.451 389.297V389.297Z" fill="#C74E1A"/>
<path d="M119.719 420.564C123.135 422.543 126.843 423.969 130.705 424.79C131.716 425.087 132.792 425.087 133.803 424.79C122.958 420.987 118.451 413.522 116.902 406.761C115.978 402.539 115.978 398.167 116.902 393.944C117.132 396.953 117.961 399.886 119.34 402.571C120.718 405.255 122.619 407.638 124.93 409.578C126.889 411.201 129.134 412.443 131.55 413.24C129.783 412.324 128.243 411.024 127.043 409.437C124.93 406.761 122.817 402.113 123.803 394.79C124.789 387.466 122.395 381.268 120 378.451C118.613 376.829 116.812 375.612 114.789 374.93C117.105 373.789 119.674 373.255 122.254 373.381C124.243 373.467 126.18 374.048 127.888 375.071C129.189 375.814 130.332 376.805 131.25 377.989C132.169 379.174 132.845 380.527 133.24 381.973C133.658 386.269 135.161 390.388 137.606 393.944C138.32 395.047 139.286 395.964 140.423 396.621C139.014 394.79 139.155 392.254 140.986 385.635C141.307 384.314 141.281 382.932 140.911 381.624C140.541 380.317 139.839 379.127 138.874 378.17C137.842 377.143 136.654 376.287 135.353 375.635C139.719 374.93 146.62 378.592 146.479 385.353C146.338 392.113 148.874 394.79 150.986 396.48C152.241 397.464 153.762 398.053 155.353 398.17C150.845 394.79 150.141 390.987 150.564 388.17C150.85 386.334 151.575 384.595 152.676 383.099C151.55 388.029 153.24 390.282 155.493 392.113C157.747 393.944 160.846 395.494 162.817 398.733C164.638 401.471 165.655 404.663 165.755 407.949C165.854 411.234 165.032 414.482 163.381 417.325C162.265 419.283 160.891 421.084 159.296 422.677C158.683 423.467 157.973 424.176 157.184 424.79L156.057 425.776C161.127 420.987 159.719 416.339 157.184 416.057C157.184 416.057 153.24 415.916 152.817 410.142C152.709 408.859 152.104 407.669 151.13 406.827C150.156 405.984 148.891 405.557 147.606 405.635C147.606 405.635 150.986 407.184 150.282 410.283C149.578 413.381 149.578 414.367 150.282 415.353C150.986 416.339 147.888 414.226 146.761 408.452C146.474 407.639 146.016 406.898 145.42 406.277C144.823 405.655 144.101 405.168 143.301 404.849C142.501 404.529 141.642 404.383 140.781 404.421C139.921 404.46 139.078 404.681 138.31 405.071C139.232 405.435 140.053 406.015 140.705 406.761C142.32 408.892 143.029 411.575 142.676 414.226C142.376 416.656 142.977 419.112 144.367 421.128C144.914 421.863 145.642 422.445 146.479 422.818C145.363 422.423 144.317 421.852 143.381 421.128C141.285 419.214 139.937 416.619 139.578 413.804C139.248 415.719 139.296 417.681 139.719 419.578C140.154 421.559 141.097 423.393 142.455 424.899C143.813 426.406 145.54 427.533 147.465 428.17C148.515 428.528 149.634 428.638 150.733 428.491C151.833 428.345 152.884 427.946 153.803 427.325C150.07 429.882 145.653 431.257 141.127 431.269C137.29 431.24 133.519 430.273 130.141 428.452C126.212 426.485 122.679 423.811 119.719 420.564V420.564Z" fill="#C74E1A"/>
<path d="M73.6621 436.198C72.7714 436.362 71.8547 436.313 70.9861 436.057C69.8528 435.756 68.7933 435.225 67.8728 434.498C66.9524 433.772 66.1905 432.864 65.6339 431.832C63.9438 429.297 64.0846 428.593 60.1409 426.198H60.986C61.72 426 62.4866 425.952 63.2396 426.057C65.5772 426.098 67.8042 427.06 69.4367 428.733C70.8332 430.309 72.017 432.061 72.9579 433.945C73.269 434.67 73.505 435.425 73.6621 436.198V436.198Z" fill="#C74E1A"/>
<path d="M79.5776 466.902C83.2358 468.301 87.0796 469.156 90.986 469.438C92.0825 469.492 93.1797 469.349 94.2255 469.015C82.6762 466.762 77.1832 460.142 74.648 453.663C73.2002 449.65 72.5774 445.387 72.817 441.128C73.503 444.062 74.7814 446.824 76.5737 449.246C78.366 451.668 80.6344 453.699 83.2395 455.212C85.3643 456.606 87.7677 457.519 90.2818 457.888C88.3724 457.338 86.6299 456.322 85.2114 454.931C82.6762 452.536 79.8593 448.311 79.5776 440.705C79.2959 433.1 76.4789 427.747 73.662 425.212C72.0139 423.815 70.0185 422.891 67.8874 422.536C78.3099 416.057 85.7747 422.395 87.1832 426.762C88.282 430.944 90.3576 434.805 93.2395 438.029C94.166 438.98 95.2655 439.745 96.479 440.283C94.9297 438.593 94.648 436.057 95.3522 429.297C95.5348 427.931 95.343 426.541 94.7973 425.276C94.2515 424.011 93.3723 422.918 92.2536 422.114C91.1071 421.245 89.8211 420.579 88.4508 420.142C92.6762 418.874 100.141 421.55 100.845 428.17C101.549 434.79 104.507 437.184 106.902 438.452C108.25 439.288 109.826 439.682 111.409 439.578C106.479 436.902 105.211 433.24 105.352 430.423C105.365 428.612 105.799 426.828 106.62 425.212C106.338 430.142 108.31 432.114 110.845 433.663C113.38 435.212 116.62 436.198 118.873 439.156C121.308 441.915 122.833 445.358 123.24 449.015C123.539 451.835 123.152 454.686 122.113 457.325C121.027 460.39 119.353 463.213 117.183 465.635L116.197 466.621C120.564 461.409 118.31 456.902 115.775 457.043C115.085 456.996 114.413 456.804 113.803 456.48C112.972 455.985 112.263 455.311 111.727 454.507C111.191 453.703 110.841 452.789 110.704 451.832C110.571 451.209 110.315 450.619 109.952 450.097C109.588 449.574 109.124 449.13 108.586 448.789C108.048 448.448 107.448 448.217 106.82 448.111C106.192 448.005 105.55 448.025 104.93 448.17C104.93 448.17 108.451 449.156 108.31 452.255C108.169 455.353 108.169 456.48 109.014 457.184C109.859 457.888 106.338 456.48 104.507 451.128C104.118 450.352 103.566 449.669 102.889 449.125C102.213 448.581 101.427 448.188 100.585 447.975C99.7436 447.761 98.866 447.731 98.0117 447.886C97.1574 448.041 96.3465 448.378 95.6339 448.874C96.5823 449.047 97.4617 449.487 98.1691 450.142C99.125 451.053 99.891 452.144 100.423 453.353C100.955 454.562 101.242 455.864 101.268 457.184C101.248 458.411 101.474 459.628 101.934 460.766C102.394 461.903 103.077 462.936 103.944 463.804C104.604 464.476 105.43 464.962 106.338 465.212C105.157 464.953 104.018 464.526 102.958 463.945C100.571 462.371 98.8618 459.958 98.1691 457.184C98.0526 459.159 98.3899 461.134 99.1551 462.959C99.9157 464.856 101.139 466.533 102.713 467.837C104.288 469.141 106.163 470.03 108.169 470.424C109.252 470.623 110.366 470.562 111.42 470.243C112.473 469.924 113.435 469.359 114.226 468.593C106.62 475.776 97.8874 475.212 91.1269 473.1C86.9345 471.748 83.0216 469.649 79.5776 466.902V466.902Z" fill="#C74E1A"/>
<path d="M48.0284 519.297C51.8851 520.014 55.8317 520.109 59.7185 519.579C60.7804 519.551 61.81 519.208 62.6763 518.593C51.127 518.593 44.3664 513.1 40.7044 507.043C39.1222 504.465 37.9353 501.664 37.1833 498.734C36.7607 496.48 36.6198 494.931 36.6198 494.931C37.7881 497.712 39.5165 500.222 41.6974 502.306C43.8782 504.39 46.4647 506.003 49.2959 507.043C50.9661 507.705 52.7199 508.131 54.5072 508.311H56.7608C54.7839 508.069 52.8973 507.343 51.2678 506.198C48.31 504.367 44.9298 500.705 43.3805 493.381C41.8312 486.057 38.0283 480.846 34.7889 479.015C32.9848 477.858 30.875 477.269 28.7325 477.325C29.6671 476.309 30.7613 475.453 31.972 474.79C33.0166 474.144 34.1578 473.668 35.3523 473.381C37.2825 472.874 39.298 472.778 41.2678 473.1C42.7468 473.413 44.1464 474.024 45.3814 474.895C46.6164 475.767 47.6608 476.881 48.4509 478.17C51.2678 483.804 54.0847 486.621 56.3382 488.17C57.358 489.01 58.5663 489.59 59.8594 489.86C57.8875 488.452 57.3242 486.198 57.0425 479.297C56.954 477.927 56.5032 476.605 55.736 475.467C54.9688 474.328 53.9128 473.414 52.6762 472.818C51.4511 472.128 50.1175 471.652 48.7326 471.41C52.5354 469.438 60.2819 470.846 62.2537 477.325C64.2256 483.804 67.3242 485.635 69.8594 486.48C71.3327 487.078 72.9503 487.225 74.5073 486.903C69.296 484.931 67.465 481.691 66.9016 478.734C66.7586 477.47 66.7586 476.194 66.9016 474.931L67.3242 473.381C67.471 475.314 68.1538 477.168 69.296 478.734C70.2541 479.81 71.4638 480.633 72.8171 481.128C75.634 482.114 78.8735 482.677 81.6904 485.212C88.3101 490.987 89.0144 497.607 88.0284 502.536C87.5821 504.726 86.8727 506.855 85.9158 508.874C85.552 509.702 85.1284 510.503 84.6482 511.269L83.8031 512.536C87.0425 506.762 84.2256 502.677 81.6904 503.1C80.9877 503.262 80.2527 503.213 79.5777 502.959C78.6742 502.613 77.8617 502.066 77.2025 501.358C76.5434 500.65 76.055 499.8 75.7749 498.874C75.2757 497.69 74.3338 496.748 73.1499 496.248C71.966 495.748 70.6337 495.73 69.4368 496.198C69.4368 496.198 73.0988 496.762 73.3805 499.719C73.6622 502.677 74.2256 503.945 75.0707 504.508C75.9157 505.072 72.3946 504.227 69.5777 499.156C69.0372 498.483 68.3619 497.929 67.5951 497.532C66.8283 497.135 65.9869 496.902 65.1249 496.849C64.2629 496.796 63.3993 496.924 62.5895 497.224C61.7798 497.524 61.0417 497.991 60.4227 498.593C61.4605 498.643 62.4726 498.933 63.3805 499.438C64.4797 500.183 65.4195 501.14 66.145 502.252C66.8704 503.365 67.3671 504.61 67.6059 505.917C67.804 507.074 68.2297 508.18 68.8583 509.171C69.4868 510.162 70.3059 511.019 71.2679 511.691C72.0607 512.269 72.9767 512.655 73.9439 512.818C72.7281 512.756 71.5342 512.47 70.4228 511.973C69.1041 511.488 67.8989 510.738 66.8815 509.769C65.8641 508.8 65.056 507.633 64.5072 506.339C64.7968 508.282 65.4668 510.149 66.4791 511.832C68.0284 514.508 71.127 517.184 76.62 517.466C77.6981 517.462 78.7621 517.22 79.736 516.758C80.7099 516.295 81.5696 515.623 82.2538 514.79C80.7666 516.638 79.0098 518.253 77.0425 519.579C75.4109 520.748 73.6045 521.651 71.6904 522.255C68.0902 523.359 64.2893 523.648 60.5636 523.1C57.4813 522.703 54.4561 521.946 51.5495 520.846L48.0284 519.297Z" fill="#C74E1A"/>
<path d="M27.465 576.621C31.351 576.481 35.1951 575.769 38.8735 574.508C39.8977 574.165 40.8519 573.64 41.6904 572.959C36.8862 574.016 31.8911 573.822 27.1834 572.396C23.5888 571.112 20.3533 568.987 17.7467 566.199C14.8519 563.023 12.646 559.283 11.2678 555.213C13.0278 557.694 15.2691 559.795 17.8582 561.392C20.4473 562.989 23.3312 564.049 26.3382 564.508C28.818 564.862 31.3384 564.814 33.803 564.368C31.829 564.47 29.8568 564.133 28.0284 563.382C24.6481 562.114 20.5636 559.297 17.6058 552.255C17.1833 551.269 16.6199 550.424 16.1974 549.579C15.8119 548.778 15.3396 548.023 14.7889 547.325C14.0365 545.972 13.0871 544.738 11.972 543.663C10.4032 542.023 8.4745 540.769 6.33818 540.001C4.31502 539.231 2.10764 539.084 0.000135161 539.579C7.46494 529.438 16.7608 532.818 19.5777 536.339C22.3946 539.86 26.9017 543.663 29.296 544.649C30.4624 545.288 31.7691 545.626 33.0988 545.635C30.9861 544.649 29.8594 542.537 28.0284 535.776C27.7395 534.436 27.0873 533.201 26.1432 532.208C25.1991 531.214 23.9997 530.499 22.6763 530.142C21.262 529.715 19.7866 529.524 18.31 529.579C21.972 526.903 29.8594 526.903 32.8172 532.818C35.7749 538.734 39.4369 540.001 42.1129 540.283C43.6727 540.546 45.274 540.4 46.7608 539.86C41.127 539.015 38.7327 536.058 37.7468 533.241C37.2412 531.553 37.0972 529.777 37.3242 528.029C38.5918 532.818 41.1271 533.945 44.0848 534.508C47.0426 535.072 50.4228 534.931 53.5214 536.903C56.7769 538.598 59.4322 541.253 61.1271 544.508C61.8038 545.789 62.2789 547.167 62.5355 548.593C62.93 549.87 63.1201 551.201 63.0989 552.537C63.2562 555.619 62.727 558.698 61.5496 561.551C61.3863 562.03 61.1982 562.5 60.9862 562.959C63.2397 556.762 59.4369 553.382 57.1834 554.368C56.5124 554.64 55.7719 554.689 55.0707 554.508C54.1194 554.356 53.2167 553.984 52.4343 553.421C51.6519 552.859 51.0114 552.122 50.5637 551.269C49.7987 550.209 48.6537 549.485 47.3677 549.249C46.0817 549.012 44.7541 549.282 43.6622 550.001C43.6622 550.001 47.4651 549.72 48.451 552.537C49.4369 555.353 49.8595 556.48 50.8454 556.903L49.0144 556.48C47.2534 555.555 45.6777 554.314 44.3664 552.818C43.0988 551.269 38.7327 549.86 35.3524 553.945C36.3464 553.792 37.3629 553.889 38.3101 554.227C40.0002 554.79 41.9721 556.199 43.6622 559.579C44.6785 561.83 46.4815 563.633 48.7327 564.649C49.5838 564.981 50.4967 565.125 51.4087 565.072C50.25 565.337 49.0463 565.337 47.8876 565.072C45.1154 564.538 42.6211 563.041 40.8453 560.846C41.5297 562.643 42.5856 564.275 43.9439 565.635C45.3595 567.101 47.1183 568.191 49.0612 568.805C51.004 569.42 53.0696 569.541 55.0707 569.156C56.1329 568.953 57.1324 568.503 57.9887 567.842C58.845 567.182 59.5341 566.329 60.0003 565.353C55.6341 574.508 47.3242 577.184 40.4228 577.889C37.4122 578.126 34.3839 577.984 31.4087 577.466L27.465 576.621Z" fill="#C74E1A"/>
</svg>
