<svg width="41" height="37" viewBox="0 0 41 37" fill="none" xmlns="http://www.w3.org/2000/svg">
<path d="M21.4619 0.751831C22.7859 4.49268 25.3853 7.6476 28.8039 9.66271C32.2224 11.6778 36.2415 12.4243 40.1556 11.7712C40.0053 13.5551 39.2915 15.245 38.1176 16.5966C36.9436 17.9481 35.3703 18.8914 33.625 19.29V32.625L37.375 32.6268V36.3768H3.625V32.6268H7.375V19.29C5.62963 18.8912 4.05619 17.9479 2.88197 16.5964C1.70775 15.2449 0.993542 13.5552 0.842503 11.7712C4.75697 12.4254 8.77679 11.6796 12.1961 9.66479C15.6154 7.64998 18.2155 4.49494 19.54 0.753706H21.4619V0.751831ZM29.875 19.5H11.125V32.625H29.875V19.5ZM20.5 6.98808L20.2938 7.27871C17.3397 11.3259 13.0147 14.1608 8.125 15.255L7.45375 15.3918L8.71563 15.7481H32.29L33.5425 15.3918L33.5219 15.3881C28.3749 14.4088 23.7928 11.5091 20.7044 7.27683L20.5 6.98621V6.98808Z" fill="white"/>
</svg>
