<svg width="75" height="75" viewBox="0 0 75 75" fill="none" xmlns="http://www.w3.org/2000/svg">
<path fill-rule="evenodd" clip-rule="evenodd" d="M75 34.6781C75 35.7532 74.7311 36.56 74.1933 37.635C74.7311 38.4417 75 39.5168 75 40.323C75 45.4306 69.3546 47.8496 63.4407 48.1186C67.4732 52.6884 69.6234 58.3337 66.1287 62.0967C65.322 62.6345 64.5158 63.1718 63.4407 63.4407C63.1718 64.5158 62.634 65.3226 61.8278 66.1287C58.3331 69.6234 52.6882 67.4727 48.1175 63.4407C47.8486 69.3545 45.4295 75 40.3219 75C39.2468 75 38.4401 74.7311 37.365 74.1933C36.5583 74.7311 35.4832 75 34.677 75C29.5694 75 27.1504 69.3546 26.8814 63.4407C22.3116 67.4732 16.6663 69.6234 12.9033 66.1287C12.3655 65.322 11.8282 64.5158 11.5593 63.4407C10.4842 63.1718 9.67745 62.634 8.87133 61.8278C5.37658 58.3331 7.52735 52.6882 11.5593 48.1175C5.64551 47.8486 0 45.4295 0 40.3219C0 39.2468 0.268903 38.4401 0.806708 37.365C0.268903 36.5583 0 35.4832 0 34.677C0 29.5694 5.64538 27.1504 11.5593 26.8814C7.52681 22.3116 5.37658 16.6663 8.87133 12.9033C9.67803 12.3655 10.4842 11.8282 11.5593 11.5593C11.8282 10.4842 12.366 9.67745 13.1722 8.87133C16.6669 5.37658 22.3118 7.52735 26.8825 11.5593C27.1514 5.64551 29.5705 0 34.6781 0C35.7532 0 36.56 0.268903 37.635 0.806708C38.4417 0.268903 39.5168 0 40.323 0C45.4306 0 47.8496 5.64538 48.1186 11.5593C52.6884 7.52681 58.3337 5.37658 62.0967 8.87133C62.6345 9.67803 63.1718 10.4842 63.4407 11.5593C64.5158 11.8282 65.3226 12.366 66.1287 13.1722C69.6234 16.6669 67.4727 22.3118 63.4407 26.8825C69.3545 27.1514 75 29.5705 75 34.6781V34.6781ZM41.6664 27.4198C40.3224 27.6887 38.9784 27.4198 37.6339 26.3447C36.021 27.4198 34.677 27.6887 33.3331 27.4198C32.7953 28.4949 31.4512 29.3017 29.5694 29.5706C29.3005 31.4524 28.4943 32.5275 27.4186 33.3343C27.6875 34.6782 27.4186 36.0222 26.3435 37.3667C27.4186 38.9797 27.6875 40.3236 27.4186 41.6676C28.4937 42.2054 29.3005 43.5494 29.5694 45.4313C31.4512 45.7002 32.5263 46.5064 33.3331 47.582C34.677 47.3131 36.021 47.582 37.3655 48.6571C38.9784 47.582 40.3224 47.3132 41.6664 47.582C42.2042 46.507 43.5482 45.7002 45.4301 45.4313C45.699 43.5494 46.5052 42.4744 47.5808 41.6676C47.3119 40.3236 47.5808 38.9797 48.6559 37.6351C47.5808 36.0222 47.312 34.6782 47.5808 33.3343C46.5058 32.7965 45.699 31.4524 45.4301 29.5706C43.5482 29.3017 42.4732 28.4955 41.6664 27.4198Z" fill="url(#paint0_linear_223_1941)"/>
<defs>
<linearGradient id="paint0_linear_223_1941" x1="37.5" y1="0" x2="37.5" y2="75" gradientUnits="userSpaceOnUse">
<stop stop-color="#F396B9"/>
<stop offset="1" stop-color="#B8287E"/>
</linearGradient>
</defs>
</svg>
