<svg width="781" height="639" viewBox="0 0 781 639" fill="none" xmlns="http://www.w3.org/2000/svg">
<path fill-rule="evenodd" clip-rule="evenodd" d="M124.346 38.0148C126.661 37.8999 127.744 35.3456 127.711 32.6672C129.86 34.4226 132.617 35.1701 134.115 33.5995C134.437 33.2451 134.665 32.8152 134.778 32.3495C135.289 32.3375 135.613 32.0288 136.031 31.8684C136.448 31.708 136.688 27.819 134.714 25.8488C137.514 25.8428 140.02 24.8804 140.12 22.7407C140.173 22.5535 140.177 22.3556 140.13 22.1666C140.083 21.9776 139.988 21.8041 139.853 21.6633C140.122 21.3289 140.299 20.9305 140.368 20.5072C140.468 18.3675 137.941 17.1629 135.223 16.8058C137.139 15.0747 138.531 12.8442 136.988 11.225C136.726 10.8313 136.351 10.5255 135.913 10.3473L135.432 9.09439C133.889 7.47522 131.128 7.87163 128.877 9.39994C128.961 8.14332 128.767 6.88363 128.308 5.7107C128.13 5.21897 127.836 4.77776 127.45 4.42505C127.064 4.07234 126.598 3.8187 126.093 3.68597L124.773 3.89779C124.433 3.55937 123.975 3.36529 123.496 3.35603C122.952 3.23781 122.386 3.2811 121.866 3.48058C121.347 3.68006 120.897 4.02702 120.572 4.47879C119.777 5.58265 119.27 6.8672 119.095 8.21641C117.177 6.00405 114.825 4.5846 112.964 6.07358C112.556 6.37978 112.243 6.79388 112.059 7.269C111.605 7.31127 111.171 7.47775 110.806 7.75018C108.89 9.48127 109.501 12.4169 111.245 14.8442C108.445 14.8502 105.818 15.7853 105.582 18.5303L105.915 19.877C105.641 20.3498 105.479 20.8787 105.44 21.4235C105.352 24.0747 108 25.3065 110.745 25.5426C108.841 27.7852 107.824 30.6088 109.462 32.3763C109.833 32.7574 110.295 33.0367 110.805 33.1874C110.972 33.6296 111.173 34.0577 111.408 34.4676C113.314 36.1685 115.875 34.964 117.845 32.9908C118.12 35.7237 119.419 38.4324 121.761 38.1964C122.21 38.1334 122.638 37.9688 123.014 37.7152C123.423 37.9316 123.883 38.0351 124.346 38.0148ZM126.495 24.5079C125.775 24.6044 125.112 24.9504 124.621 25.4854C124.292 25.4247 123.953 25.4349 123.628 25.5152C123.303 25.5956 122.999 25.7443 122.736 25.9514C122.482 25.7174 122.178 25.5453 121.846 25.4486C121.515 25.352 121.166 25.3335 120.826 25.3945C120.378 24.8333 119.735 24.4616 119.025 24.3534C119.021 24.0026 118.943 23.6567 118.795 23.3385C118.647 23.0203 118.434 22.737 118.169 22.5072C118.236 22.1605 118.231 21.8038 118.156 21.4589C118.08 21.114 117.935 20.788 117.73 20.5007C118.176 19.9756 118.417 19.307 118.408 18.6183C118.952 18.1557 119.32 17.5197 119.449 16.8176C119.8 16.8134 120.146 16.7349 120.464 16.5873C120.782 16.4397 121.066 16.2262 121.295 15.9611C121.628 16.0569 121.978 16.078 122.32 16.0231C122.663 15.9682 122.988 15.8385 123.275 15.6434C123.8 16.0891 124.468 16.3299 125.157 16.3213C125.564 16.8652 126.166 17.229 126.837 17.3352C126.841 17.686 126.919 18.0319 127.067 18.3501C127.215 18.6683 127.428 18.9517 127.693 19.1814C127.611 19.4975 127.6 19.8277 127.659 20.1488C127.719 20.4698 127.848 20.7739 128.038 21.0396C127.81 21.2715 127.643 21.556 127.55 21.8678C127.458 22.1797 127.444 22.5095 127.509 22.8282C127.209 22.9964 126.957 23.2396 126.78 23.5341C126.602 23.8285 126.504 24.1641 126.495 24.5079V24.5079Z" fill="#B12979" fill-opacity="0.5"/>
<path fill-rule="evenodd" clip-rule="evenodd" d="M132.622 78.6693C133.128 78.4861 133.574 78.1697 133.914 77.7536C134.254 77.3375 134.475 76.8372 134.553 76.3057C134.777 75.0653 134.716 73.7903 134.375 72.5771C136.902 73.7817 139.701 73.7757 140.77 71.8539C141.024 71.4644 141.169 71.014 141.19 70.5495C141.58 70.3188 141.913 70.002 142.162 69.6234C143.379 67.6078 141.675 65.571 139.296 64.2726C141.896 63.4586 144.296 61.8364 143.884 59.7088C143.473 57.5812 143.536 58.9946 143.2 58.7918C143.348 58.3847 143.359 57.9405 143.23 57.5268C142.819 55.3992 139.98 55.0148 137.368 55.3173C138.882 53.1141 139.454 50.5719 137.559 49.3825C137.172 49.1226 136.72 48.9768 136.255 48.9618C136.122 48.4231 135.786 48.2203 135.477 47.8965C135.168 47.5726 131.049 47.7905 129.294 49.9392C128.722 47.394 127.369 44.9274 125.027 45.1634C124.592 45.275 124.171 45.4365 123.774 45.6446L122.442 45.3449C120.1 45.581 119.204 48.4319 119.573 51.313C117.155 49.6242 114.519 48.9039 113.06 50.865C112.758 51.2771 112.563 51.7574 112.491 52.2632L111.398 53.162C110.155 55.2987 111.601 57.9135 113.844 59.8172C111.15 60.483 108.723 62.2262 109.416 64.7987C109.527 65.2622 109.732 65.6979 110.018 66.0789C109.883 66.6227 109.886 67.1919 110.027 67.7343C110.599 70.2796 113.383 70.9061 116.077 70.2403C114.966 72.9157 114.797 75.93 116.812 77.1467C117.217 77.4649 117.724 77.6242 118.238 77.5946L119.137 78.6872C121.421 79.8373 123.486 78.0124 124.932 75.5398C125.314 76.831 126.075 77.9774 127.117 78.8296C127.486 79.2385 127.966 79.5318 128.498 79.6741C129.03 79.8164 129.592 79.8017 130.116 79.6316C130.542 79.4855 130.913 79.2145 131.182 78.8539C131.814 78.869 132.177 78.9507 132.622 78.6693ZM130.949 65.1925C130.619 65.2804 130.315 65.4473 130.063 65.6787C129.812 65.9102 129.62 66.1992 129.505 66.5211C129.155 66.5391 128.814 66.6395 128.509 66.814C128.205 66.9886 127.946 67.2325 127.753 67.5258C127.459 67.3794 127.137 67.2994 126.809 67.2915C126.481 67.2836 126.156 67.3481 125.855 67.4804C125.273 67.044 124.55 66.8362 123.825 66.8963C123.504 66.061 123.101 65.5888 122.496 65.4526C122.512 65.082 122.431 64.7136 122.259 64.3847C122.087 64.0558 121.832 63.778 121.519 63.5792C121.699 63.2757 121.8 62.9318 121.812 62.5792C121.825 62.2265 121.749 61.8763 121.591 61.5606C121.855 61.3276 122.048 61.0244 122.146 60.6864C122.245 60.3484 122.246 59.9893 122.148 59.6509C122.496 59.5329 122.815 59.3462 123.089 59.1018C123.363 58.8574 123.584 58.5604 123.74 58.2285C124.091 58.2244 124.437 58.1459 124.755 57.9982C125.073 57.8506 125.357 57.6372 125.586 57.3721C125.86 57.552 126.174 57.6614 126.501 57.6904C126.827 57.7195 127.155 57.6673 127.457 57.5386C127.995 57.9694 128.681 58.1697 129.366 58.0955C129.462 58.4443 129.645 58.7629 129.899 59.0204C130.153 59.278 130.468 59.466 130.816 59.5663C130.82 59.9171 130.899 60.263 131.046 60.5812C131.194 60.8995 131.407 61.1828 131.672 61.4125C131.507 61.6998 131.416 62.024 131.408 62.3555C131.4 62.687 131.475 63.0151 131.627 63.3101C131.367 63.5432 131.169 63.8372 131.051 64.1658C130.932 64.4943 130.897 64.8471 130.949 65.1925Z" fill="#B12979" fill-opacity="0.5"/>
<path fill-rule="evenodd" clip-rule="evenodd" d="M151.38 115.704C151.801 115.382 152.136 114.96 152.356 114.477C152.576 113.994 152.673 113.465 152.639 112.935C152.515 111.661 152.094 110.434 151.41 109.352C154.249 109.736 156.821 109.043 157.433 106.891C157.512 106.434 157.531 105.968 157.49 105.505C157.803 105.196 158.023 104.805 158.126 104.376C158.616 102.197 156.534 100.711 154.019 100.018C156.271 98.4899 158.147 96.3684 157.049 94.4677C156.86 94.1159 156.57 93.8291 156.216 93.6445C156.192 93.236 156.111 92.8327 155.977 92.4461C155 90.5727 152.267 90.848 149.734 91.9315C150.575 89.3227 150.366 86.8592 148.363 86.154C147.913 86.0157 147.436 85.9959 146.977 86.0964C146.715 85.7027 146.34 85.3969 145.902 85.2187C143.778 84.4863 141.686 86.4323 140.482 88.9593C139.371 86.5472 137.277 84.5497 135.162 85.4728C134.736 85.6189 134.365 85.8899 134.096 86.2505L132.656 86.4351C130.419 87.3309 130.425 90.1304 131.454 92.9056C128.751 91.9159 125.952 91.9219 125.071 94.1403C124.914 94.6681 124.876 95.2242 124.959 95.7685C124.565 96.0305 124.26 96.4048 124.081 96.8429C123.295 99.2095 125.604 101.383 128.252 102.614C125.785 103.967 124.003 106.237 125.234 108.676C125.477 109.057 125.792 109.387 126.16 109.648C126.192 110.171 126.338 110.682 126.587 111.143C127.846 113.461 130.821 113.24 133.26 112.009C132.607 114.914 133.46 117.904 135.733 118.543C136.24 118.649 136.766 118.637 137.267 118.506C137.592 118.878 138.016 119.15 138.49 119.29C140.911 119.835 142.452 117.511 143.226 114.633C143.941 115.762 144.9 116.716 146.032 117.426C146.536 117.683 147.098 117.802 147.663 117.773C148.227 117.744 148.774 117.567 149.249 117.26C149.555 116.984 149.803 116.651 149.978 116.279L151.38 115.704ZM146.205 103.093C145.905 103.261 145.653 103.504 145.476 103.799C145.298 104.093 145.2 104.429 145.191 104.773C144.847 104.878 144.534 105.065 144.278 105.317C144.022 105.57 143.83 105.88 143.72 106.222C143.391 106.162 143.052 106.172 142.727 106.252C142.402 106.332 142.098 106.481 141.834 106.688C141.51 106.55 141.159 106.483 140.806 106.492C140.453 106.5 140.106 106.584 139.789 106.737C139.612 106.411 139.358 106.135 139.048 105.932C138.739 105.729 138.384 105.606 138.015 105.574C137.901 105.235 137.711 104.927 137.46 104.672C137.209 104.417 136.903 104.223 136.565 104.104C136.64 103.757 136.639 103.399 136.563 103.053C136.488 102.707 136.339 102.381 136.127 102.097C136.288 101.787 136.378 101.445 136.39 101.096C136.403 100.747 136.337 100.399 136.199 100.078C136.511 99.9187 136.777 99.6841 136.976 99.3956C137.174 99.1071 137.297 98.7739 137.334 98.426C137.682 98.308 138.002 98.1212 138.275 97.8768C138.549 97.6324 138.77 97.3354 138.926 97.0036C139.241 97.0945 139.574 97.1107 139.896 97.0508C140.219 96.9909 140.523 96.8566 140.784 96.6586C141.094 96.8195 141.436 96.9095 141.786 96.9221C142.135 96.9346 142.482 96.8695 142.803 96.7313C142.963 97.0427 143.197 97.3094 143.486 97.5076C143.774 97.7057 144.108 97.8289 144.455 97.8662C144.56 98.1881 144.733 98.4837 144.962 98.7328C145.192 98.9819 145.472 99.1787 145.784 99.3098C145.719 99.6219 145.729 99.9452 145.815 100.252C145.901 100.559 146.059 100.841 146.277 101.074C146.116 101.384 146.026 101.726 146.014 102.075C146.001 102.425 146.066 102.772 146.205 103.093V103.093Z" fill="#B12979" fill-opacity="0.5"/>
<path fill-rule="evenodd" clip-rule="evenodd" d="M179.467 146.317C181.02 144.504 179.788 142.065 177.936 140.122C180.696 139.726 183.042 138.346 183.02 136.179C182.992 135.713 182.879 135.257 182.688 134.832C182.904 134.423 183.007 133.963 182.987 133.5C182.985 132.985 182.829 132.481 182.54 132.054C182.252 131.627 181.843 131.295 181.365 131.1C180.241 130.53 178.993 130.249 177.733 130.283C179.583 128.283 180.666 125.728 179.244 124.136L178.209 123.649C178.113 123.211 177.895 122.809 177.579 122.49C176.13 121.019 173.503 121.954 171.438 123.779C171.526 122.538 171.278 121.296 170.721 120.184C170.589 119.71 170.304 119.292 169.911 118.997C169.517 118.701 169.037 118.544 168.545 118.549C168.073 118.523 167.604 118.639 167.199 118.882C166.827 118.595 166.387 118.408 165.921 118.34C163.633 118.334 162.241 120.565 161.736 123.376C159.884 121.433 157.384 120.108 155.522 121.597C155.217 121.872 154.969 122.205 154.793 122.577C154.321 122.662 153.879 122.87 153.513 123.18C151.531 124.641 152.438 127.389 154.088 129.668C151.316 129.553 148.474 130.313 148.44 132.722C148.364 133.21 148.428 133.709 148.625 134.162C148.432 134.578 148.29 135.016 148.204 135.467C148.198 136.066 148.342 136.657 148.623 137.187C148.904 137.717 149.312 138.168 149.811 138.499C150.926 139.362 152.266 139.884 153.67 140.004C151.727 141.856 150.589 144.652 152.468 146.474C152.793 146.846 153.217 147.118 153.691 147.258C153.858 147.766 154.148 148.225 154.535 148.593C156.266 150.508 159.069 149.358 161.012 147.506C161.156 148.904 161.587 150.257 162.28 151.48C162.585 151.956 162.999 152.354 163.487 152.641C163.975 152.927 164.524 153.095 165.088 153.129C165.62 153.151 166.144 153.001 166.584 152.703L167.915 153.002C170.379 152.794 171.341 150.212 171.362 147.292C173.484 149.168 176.241 149.916 177.766 148.224C177.94 148.06 178.077 147.861 178.17 147.642C178.263 147.422 178.31 147.185 178.308 146.947C178.744 146.845 179.145 146.628 179.467 146.317ZM171.111 135.407C170.877 135.66 170.705 135.965 170.609 136.296C170.512 136.627 170.493 136.977 170.555 137.316C170.011 137.779 169.643 138.415 169.513 139.117C169.179 139.147 168.857 139.256 168.573 139.436C168.289 139.615 168.052 139.86 167.882 140.149C167.54 140.069 167.182 140.081 166.846 140.184C166.51 140.287 166.208 140.478 165.969 140.736C165.204 140.182 164.505 139.898 163.939 140.152C163.741 139.845 163.481 139.583 163.175 139.382C162.87 139.182 162.526 139.048 162.165 138.99C162.138 138.642 162.034 138.304 161.86 138.001C161.686 137.698 161.447 137.437 161.16 137.237C161.24 136.909 161.238 136.566 161.157 136.238C161.076 135.91 160.917 135.606 160.694 135.352C160.928 135.073 161.101 134.748 161.202 134.399C161.302 134.049 161.328 133.682 161.279 133.321C161.583 133.153 161.845 132.916 162.042 132.63C162.239 132.343 162.366 132.014 162.414 131.669C162.746 131.645 163.07 131.554 163.366 131.402C163.662 131.251 163.925 131.041 164.139 130.785C164.467 130.864 164.81 130.863 165.138 130.782C165.466 130.701 165.77 130.542 166.024 130.319C166.278 130.553 166.582 130.725 166.913 130.822C167.245 130.919 167.594 130.937 167.934 130.876C168.356 131.402 168.951 131.761 169.613 131.89C169.643 132.224 169.752 132.547 169.932 132.831C170.111 133.114 170.356 133.351 170.645 133.521C170.542 133.848 170.531 134.197 170.613 134.53C170.695 134.862 170.868 135.166 171.111 135.407V135.407Z" fill="#B12979" fill-opacity="0.5"/>
<path fill-rule="evenodd" clip-rule="evenodd" d="M213.224 170.956C214.44 168.94 212.912 166.689 210.736 165.054C213.457 164.268 215.736 162.618 215.203 160.463C215.191 159.941 214.987 159.442 214.628 159.062C214.808 158.633 214.869 158.164 214.807 157.703C214.301 155.427 211.759 154.855 208.999 155.252C210.418 152.9 211.045 150.116 209.15 148.926C208.993 148.779 208.806 148.668 208.602 148.6C208.398 148.532 208.181 148.509 207.967 148.533C207.823 148.065 207.5 147.672 207.068 147.44C205.322 146.157 202.828 147.631 201.194 149.807C200.676 147.02 199.269 144.795 197.02 145.179C196.558 145.178 196.111 145.35 195.768 145.661L194.436 145.361C192.187 145.745 191.225 148.327 191.473 151.181C189.27 149.668 186.513 148.92 185.081 150.76C184.908 150.924 184.77 151.122 184.677 151.342C184.584 151.562 184.537 151.798 184.539 152.037C184.08 152.168 183.668 152.429 183.353 152.788C181.921 154.628 183.247 157.215 185.396 158.971C182.608 159.488 180.236 160.989 180.499 163.211C180.609 163.707 180.804 164.181 181.074 164.612C180.947 165.053 180.886 165.511 180.895 165.971C181.373 168.368 184.224 169.264 187.078 169.016C185.538 171.34 184.911 174.124 186.993 175.61C187.38 175.87 187.832 176.016 188.298 176.031C188.442 176.499 188.765 176.892 189.197 177.123C191.279 178.609 193.651 177.108 195.286 174.932C196.073 177.653 197.816 180.08 200.092 179.575C200.337 179.578 200.579 179.526 200.801 179.422C201.023 179.317 201.218 179.164 201.372 178.973C201.799 179.159 202.27 179.221 202.731 179.151C205.128 178.673 205.754 175.889 205.358 173.129C207.709 174.548 210.521 175.054 211.738 173.038C211.997 172.651 212.143 172.199 212.158 171.734C212.555 171.538 212.916 171.275 213.224 170.956V170.956ZM203.155 161.441C202.993 161.743 202.892 162.075 202.859 162.417C202.826 162.759 202.861 163.104 202.961 163.432C202.541 163.972 202.304 164.631 202.283 165.314C201.965 165.426 201.673 165.602 201.424 165.83C201.176 166.058 200.977 166.335 200.839 166.643C200.489 166.647 200.143 166.726 199.825 166.873C199.506 167.021 199.223 167.234 198.993 167.499C198.703 167.305 198.37 167.185 198.022 167.151C197.674 167.118 197.324 167.171 197.002 167.306C196.475 166.784 195.767 166.488 195.026 166.479C194.938 166.17 194.785 165.884 194.576 165.64C194.368 165.395 194.109 165.198 193.818 165.063C193.832 164.71 193.761 164.358 193.612 164.037C193.463 163.716 193.24 163.435 192.962 163.217C193.156 162.927 193.276 162.593 193.31 162.246C193.343 161.898 193.29 161.548 193.155 161.226C193.666 160.692 193.961 159.988 193.982 159.249C194.291 159.162 194.577 159.009 194.822 158.8C195.066 158.592 195.263 158.333 195.398 158.042C195.749 158.038 196.095 157.959 196.413 157.812C196.731 157.664 197.014 157.45 197.244 157.185C197.534 157.38 197.868 157.5 198.215 157.533C198.563 157.567 198.914 157.514 199.236 157.379C199.472 157.635 199.759 157.838 200.078 157.976C200.398 158.114 200.743 158.182 201.091 158.178C201.178 158.487 201.332 158.774 201.54 159.018C201.748 159.262 202.007 159.459 202.298 159.594C202.358 160.291 202.661 160.945 203.155 161.441V161.441Z" fill="#B12979" fill-opacity="0.5"/>
<path fill-rule="evenodd" clip-rule="evenodd" d="M248.587 193.54C249.804 191.524 248.303 189.152 245.978 187.611C248.699 186.824 251.005 185.054 250.473 182.899C250.389 182.393 250.134 181.931 249.749 181.592C249.935 181.164 249.997 180.693 249.928 180.233C249.302 177.93 246.638 177.33 243.851 177.848C245.177 175.348 245.655 172.657 243.667 171.32L242.335 171.02C242.191 170.552 241.868 170.159 241.436 169.927C239.42 168.711 237.048 170.212 235.507 172.536C234.72 169.815 233.071 167.536 230.795 168.042C230.289 168.126 229.828 168.381 229.488 168.765C229.059 168.585 228.59 168.524 228.129 168.587C225.826 169.213 225.226 171.876 225.717 174.785C223.365 173.365 220.554 172.86 219.216 174.848C218.993 175.255 218.89 175.717 218.916 176.18C218.5 176.409 218.129 176.714 217.824 177.078C216.607 179.094 218.229 181.494 220.432 183.007C217.712 183.794 215.433 185.444 215.938 187.719C216.022 188.225 216.277 188.687 216.661 189.027C216.475 189.454 216.413 189.925 216.483 190.386C217.109 192.689 219.893 193.315 222.681 192.798C221.234 195.27 220.877 197.988 222.865 199.326L224.076 199.598C224.265 200.085 224.629 200.484 225.096 200.718C227.111 201.935 229.39 200.285 230.904 198.082C231.811 200.83 233.461 203.109 235.616 202.577C236.122 202.493 236.583 202.237 236.923 201.853C237.391 202.047 237.9 202.117 238.403 202.059C240.706 201.433 241.212 198.621 240.815 195.861C243.167 197.28 246.005 197.665 247.222 195.649C247.417 195.279 247.55 194.879 247.616 194.466C248.006 194.235 248.338 193.918 248.587 193.54V193.54ZM238.249 184.091C238.088 184.401 237.998 184.743 237.985 185.092C237.973 185.441 238.038 185.789 238.176 186.11C237.74 186.693 237.532 187.415 237.592 188.141C237.262 188.228 236.958 188.395 236.706 188.627C236.455 188.858 236.263 189.147 236.148 189.469C235.811 189.468 235.479 189.547 235.178 189.701C234.878 189.855 234.619 190.078 234.423 190.353C234.113 190.192 233.771 190.102 233.422 190.089C233.073 190.077 232.726 190.142 232.405 190.28C232.13 190.039 231.806 189.862 231.455 189.761C231.104 189.66 230.735 189.638 230.374 189.696C230.309 189.355 230.15 189.04 229.915 188.785C229.681 188.53 229.379 188.345 229.045 188.252C229.041 187.902 228.963 187.556 228.815 187.237C228.668 186.919 228.454 186.636 228.189 186.406C228.342 186.094 228.427 185.752 228.44 185.405C228.453 185.057 228.392 184.71 228.262 184.388C228.493 184.134 228.672 183.837 228.789 183.514C228.905 183.191 228.956 182.848 228.94 182.505C229.256 182.407 229.542 182.232 229.773 181.995C230.004 181.758 230.172 181.468 230.262 181.149C230.613 181.145 230.959 181.067 231.277 180.919C231.595 180.771 231.879 180.558 232.108 180.293C232.421 180.446 232.762 180.531 233.11 180.544C233.458 180.556 233.804 180.496 234.127 180.366C234.665 180.796 235.352 180.997 236.037 180.922C236.125 181.253 236.291 181.557 236.523 181.808C236.754 182.06 237.043 182.251 237.365 182.366C237.364 182.703 237.443 183.036 237.597 183.336C237.751 183.636 237.974 183.895 238.249 184.091Z" fill="#B12979" fill-opacity="0.5"/>
<path fill-rule="evenodd" clip-rule="evenodd" d="M284.127 215.909C285.343 213.893 283.694 211.615 281.518 209.98C284.239 209.193 286.396 207.517 286.012 205.268C285.891 204.776 285.642 204.325 285.289 203.961C285.469 203.532 285.53 203.063 285.467 202.602C284.841 200.299 282.029 199.793 279.269 200.19C280.689 197.838 281.073 194.999 279.058 193.783C278.712 193.535 278.299 193.398 277.874 193.389C277.627 192.964 277.264 192.618 276.827 192.39C274.839 191.053 272.56 192.702 271.047 194.905C270.233 192.306 268.462 189.999 266.307 190.532C265.835 190.617 265.394 190.825 265.027 191.134L263.641 191.077C261.365 191.582 260.739 194.366 261.135 197.127C258.756 195.828 255.945 195.323 254.728 197.338C254.506 197.745 254.402 198.207 254.428 198.67C253.96 198.814 253.567 199.137 253.336 199.569C252.119 201.584 253.647 203.836 255.944 205.498C253.224 206.284 250.945 207.934 251.45 210.21C251.571 210.702 251.821 211.153 252.173 211.517C251.994 211.946 251.932 212.415 251.995 212.876C252.621 215.179 255.312 215.657 258.193 215.288C256.773 217.64 256.389 220.478 258.284 221.668C258.67 221.928 259.122 222.074 259.588 222.089L260.514 223.06C262.502 224.398 264.902 222.776 266.416 220.572C267.23 223.172 268.879 225.451 271.155 224.946C271.627 224.861 272.069 224.653 272.435 224.344L273.821 224.401C276.097 223.896 276.724 221.111 276.206 218.324C278.585 219.622 281.397 220.128 282.734 218.14C282.957 217.732 283.06 217.271 283.034 216.808C283.478 216.621 283.857 216.308 284.127 215.909V215.909ZM273.761 206.581C273.6 206.891 273.51 207.233 273.498 207.583C273.485 207.932 273.55 208.279 273.688 208.6C273.457 208.854 273.278 209.151 273.162 209.474C273.045 209.797 272.994 210.139 273.01 210.482C272.7 210.59 272.418 210.768 272.188 211.004C271.959 211.239 271.787 211.525 271.688 211.838C270.974 211.953 270.317 212.296 269.815 212.816C269.511 212.636 269.167 212.535 268.814 212.522C268.462 212.509 268.112 212.585 267.796 212.743C267.563 212.483 267.269 212.285 266.94 212.167C266.612 212.048 266.259 212.014 265.913 212.065C265.802 211.747 265.626 211.455 265.398 211.206C265.169 210.958 264.893 210.759 264.585 210.622C264.586 210.284 264.507 209.952 264.353 209.651C264.199 209.351 263.976 209.092 263.701 208.896C263.862 208.586 263.952 208.244 263.965 207.895C263.977 207.546 263.912 207.199 263.774 206.878C264.205 206.34 264.405 205.653 264.331 204.968C264.653 204.863 264.948 204.69 265.197 204.461C265.446 204.232 265.643 203.952 265.774 203.64C266.119 203.597 266.451 203.486 266.752 203.314C267.053 203.141 267.316 202.91 267.527 202.635C267.826 202.826 268.171 202.934 268.526 202.947C268.881 202.96 269.233 202.877 269.545 202.707C269.806 202.966 270.121 203.163 270.468 203.285C270.814 203.407 271.184 203.451 271.549 203.413C271.661 203.731 271.836 204.023 272.064 204.271C272.293 204.52 272.569 204.719 272.877 204.856C272.876 205.194 272.956 205.526 273.109 205.826C273.263 206.127 273.487 206.385 273.761 206.581V206.581Z" fill="#B12979" fill-opacity="0.5"/>
<path fill-rule="evenodd" clip-rule="evenodd" d="M319.638 238.399C320.855 236.384 319.233 233.984 317.03 232.47C319.75 231.683 321.908 230.007 321.403 227.731C321.318 227.259 321.11 226.817 320.801 226.451C320.892 225.995 320.911 225.527 320.858 225.065C320.353 222.789 317.569 222.162 314.781 222.68C316.08 220.301 316.585 217.489 314.597 216.152L313.386 215.879C313.171 215.409 312.815 215.017 312.366 214.759C310.351 213.543 308.072 215.192 306.437 217.368C305.651 214.647 304.001 212.368 301.725 212.874C301.248 213.03 300.804 213.275 300.418 213.597C299.989 213.417 299.52 213.356 299.059 213.419C296.756 214.045 296.25 216.856 296.647 219.617C294.295 218.197 291.456 217.813 290.24 219.828C289.985 220.17 289.847 220.585 289.846 221.012C289.456 221.242 289.124 221.559 288.875 221.938C287.537 223.926 289.159 226.326 291.484 227.867C288.763 228.653 286.457 230.424 286.989 232.579C287.074 233.051 287.282 233.492 287.591 233.859C287.5 234.315 287.481 234.783 287.534 235.245C288.16 237.548 290.824 238.147 293.611 237.63C292.285 240.13 291.78 242.941 293.795 244.158C294.203 244.38 294.664 244.484 295.127 244.458C295.271 244.926 295.594 245.318 296.026 245.55C298.041 246.767 300.414 245.266 301.955 242.941C302.742 245.662 304.391 247.941 306.667 247.436C307.173 247.352 307.634 247.097 307.974 246.713C308.403 246.892 308.872 246.954 309.333 246.891C311.636 246.265 312.236 243.601 311.745 240.693C314.097 242.112 316.936 242.497 318.152 240.481C318.407 240.139 318.545 239.724 318.546 239.298L319.638 238.399ZM309.273 229.071C309.12 229.384 309.034 229.725 309.022 230.073C309.009 230.421 309.07 230.767 309.2 231.09C308.94 231.323 308.742 231.617 308.624 231.946C308.506 232.274 308.471 232.627 308.522 232.973C308.204 233.084 307.912 233.26 307.664 233.488C307.415 233.717 307.216 233.993 307.079 234.301C306.745 234.318 306.419 234.405 306.121 234.557C305.824 234.71 305.562 234.924 305.354 235.185C305.043 235.024 304.702 234.934 304.352 234.921C304.003 234.909 303.656 234.974 303.335 235.112C302.797 234.681 302.11 234.481 301.425 234.555C300.418 233.678 299.621 232.586 299.092 231.359C299.313 231.072 299.439 230.724 299.452 230.362C299.465 230 299.364 229.643 299.165 229.341C299.423 229.08 299.62 228.765 299.742 228.418C299.864 228.072 299.908 227.702 299.87 227.337C300.705 226.325 301.8 225.56 303.039 225.125C303.349 225.286 303.691 225.376 304.04 225.388C304.389 225.401 304.736 225.336 305.057 225.198C305.327 225.446 305.651 225.628 306.003 225.73C306.356 225.831 306.727 225.849 307.088 225.782C307.134 226.108 307.272 226.414 307.486 226.665C307.7 226.916 307.981 227.101 308.295 227.198C308.411 227.912 308.754 228.569 309.273 229.071Z" fill="#B12979" fill-opacity="0.5"/>
<path fill-rule="evenodd" clip-rule="evenodd" d="M355.056 260.741C356.394 258.753 354.744 256.474 352.447 254.812C355.168 254.025 357.447 252.376 356.942 250.1L356.34 248.82C356.419 248.362 356.438 247.896 356.397 247.434C355.771 245.131 353.08 244.652 350.32 245.049C351.618 242.67 352.124 239.858 350.108 238.642C349.722 238.382 349.27 238.236 348.804 238.221C348.602 237.81 348.279 237.471 347.878 237.25C345.89 235.912 343.49 237.534 341.949 239.858C341.162 237.137 339.513 234.859 337.237 235.364C336.765 235.449 336.323 235.656 335.957 235.966L334.571 235.909C332.267 236.535 331.668 239.198 332.186 241.986C329.807 240.687 326.995 240.182 325.779 242.197C325.519 242.584 325.373 243.036 325.358 243.502C324.941 243.731 324.571 244.036 324.265 244.401C323.049 246.416 324.671 248.816 326.874 250.329C324.153 251.116 321.995 252.793 322.501 255.069C322.586 255.541 322.793 255.983 323.103 256.349C322.994 256.833 323.033 257.224 322.924 257.708C322.816 258.192 326.362 260.516 329.123 260.12C327.824 262.499 327.319 265.31 329.334 266.527C329.68 266.774 330.093 266.912 330.518 266.92L331.538 268.04C333.553 269.257 335.832 267.608 337.466 265.432C338.253 268.152 339.93 270.31 342.206 269.805L343.486 269.203L344.872 269.26C347.148 268.755 347.653 265.943 347.257 263.183C349.636 264.482 352.447 264.987 353.664 262.971C353.911 262.626 354.048 262.213 354.057 261.788C354.463 261.516 354.803 261.159 355.056 260.741V260.741ZM344.812 251.441C344.591 251.727 344.465 252.076 344.452 252.438C344.439 252.8 344.539 253.157 344.739 253.459C344.473 253.715 344.271 254.029 344.148 254.377C344.026 254.725 343.987 255.097 344.034 255.463C343.713 255.522 343.413 255.665 343.164 255.877C342.915 256.089 342.727 256.362 342.618 256.67C342.273 256.713 341.941 256.823 341.64 256.996C341.339 257.168 341.076 257.399 340.865 257.675C340.555 257.514 340.213 257.424 339.864 257.411C339.515 257.399 339.167 257.464 338.847 257.602C338.586 257.344 338.271 257.146 337.924 257.024C337.578 256.903 337.208 256.859 336.843 256.897C336.755 256.588 336.602 256.301 336.394 256.057C336.186 255.813 335.927 255.616 335.636 255.481C335.506 254.801 335.152 254.184 334.631 253.728C334.792 253.418 334.882 253.076 334.894 252.727C334.907 252.378 334.842 252.031 334.703 251.71C334.963 251.477 335.162 251.182 335.28 250.854C335.398 250.525 335.433 250.173 335.381 249.827C336.011 249.579 336.525 249.105 336.825 248.499C337.169 248.456 337.502 248.346 337.803 248.173C338.103 248 338.367 247.77 338.577 247.494C338.864 247.715 339.213 247.841 339.575 247.854C339.937 247.867 340.294 247.766 340.596 247.567C340.829 247.827 341.123 248.025 341.452 248.143C341.78 248.261 342.133 248.296 342.478 248.245C343.485 249.122 344.283 250.214 344.812 251.441V251.441Z" fill="#B12979" fill-opacity="0.5"/>
<path fill-rule="evenodd" clip-rule="evenodd" d="M390.568 283.231C391.785 281.216 390.283 278.843 387.959 277.302C390.68 276.515 392.959 274.866 392.454 272.59C392.334 272.13 392.129 271.696 391.851 271.31C391.931 270.852 391.95 270.386 391.909 269.924C391.282 267.621 388.619 267.021 385.832 267.539C387.13 265.16 387.636 262.349 385.647 261.011L384.316 260.711C384.086 260.295 383.781 259.924 383.417 259.619C381.401 258.402 379.001 260.024 377.488 262.227C376.701 259.507 375.025 257.349 372.749 257.854C372.262 257.891 371.807 258.105 371.468 258.456L370.137 258.157C367.834 258.783 367.207 261.567 367.725 264.355C365.373 262.935 362.534 262.551 361.197 264.539C360.986 264.906 360.892 265.328 360.924 265.75C360.466 265.983 360.079 266.335 359.804 266.77C358.588 268.785 360.237 271.064 362.413 272.699C359.692 273.485 357.534 275.162 357.946 277.29C358.03 277.796 358.285 278.257 358.669 278.597C358.476 279.065 358.405 279.574 358.463 280.077C359.09 282.38 361.901 282.886 364.662 282.489C363.242 284.841 362.858 287.679 364.873 288.896L366.084 289.169C366.315 289.559 366.631 289.891 367.01 290.14C369.026 291.357 371.398 289.856 372.939 287.531C373.726 290.252 375.375 292.531 377.651 292.026C378.123 291.941 378.565 291.733 378.931 291.423L380.317 291.481C382.62 290.855 383.22 288.191 382.702 285.404C385.081 286.702 387.892 287.208 389.23 285.219C389.453 284.812 389.556 284.351 389.53 283.888C389.94 283.793 390.306 283.561 390.568 283.231V283.231ZM380.202 273.903C380.05 274.216 379.964 274.557 379.951 274.905C379.939 275.253 380 275.599 380.13 275.922C379.699 276.46 379.499 277.147 379.573 277.832C379.251 277.937 378.955 278.11 378.706 278.339C378.457 278.568 378.26 278.848 378.129 279.16C377.762 279.166 377.402 279.258 377.077 279.427C376.752 279.597 376.471 279.84 376.256 280.138C375.987 279.947 375.672 279.831 375.343 279.801C375.015 279.772 374.684 279.831 374.386 279.971C373.803 279.535 373.08 279.327 372.355 279.387C371.342 278.552 370.577 277.457 370.143 276.218C370.303 275.908 370.393 275.566 370.406 275.217C370.419 274.868 370.353 274.521 370.215 274.2C370.689 273.641 370.94 272.928 370.92 272.196C371.236 272.098 371.523 271.923 371.754 271.686C371.985 271.45 372.153 271.159 372.243 270.841C372.78 270.414 373.41 270.121 374.081 269.985C374.753 269.848 375.447 269.873 376.108 270.057C376.361 270.288 376.658 270.467 376.981 270.584C377.304 270.7 377.647 270.751 377.99 270.735C378.102 271.053 378.277 271.345 378.506 271.593C378.734 271.842 379.011 272.041 379.319 272.178C379.381 272.846 379.697 273.463 380.202 273.903V273.903Z" fill="#B12979" fill-opacity="0.5"/>
<path fill-rule="evenodd" clip-rule="evenodd" d="M425.877 306.057C427.066 304.163 425.565 301.79 423.268 300.128C426.11 299.369 428.389 297.719 427.884 295.444L427.281 294.163C427.361 293.706 427.38 293.24 427.339 292.777C426.833 290.501 424.049 289.875 421.289 290.271C422.587 287.892 423.093 285.081 421.105 283.743C420.633 283.777 420.164 283.66 419.763 283.41C419.362 283.16 419.051 282.789 418.874 282.351C416.886 281.013 414.607 282.663 412.972 284.839C412.186 282.118 410.509 279.96 408.26 280.344C407.754 280.428 407.293 280.684 406.953 281.068C406.526 280.882 406.055 280.82 405.594 280.889C403.291 281.515 402.692 284.179 403.088 286.939C400.709 285.64 397.898 285.135 396.681 287.151C396.434 287.496 396.297 287.909 396.288 288.334C395.863 288.582 395.516 288.945 395.289 289.381C393.951 291.369 395.601 293.648 397.777 295.283C395.056 296.069 392.898 297.746 393.282 299.995C393.438 300.472 393.684 300.916 394.005 301.302C393.826 301.731 393.764 302.2 393.827 302.661C394.332 304.937 397.144 305.442 399.904 305.046C398.484 307.397 398.1 310.236 399.967 311.547L401.299 311.846C401.443 312.315 401.766 312.707 402.198 312.939C404.186 314.277 406.465 312.627 408.099 310.451C408.886 313.172 410.442 315.303 412.69 314.918C413.196 314.835 413.658 314.579 413.998 314.195C414.425 314.381 414.896 314.443 415.357 314.374C417.633 313.868 418.259 311.084 417.863 308.324C420.214 309.743 423.026 310.249 424.364 308.26C424.611 307.915 424.748 307.502 424.757 307.077C425.186 306.803 425.564 306.458 425.877 306.057V306.057ZM415.66 296.636C415.475 296.93 415.361 297.263 415.327 297.609C415.294 297.954 415.341 298.303 415.466 298.627C415.035 299.165 414.835 299.852 414.909 300.537C414.569 300.602 414.253 300.761 413.998 300.995C413.743 301.23 413.559 301.531 413.465 301.865C413.115 301.87 412.769 301.948 412.451 302.096C412.132 302.243 411.849 302.457 411.619 302.722C411.309 302.561 410.967 302.471 410.618 302.458C410.269 302.446 409.922 302.511 409.601 302.649C409.368 302.389 409.074 302.191 408.745 302.073C408.416 301.954 408.064 301.92 407.718 301.971C407.613 301.649 407.441 301.354 407.211 301.105C406.982 300.856 406.702 300.659 406.39 300.528C406.391 300.19 406.311 299.858 406.158 299.558C406.004 299.257 405.78 298.998 405.506 298.802C405.667 298.492 405.757 298.15 405.769 297.801C405.782 297.452 405.717 297.105 405.579 296.784C406.052 296.225 406.303 295.512 406.284 294.78C406.602 294.669 406.894 294.493 407.143 294.265C407.391 294.036 407.59 293.76 407.727 293.452C408.065 293.453 408.397 293.374 408.698 293.22C408.998 293.066 409.257 292.843 409.453 292.568C409.763 292.729 410.105 292.819 410.454 292.832C410.803 292.844 411.15 292.779 411.471 292.641C411.732 292.899 412.047 293.097 412.394 293.219C412.74 293.34 413.109 293.384 413.475 293.346C413.534 293.667 413.677 293.967 413.889 294.216C414.101 294.465 414.374 294.653 414.682 294.762C414.797 295.476 415.14 296.133 415.66 296.636V296.636Z" fill="#B12979" fill-opacity="0.5"/>
<path fill-rule="evenodd" clip-rule="evenodd" d="M460.484 329.743C461.916 327.903 460.442 325.409 458.145 323.747C460.959 323.109 463.359 321.487 462.854 319.211C462.857 318.966 462.805 318.723 462.701 318.501C462.596 318.279 462.443 318.084 462.252 317.931C462.438 317.504 462.499 317.033 462.43 316.572C461.952 314.175 459.168 313.548 456.435 313.824C457.854 311.472 458.36 308.661 456.493 307.35C456.106 307.09 455.654 306.944 455.188 306.929L454.289 305.837C452.301 304.499 449.807 305.973 448.173 308.149C447.507 305.455 445.858 303.177 443.609 303.561C443.137 303.646 442.695 303.853 442.329 304.163L440.876 303.836C438.573 304.463 437.974 307.126 438.343 310.007C435.991 308.588 433.207 307.961 431.869 309.949C431.665 310.361 431.523 310.8 431.449 311.254C431.038 311.456 430.698 311.779 430.477 312.18C429.139 314.168 430.641 316.541 432.816 318.175C430.123 318.841 427.844 320.49 428.228 322.739C428.348 323.199 428.552 323.633 428.831 324.019C428.722 324.504 428.734 325.015 428.652 325.378C428.57 325.741 431.942 328.281 434.675 328.005C433.282 330.236 432.777 333.047 434.644 334.358C434.99 334.605 435.402 334.742 435.827 334.751C436.049 335.173 436.355 335.545 436.726 335.844C438.715 337.181 441.087 335.68 442.722 333.504C443.388 336.198 444.916 338.45 447.164 338.065C447.637 337.981 448.078 337.773 448.445 337.463C448.912 337.656 449.422 337.727 449.925 337.669C452.2 337.164 452.921 334.528 452.552 331.646C454.903 333.066 457.66 333.813 458.998 331.825C459.258 331.438 459.404 330.986 459.419 330.521C459.857 330.4 460.236 330.123 460.484 329.743V329.743ZM450.591 320.013C450.396 320.303 450.277 320.636 450.243 320.984C450.209 321.332 450.262 321.682 450.397 322.004C449.977 322.544 449.74 323.203 449.719 323.887C449.389 323.974 449.085 324.141 448.833 324.373C448.582 324.604 448.39 324.893 448.275 325.215C447.925 325.219 447.579 325.298 447.261 325.445C446.942 325.593 446.659 325.806 446.429 326.072C446.139 325.877 445.806 325.757 445.458 325.724C445.11 325.69 444.76 325.743 444.438 325.878C444.205 325.618 443.911 325.42 443.582 325.301C443.254 325.183 442.901 325.148 442.555 325.2C442.478 324.855 442.32 324.533 442.093 324.261C441.867 323.989 441.579 323.774 441.254 323.635C441.255 323.298 441.176 322.965 441.022 322.665C440.868 322.365 440.645 322.106 440.37 321.91C440.565 321.62 440.685 321.286 440.718 320.939C440.752 320.591 440.699 320.241 440.564 319.919C440.823 319.658 441.02 319.343 441.142 318.996C441.264 318.65 441.307 318.281 441.269 317.915C441.591 317.856 441.891 317.713 442.139 317.501C442.388 317.289 442.576 317.016 442.686 316.708C443.383 316.648 444.036 316.345 444.532 315.851C444.842 316.012 445.184 316.102 445.533 316.115C445.882 316.127 446.23 316.062 446.551 315.924C446.807 316.188 447.115 316.397 447.454 316.539C447.794 316.681 448.159 316.753 448.527 316.75C448.614 317.059 448.768 317.346 448.976 317.59C449.184 317.835 449.443 318.031 449.734 318.167C449.738 318.517 449.817 318.863 449.965 319.181C450.112 319.5 450.326 319.783 450.591 320.013Z" fill="#B12979" fill-opacity="0.5"/>
<path fill-rule="evenodd" clip-rule="evenodd" d="M494.252 354.893C495.711 352.932 494.358 350.465 492.209 348.71C494.997 348.193 497.37 346.692 497.106 344.47C496.996 343.974 496.801 343.5 496.531 343.069C496.691 342.64 496.791 342.193 496.831 341.737C496.353 339.34 493.623 338.472 490.89 338.747C492.431 336.423 493.057 333.638 491.096 332.18C490.754 331.925 490.339 331.787 489.913 331.786C489.739 331.334 489.424 330.951 489.014 330.694C487.053 329.235 484.586 330.588 482.831 332.736C482.192 329.922 480.691 327.549 478.443 327.933C477.932 327.995 477.448 328.194 477.041 328.508L475.71 328.209C473.313 328.687 472.565 331.444 472.841 334.177C470.637 332.663 467.826 332.158 466.394 333.998C466.134 334.385 465.989 334.837 465.974 335.302C465.511 335.458 465.122 335.778 464.881 336.201C463.449 338.041 464.951 340.414 467.099 342.169C464.285 342.808 462.033 344.336 462.417 346.585C462.436 347.077 462.593 347.553 462.871 347.959C462.751 348.402 462.691 348.859 462.693 349.318C463.077 351.566 465.713 352.287 468.567 352.039C467.026 354.363 466.4 357.147 468.267 358.458C468.581 358.759 468.99 358.941 469.423 358.972C469.653 359.389 469.957 359.759 470.322 360.065C472.189 361.375 474.535 359.995 476.29 357.847C476.808 360.634 478.309 363.007 480.557 362.622C481.02 362.623 481.467 362.452 481.81 362.141C482.278 362.334 482.788 362.405 483.29 362.347C485.539 361.963 486.38 359.354 486.253 356.527C488.457 358.041 491.214 358.788 492.645 356.948C492.891 356.553 493.074 356.122 493.187 355.671C493.59 355.485 493.952 355.22 494.252 354.893V354.893ZM484.858 344.639C484.648 344.916 484.51 345.239 484.455 345.582C484.4 345.925 484.43 346.276 484.544 346.604C484.288 346.839 484.084 347.127 483.947 347.446C483.809 347.766 483.74 348.111 483.745 348.459C483.413 348.518 483.1 348.656 482.832 348.862C482.565 349.067 482.35 349.334 482.207 349.639C481.856 349.643 481.51 349.722 481.192 349.869C480.874 350.017 480.591 350.23 480.361 350.495C479.774 350.135 479.067 350.022 478.397 350.181C478.164 349.921 477.87 349.723 477.541 349.604C477.213 349.486 476.86 349.451 476.514 349.503C476.455 349.171 476.317 348.858 476.111 348.59C475.906 348.323 475.639 348.109 475.334 347.965C475.33 347.614 475.251 347.269 475.104 346.95C474.956 346.632 474.743 346.349 474.478 346.119C474.663 345.831 474.786 345.508 474.84 345.17C474.895 344.832 474.878 344.486 474.792 344.155C475.059 343.899 475.261 343.585 475.383 343.237C475.506 342.889 475.545 342.517 475.498 342.151C475.838 342.115 476.161 341.985 476.432 341.777C476.703 341.569 476.912 341.29 477.035 340.971C477.373 340.986 477.711 340.929 478.025 340.802C478.339 340.675 478.621 340.482 478.854 340.236C479.144 340.43 479.478 340.55 479.825 340.584C480.173 340.618 480.523 340.565 480.845 340.43C481.379 340.941 482.083 341.235 482.822 341.256C482.881 341.588 483.019 341.901 483.225 342.168C483.43 342.436 483.697 342.65 484.002 342.793C484.006 343.144 484.085 343.49 484.232 343.808C484.38 344.126 484.593 344.41 484.858 344.639V344.639Z" fill="#B12979" fill-opacity="0.5"/>
<path fill-rule="evenodd" clip-rule="evenodd" d="M526.617 381.763C528.169 379.95 526.965 377.389 524.964 375.54C527.725 375.144 530.191 373.791 530.076 371.476C530.058 370.984 529.9 370.508 529.622 370.102C529.839 369.692 529.942 369.233 529.922 368.77C529.686 366.428 527.011 365.317 524.184 365.444C525.818 363.268 526.566 360.511 524.753 358.958C524.61 358.793 524.432 358.661 524.232 358.572C524.032 358.483 523.815 358.439 523.597 358.444C523.419 357.969 523.118 357.55 522.725 357.23C520.791 355.65 518.325 357.003 516.476 359.003C515.985 356.095 514.484 353.722 512.29 353.865C511.784 353.942 511.304 354.139 510.889 354.44L509.436 354.113C507.066 354.47 506.225 357.078 506.352 359.905C504.176 358.271 501.419 357.523 499.988 359.363C499.822 359.506 499.69 359.684 499.601 359.884C499.512 360.084 499.469 360.301 499.473 360.519C498.998 360.697 498.579 360.998 498.259 361.391C496.828 363.231 498.153 365.819 500.181 367.547C497.394 368.064 495.048 369.444 495.284 371.787C495.283 372.25 495.455 372.696 495.765 373.04C495.535 373.488 495.423 373.988 495.439 374.492C495.702 376.714 498.432 377.582 501.137 377.428C499.476 379.725 498.634 382.334 500.447 383.887L501.603 384.401C501.749 384.826 502.02 385.198 502.381 385.466C504.194 387.019 506.66 385.666 508.51 383.666C508.906 386.426 510.259 388.893 512.453 388.75C512.934 388.682 513.399 388.528 513.827 388.296L515.159 388.596C517.501 388.36 518.463 385.778 518.485 382.858C520.633 384.613 523.242 385.455 524.916 383.669C525.165 383.323 525.34 382.93 525.43 382.513C525.89 382.382 526.302 382.122 526.617 381.763V381.763ZM517.722 370.985C517.522 371.266 517.389 371.589 517.334 371.93C517.28 372.271 517.305 372.62 517.407 372.949C517.133 373.171 516.909 373.449 516.75 373.764C516.592 374.079 516.502 374.425 516.487 374.777C516.153 374.807 515.831 374.916 515.547 375.096C515.263 375.275 515.026 375.52 514.856 375.809C514.518 375.794 514.18 375.852 513.867 375.979C513.553 376.106 513.27 376.299 513.037 376.545C512.244 376.112 511.518 375.948 511.073 376.23C510.851 375.955 510.574 375.731 510.258 375.573C509.943 375.414 509.598 375.324 509.245 375.31C509.186 374.978 509.047 374.665 508.842 374.398C508.637 374.13 508.37 373.916 508.065 373.772C508.093 373.417 508.044 373.06 507.922 372.725C507.8 372.39 507.607 372.086 507.357 371.832C507.574 371.565 507.726 371.251 507.802 370.915C507.877 370.579 507.874 370.23 507.793 369.895C508.048 369.66 508.252 369.372 508.389 369.053C508.527 368.733 508.596 368.388 508.592 368.04C508.931 367.968 509.252 367.829 509.537 367.631C509.822 367.433 510.064 367.18 510.25 366.887C510.588 366.902 510.926 366.845 511.24 366.718C511.554 366.591 511.836 366.398 512.069 366.152C512.357 366.375 512.691 366.533 513.046 366.613C513.402 366.693 513.771 366.694 514.127 366.615C514.615 367.12 515.259 367.444 515.955 367.535C515.996 367.854 516.114 368.158 516.298 368.421C516.483 368.684 516.729 368.898 517.014 369.045C516.986 369.4 517.035 369.758 517.157 370.092C517.279 370.427 517.472 370.732 517.722 370.985V370.985Z" fill="#B12979" fill-opacity="0.5"/>
<path fill-rule="evenodd" clip-rule="evenodd" d="M556.956 410.847C558.724 409.21 557.695 406.435 555.87 404.371C558.696 404.243 561.23 403.16 561.236 400.872C561.273 400.364 561.167 399.855 560.93 399.404C561.128 398.99 561.27 398.552 561.351 398.1C561.263 395.664 558.588 394.553 555.722 394.289C557.571 392.289 558.561 389.586 556.775 387.913C556.487 387.573 556.086 387.347 555.646 387.277C555.525 386.785 555.276 386.334 554.923 385.97C553.137 384.296 550.456 385.473 548.513 387.325C548.265 384.472 546.939 381.884 544.624 381.999L543.277 382.332L541.824 382.005C539.509 382.12 538.398 384.795 538.404 387.595C536.256 385.839 533.553 384.85 532.028 386.541C531.855 386.706 531.717 386.904 531.624 387.123C531.531 387.343 531.484 387.58 531.486 387.818C531.012 387.916 530.591 388.183 530.3 388.569C528.653 390.234 529.83 392.915 531.71 394.737C528.95 395.133 526.389 396.338 526.504 398.653C526.533 399.118 526.646 399.575 526.837 400C526.615 400.407 526.511 400.868 526.538 401.331C526.653 403.647 529.207 404.73 532.006 404.724C530.13 406.846 529.167 409.427 530.832 411.074L531.988 411.588C532.108 412.048 532.312 412.483 532.59 412.868C534.282 414.394 536.815 413.31 538.879 411.485C539.033 414.191 540.117 416.724 542.405 416.73C542.897 416.712 543.373 416.554 543.779 416.276L545.111 416.576C547.399 416.582 548.603 414.055 548.866 411.189C550.867 413.038 553.421 414.122 555.189 412.484C555.481 412.159 555.698 411.774 555.824 411.356C556.24 411.29 556.631 411.115 556.956 410.847V410.847ZM548.979 399.386C548.731 399.635 548.558 399.949 548.481 400.291C548.404 400.634 548.425 400.992 548.543 401.323C548.236 401.52 547.973 401.78 547.773 402.086C547.573 402.391 547.439 402.736 547.381 403.096C547.046 403.126 546.724 403.235 546.44 403.415C546.156 403.594 545.92 403.839 545.749 404.128C545.421 404.049 545.078 404.05 544.75 404.131C544.422 404.212 544.118 404.371 543.864 404.594C543.296 404.211 542.604 404.055 541.927 404.158C541.714 403.871 541.445 403.63 541.135 403.45C540.825 403.271 540.482 403.158 540.126 403.117C540.116 402.796 540.027 402.482 539.868 402.203C539.71 401.924 539.486 401.687 539.215 401.513C539.244 400.794 539.048 400.083 538.655 399.479C538.904 399.231 539.076 398.917 539.153 398.574C539.23 398.231 539.209 397.874 539.091 397.543C539.384 397.366 539.629 397.12 539.805 396.828C539.982 396.535 540.085 396.204 540.105 395.863C540.752 395.719 541.329 395.354 541.736 394.831C542.424 394.872 543.103 394.664 543.649 394.244C544.442 394.677 545.141 394.961 545.707 394.707C545.865 395.016 546.106 395.274 546.403 395.453C546.699 395.632 547.04 395.725 547.387 395.721C547.485 396.412 547.845 397.039 548.392 397.473C548.371 398.158 548.577 398.831 548.979 399.386V399.386Z" fill="#B12979" fill-opacity="0.5"/>
<path fill-rule="evenodd" clip-rule="evenodd" d="M584.826 442.429C586.687 440.94 585.901 438.219 584.251 435.94C587.023 436.055 589.744 435.268 590.02 432.914C590.057 432.405 589.951 431.897 589.714 431.446C590.002 431.074 590.188 430.634 590.256 430.169C590.41 427.787 587.938 426.34 585.126 425.835C587.069 423.982 588.301 421.334 586.812 419.473C586.468 419.136 586.034 418.905 585.562 418.81C585.451 418.314 585.257 417.84 584.987 417.409C583.35 415.642 580.602 416.549 578.444 418.226C578.344 415.278 577.288 412.624 575.027 412.497C574.519 412.46 574.01 412.566 573.559 412.803C573.185 412.52 572.746 412.334 572.282 412.261C569.873 412.227 568.668 414.754 568.284 417.593C566.459 415.529 563.757 414.54 562.016 416.056C561.691 416.356 561.469 416.751 561.381 417.185C560.888 417.305 560.437 417.555 560.073 417.908C558.306 419.545 559.389 422.078 561.066 424.236C558.266 424.242 555.733 425.326 555.606 427.586C555.569 428.095 555.675 428.603 555.912 429.054C555.624 429.426 555.438 429.866 555.37 430.331C555.243 432.592 557.622 433.89 560.488 434.154C558.517 436.127 557.192 438.627 558.735 440.246C559.036 440.571 559.43 440.793 559.864 440.882C559.949 441.354 560.157 441.795 560.466 442.162C561.861 443.875 564.582 443.088 566.74 441.411C566.625 444.184 567.439 446.783 569.7 446.91L571.14 446.726L572.418 447.268C574.706 447.274 576.125 444.922 576.603 442.232C578.455 444.175 580.955 445.5 582.817 444.011C583.196 443.751 583.466 443.358 583.573 442.91C584.027 442.868 584.461 442.701 584.826 442.429ZM577.887 430.311C577.643 430.555 577.455 430.851 577.338 431.176C577.221 431.502 577.177 431.849 577.209 432.193C576.9 432.365 576.63 432.597 576.414 432.877C576.198 433.156 576.041 433.476 575.953 433.818C575.617 433.826 575.288 433.91 574.989 434.063C574.691 434.216 574.43 434.434 574.228 434.702C573.895 434.606 573.545 434.585 573.203 434.64C572.86 434.695 572.535 434.824 572.248 435.02C572.025 434.782 571.75 434.6 571.444 434.487C571.138 434.375 570.811 434.334 570.487 434.369C570.296 434.056 570.037 433.79 569.731 433.589C569.424 433.388 569.077 433.257 568.714 433.207C568.735 432.883 568.676 432.559 568.543 432.263C568.411 431.967 568.207 431.708 567.951 431.509C568.017 431.162 568.013 430.805 567.938 430.461C567.862 430.116 567.717 429.79 567.512 429.502C567.756 429.257 567.943 428.962 568.061 428.637C568.178 428.311 568.222 427.964 568.19 427.62C568.415 426.991 568.795 426.428 569.295 425.985C569.795 425.542 570.398 425.232 571.05 425.084C571.397 425.15 571.753 425.146 572.098 425.07C572.443 424.995 572.769 424.85 573.057 424.645C573.282 424.915 573.575 425.119 573.906 425.238C574.237 425.358 574.593 425.387 574.939 425.323C575.13 425.636 575.389 425.902 575.695 426.103C576.002 426.304 576.349 426.434 576.713 426.485C576.688 426.84 576.754 427.196 576.903 427.518C577.053 427.841 577.282 428.121 577.569 428.331C577.489 428.666 577.475 429.013 577.53 429.353C577.584 429.692 577.706 430.018 577.887 430.311Z" fill="#B12979" fill-opacity="0.5"/>
<path fill-rule="evenodd" clip-rule="evenodd" d="M609.297 476.679C611.225 475.46 610.856 472.579 609.355 470.206C612.194 470.59 614.981 470.073 615.378 467.746C615.494 467.278 615.472 466.787 615.314 466.332C615.625 465.97 615.851 465.543 615.977 465.082C616.401 462.634 614.131 460.851 611.226 460.197C613.505 458.548 614.951 456.076 613.489 454.093L612.536 453.243C612.426 452.746 612.231 452.272 611.961 451.842C610.499 449.859 607.712 450.377 605.46 451.905C605.724 449.039 604.964 446.197 602.61 445.922C602.144 445.789 601.648 445.811 601.196 445.985L599.825 445.295C597.443 445.141 596.024 447.492 595.398 450.277C593.6 448.091 591.127 446.645 589.266 448.134C588.886 448.395 588.616 448.787 588.509 449.235C588.055 449.278 587.622 449.444 587.256 449.716C585.274 451.178 586.061 453.899 587.589 456.151C584.723 455.887 582.096 456.822 581.727 459.029C581.666 459.251 581.653 459.484 581.69 459.711C581.726 459.939 581.811 460.156 581.939 460.348C581.628 460.711 581.402 461.138 581.276 461.598C581 463.953 583.231 465.345 585.894 465.944C583.736 467.621 582.29 470.093 583.536 471.9C583.772 472.247 584.117 472.504 584.517 472.63C584.559 473.084 584.726 473.517 584.998 473.883C586.339 475.838 589.153 475.199 591.405 473.671C591.169 476.416 591.565 479.176 593.772 479.545C594.239 479.662 594.73 479.64 595.185 479.482L596.435 480.145C598.762 480.541 600.424 478.244 601.144 475.608C602.7 477.739 605.145 479.306 607.073 478.087C607.417 477.829 607.706 477.505 607.923 477.133C608.405 477.065 608.87 476.911 609.297 476.679ZM603.665 463.838C603.342 465.158 602.585 466.331 601.517 467.17C601.16 467.123 600.798 467.163 600.46 467.287C600.122 467.41 599.819 467.613 599.577 467.878C599.262 467.739 598.917 467.684 598.575 467.719C598.232 467.753 597.905 467.876 597.625 468.075C597.398 467.806 597.119 467.586 596.805 467.428C596.491 467.27 596.148 467.177 595.797 467.155C595.648 466.855 595.436 466.59 595.177 466.379C594.918 466.167 594.616 466.012 594.293 465.926C594.352 465.585 594.314 465.233 594.184 464.912C594.054 464.591 593.837 464.312 593.557 464.107C593.699 463.774 593.758 463.411 593.728 463.05C593.699 462.689 593.582 462.34 593.388 462.034C593.662 461.812 593.886 461.535 594.045 461.22C594.204 460.904 594.293 460.559 594.308 460.206C594.608 460.057 594.872 459.846 595.084 459.587C595.296 459.327 595.45 459.026 595.537 458.702C595.878 458.761 596.229 458.723 596.551 458.594C596.872 458.464 597.151 458.247 597.355 457.967C597.689 458.109 598.052 458.168 598.413 458.138C598.774 458.109 599.123 457.992 599.429 457.797C599.65 458.072 599.928 458.296 600.243 458.455C600.558 458.613 600.904 458.703 601.256 458.717C601.578 459.324 602.1 459.801 602.733 460.067C602.732 460.746 602.996 461.399 603.469 461.886C603.302 462.54 603.371 463.231 603.665 463.838Z" fill="#B12979" fill-opacity="0.5"/>
<path fill-rule="evenodd" clip-rule="evenodd" d="M629.764 513.463C631.907 512.419 631.78 509.592 630.724 506.938C633.481 507.686 636.187 507.531 636.946 505.286C637.098 504.798 637.127 504.28 637.031 503.779C637.404 503.495 637.705 503.127 637.909 502.704C638.454 500.283 636.332 498.407 633.657 497.296C636.002 495.916 637.785 493.646 636.62 491.476C636.418 491.065 636.095 490.726 635.694 490.505C635.662 489.981 635.516 489.471 635.267 489.01C634.102 486.84 631.248 487.088 628.809 488.319C629.314 485.508 628.797 482.721 626.524 482.082C626.309 481.978 626.075 481.919 625.837 481.909C625.598 481.899 625.36 481.938 625.138 482.024L623.915 481.241C621.615 480.723 619.859 482.872 618.991 485.602C617.463 483.35 615.193 481.567 613.117 482.881C612.751 483.114 612.456 483.444 612.266 483.834C611.794 483.807 611.325 483.923 610.919 484.167C608.87 485.359 609.24 488.24 610.499 490.559C607.808 490.08 605.021 490.598 604.409 492.75C604.287 493.256 604.3 493.785 604.446 494.284C604.253 494.409 604.087 494.57 603.957 494.759C603.827 494.948 603.736 495.161 603.689 495.386C603.05 497.659 605.226 499.293 607.835 500.134C605.611 501.542 603.828 503.811 604.899 505.833L605.732 506.656C605.705 507.128 605.821 507.598 606.064 508.003C607.136 510.025 609.896 509.628 612.429 508.545C611.709 511.181 612.011 513.793 614.136 514.525C614.624 514.677 615.141 514.706 615.643 514.61L616.624 515.339C618.896 515.978 620.867 514.005 621.95 511.45C623.209 513.769 625.331 515.645 627.473 514.601C627.876 514.387 628.212 514.067 628.445 513.675L629.764 513.463ZM625.655 500.074C625.355 500.242 625.104 500.485 624.926 500.78C624.748 501.074 624.65 501.41 624.641 501.754C624.294 501.872 623.974 502.058 623.7 502.303C623.427 502.547 623.205 502.844 623.049 503.176C622.722 503.073 622.373 503.061 622.041 503.144C621.708 503.226 621.404 503.398 621.163 503.642C620.864 503.451 620.519 503.343 620.164 503.33C619.809 503.317 619.457 503.4 619.145 503.57C618.985 503.258 618.751 502.991 618.462 502.793C618.174 502.595 617.84 502.472 617.492 502.435C617.388 502.113 617.215 501.817 616.985 501.568C616.756 501.319 616.476 501.122 616.164 500.991C616.243 500.662 616.242 500.319 616.161 499.991C616.08 499.663 615.921 499.359 615.698 499.105C615.859 498.795 615.949 498.453 615.961 498.104C615.974 497.755 615.909 497.408 615.771 497.087C616.071 496.919 616.322 496.675 616.499 496.381C616.677 496.087 616.775 495.751 616.784 495.407C617.128 495.302 617.441 495.115 617.697 494.863C617.954 494.61 618.145 494.3 618.255 493.958C618.583 494.048 618.929 494.052 619.259 493.971C619.589 493.889 619.893 493.724 620.141 493.491C620.799 493.344 621.484 493.366 622.131 493.556C622.778 493.746 623.366 494.098 623.839 494.578C623.957 494.925 624.144 495.245 624.388 495.519C624.633 495.792 624.93 496.014 625.261 496.17C625.182 496.499 625.183 496.841 625.265 497.17C625.346 497.498 625.504 497.802 625.727 498.055C625.567 498.366 625.477 498.707 625.464 499.057C625.451 499.406 625.517 499.753 625.655 500.074V500.074Z" fill="#B12979" fill-opacity="0.5"/>
<path fill-rule="evenodd" clip-rule="evenodd" d="M645.649 552.523C646.174 552.321 646.64 551.99 647.003 551.56C647.367 551.131 647.616 550.617 647.728 550.065C647.873 548.751 647.739 547.421 647.335 546.161C650.01 547.272 652.783 547.387 653.757 545.317C653.988 544.868 654.1 544.368 654.084 543.864C654.439 543.562 654.737 543.198 654.962 542.79C655.843 540.572 654.045 538.386 651.572 536.94C653.984 535.829 656.076 533.883 655.207 531.526L654.457 530.339C654.467 529.833 654.362 529.331 654.151 528.871C653.255 526.635 650.362 526.492 647.735 527.428C648.604 524.698 648.504 521.75 646.406 520.896C645.959 520.638 645.428 520.564 644.927 520.691C644.654 520.285 644.297 519.945 643.879 519.692C641.661 518.811 639.664 520.905 638.459 523.432C637.255 520.872 635.133 518.996 632.869 520.013L631.925 520.818C631.453 520.791 630.984 520.907 630.578 521.15C628.463 522.073 628.469 524.873 629.431 527.379C626.822 526.537 623.968 526.786 623.115 528.883C622.994 529.085 622.917 529.31 622.886 529.544C622.855 529.778 622.872 530.015 622.936 530.242C622.566 530.553 622.231 530.904 621.938 531.289C621.178 533.534 623.057 535.356 625.584 536.561C623.024 537.765 621.054 539.739 621.883 541.706C622.043 542.099 622.326 542.429 622.688 542.65C622.692 543.136 622.754 543.62 622.872 544.091C623.553 546.152 626.353 546.146 628.953 545.332C627.99 547.913 627.902 550.564 629.851 551.512C630.303 551.759 630.829 551.832 631.331 551.717C631.562 552.108 631.879 552.44 632.257 552.689C634.476 553.57 636.634 551.893 638.08 549.421C638.506 550.625 639.224 551.705 640.171 552.562C640.572 552.931 641.062 553.188 641.593 553.308C642.125 553.428 642.678 553.405 643.198 553.243C643.605 553.139 643.968 552.909 644.236 552.586C644.707 552.659 645.187 552.637 645.649 552.523V552.523ZM643.304 538.64C642.966 538.782 642.666 538.999 642.427 539.277C642.188 539.554 642.017 539.883 641.927 540.238C641.247 540.397 640.654 540.809 640.268 541.391C639.952 541.264 639.608 541.215 639.268 541.249C638.928 541.283 638.602 541.4 638.316 541.588C638.036 541.387 637.712 541.255 637.371 541.2C637.031 541.145 636.682 541.17 636.352 541.273C636.239 540.95 636.039 540.664 635.773 540.447C635.508 540.23 635.188 540.091 634.848 540.045C634.81 539.694 634.685 539.358 634.483 539.068C634.282 538.779 634.011 538.544 633.695 538.386C633.834 538.072 633.889 537.726 633.855 537.384C633.82 537.042 633.697 536.714 633.498 536.434C633.669 536.156 633.772 535.843 633.801 535.518C633.83 535.194 633.783 534.867 633.665 534.564C634.003 534.433 634.298 534.213 634.519 533.926C634.741 533.64 634.88 533.298 634.921 532.938C635.375 532.433 635.939 532.037 636.57 531.782C637.2 531.527 637.88 531.42 638.559 531.468C638.84 531.668 639.163 531.801 639.504 531.856C639.845 531.91 640.193 531.885 640.523 531.782C641.736 532.485 642.737 533.501 643.422 534.724C643.294 535.041 643.245 535.384 643.28 535.725C643.314 536.065 643.43 536.391 643.619 536.676C643.418 536.957 643.285 537.281 643.231 537.621C643.176 537.962 643.201 538.311 643.304 538.64V538.64Z" fill="#B12979" fill-opacity="0.5"/>
<path fill-rule="evenodd" clip-rule="evenodd" d="M655.796 593.343C658.045 592.959 658.671 590.175 658.275 587.415C660.748 588.861 663.532 589.488 664.87 587.5C665.138 587.07 665.292 586.58 665.318 586.074C665.721 585.888 666.083 585.624 666.383 585.296C667.627 583.16 666.18 580.545 663.91 578.762C666.604 578.096 668.883 576.447 668.284 574.023C668.163 573.531 667.913 573.079 667.56 572.715C667.711 572.268 667.731 571.787 667.618 571.329C667.046 568.784 664.234 568.279 661.568 568.823C662.773 566.296 663.063 563.309 661.048 562.092C660.616 561.829 660.127 561.675 659.622 561.645C659.392 561.254 659.075 560.922 658.696 560.673C656.532 559.55 654.253 561.2 652.834 563.551C651.899 560.924 650.101 558.739 647.771 559.486C647.561 559.516 647.36 559.59 647.181 559.703C647.002 559.816 646.849 559.966 646.733 560.143C646.267 560.011 645.771 560.033 645.319 560.207C643.016 560.833 642.632 563.672 643.325 566.244C640.798 565.04 638.026 564.925 636.836 566.819C636.62 567.229 636.516 567.688 636.536 568.151L635.444 569.05C634.469 571.12 635.904 573.223 638.228 574.764C635.628 575.578 633.349 577.227 633.761 579.355L634.418 580.393C634.338 580.85 634.319 581.316 634.36 581.779C634.893 583.934 637.732 584.318 640.492 583.922C638.951 586.246 638.473 588.937 640.367 590.126C640.757 590.38 641.207 590.525 641.672 590.547L642.571 591.639C644.465 592.829 646.932 591.476 648.714 589.206C649.259 591.872 650.909 594.151 653.157 593.767C653.579 593.723 653.976 593.545 654.289 593.259C654.775 593.422 655.295 593.451 655.796 593.343V593.343ZM655.497 579.413C655.156 579.478 654.841 579.637 654.586 579.871C654.331 580.106 654.146 580.407 654.053 580.741C653.703 580.745 653.357 580.824 653.038 580.972C652.72 581.119 652.437 581.333 652.207 581.598C651.911 581.459 651.59 581.383 651.263 581.376C650.936 581.368 650.612 581.428 650.309 581.552C649.727 581.116 649.004 580.908 648.279 580.968C648.191 580.638 648.024 580.334 647.793 580.082C647.561 579.831 647.272 579.639 646.95 579.524C646.92 579.163 646.818 578.811 646.65 578.489C646.482 578.168 646.252 577.883 645.973 577.651C646.138 577.364 646.229 577.04 646.237 576.708C646.245 576.377 646.17 576.048 646.018 575.754C646.449 575.216 646.649 574.529 646.575 573.844C646.905 573.756 647.209 573.589 647.461 573.358C647.712 573.126 647.904 572.837 648.019 572.515C648.38 572.485 648.732 572.383 649.054 572.215C649.375 572.047 649.66 571.817 649.892 571.538C650.188 571.676 650.509 571.752 650.836 571.76C651.163 571.768 651.487 571.708 651.79 571.583C652.328 572.014 653.014 572.214 653.699 572.14C653.795 572.489 653.978 572.808 654.232 573.065C654.486 573.323 654.802 573.511 655.149 573.611C655.155 573.978 655.246 574.338 655.416 574.663C655.586 574.989 655.829 575.27 656.126 575.484C655.961 575.772 655.87 576.096 655.862 576.427C655.854 576.759 655.93 577.087 656.081 577.382C655.645 577.965 655.437 578.687 655.497 579.413V579.413Z" fill="#B12979" fill-opacity="0.5"/>
<path fill-rule="evenodd" clip-rule="evenodd" d="M659.17 635.438C661.579 635.472 662.69 632.796 662.832 629.903C664.954 631.78 667.508 632.863 669.182 631.078C669.519 630.734 669.749 630.3 669.844 629.828C670.32 629.666 670.762 629.421 671.152 629.104C672.853 627.198 671.675 624.516 669.608 622.398C672.341 622.122 674.929 620.797 674.747 618.212C674.719 617.755 674.551 617.318 674.266 616.959C674.496 616.511 674.609 616.011 674.593 615.507C674.412 612.922 671.709 611.932 669.003 612.087C669.852 611.011 670.403 609.732 670.601 608.376C670.669 607.818 670.605 607.252 670.415 606.724C670.225 606.195 669.914 605.718 669.506 605.332C669.108 604.999 668.639 604.762 668.135 604.642C667.962 604.202 667.708 603.799 667.384 603.455C665.423 601.996 662.957 603.349 661.08 605.471C660.684 602.71 659.21 600.217 656.84 600.574C656.418 600.618 656.022 600.796 655.708 601.082L654.256 600.755C651.886 601.112 651.138 603.869 651.32 606.454C648.996 604.914 646.332 604.314 644.928 606.033C644.617 606.396 644.391 606.823 644.265 607.283L643.2 608.061C642.865 608.468 642.648 608.96 642.576 609.483C642.503 610.005 642.577 610.538 642.788 611.021C643.321 612.177 644.083 613.214 645.028 614.068C642.268 614.465 639.828 615.697 639.971 617.891C639.939 618.093 639.958 618.299 640.026 618.492C640.093 618.684 640.207 618.857 640.358 618.995C640.142 619.405 640.038 619.864 640.058 620.327C640.201 622.521 642.93 623.39 645.609 623.357C643.853 625.505 643.039 627.993 644.61 629.491C644.964 629.814 645.394 630.041 645.86 630.154L646.489 631.313C648.302 632.866 650.808 631.903 653.02 629.985C653.054 632.663 654.258 635.223 656.546 635.23C657.02 635.284 657.499 635.166 657.893 634.897L659.17 635.438ZM661.159 621.514C660.829 621.561 660.514 621.677 660.233 621.855C659.951 622.033 659.711 622.268 659.527 622.546C659.172 622.518 658.815 622.566 658.48 622.688C658.145 622.811 657.841 623.004 657.587 623.254C657.339 623.006 657.025 622.833 656.682 622.756C656.339 622.679 655.982 622.701 655.65 622.818C655.429 622.544 655.151 622.32 654.836 622.161C654.521 622.002 654.175 621.913 653.823 621.898C653.775 621.569 653.659 621.253 653.481 620.972C653.303 620.691 653.068 620.45 652.791 620.267C652.832 619.579 652.624 618.9 652.203 618.354C652.399 618.094 652.527 617.79 652.577 617.468C652.627 617.147 652.598 616.818 652.491 616.511C652.765 616.289 652.99 616.011 653.148 615.696C653.307 615.381 653.397 615.036 653.411 614.683C653.75 614.611 654.072 614.472 654.357 614.274C654.641 614.076 654.884 613.823 655.07 613.53C655.425 613.558 655.782 613.509 656.117 613.387C656.451 613.265 656.756 613.072 657.01 612.822C657.277 613.039 657.591 613.191 657.927 613.267C658.263 613.342 658.612 613.339 658.946 613.258C659.182 613.513 659.469 613.717 659.789 613.854C660.109 613.992 660.454 614.061 660.802 614.057C660.793 614.4 660.887 614.738 661.07 615.029C661.254 615.319 661.52 615.549 661.834 615.688C661.8 616.06 661.843 616.435 661.96 616.789C662.078 617.144 662.266 617.47 662.514 617.749C662.297 618.016 662.145 618.33 662.07 618.666C661.994 619.002 661.997 619.351 662.079 619.686C661.804 619.908 661.58 620.185 661.421 620.501C661.263 620.816 661.173 621.161 661.159 621.514Z" fill="#B12979" fill-opacity="0.5"/>
</svg>
