<svg width="85" height="86" viewBox="0 0 85 86" fill="none" xmlns="http://www.w3.org/2000/svg">
<path d="M55.0221 21.4358C54.6525 20.9016 54.1541 20.4693 53.5729 20.1789C52.9916 19.8885 52.3465 19.7493 51.6972 19.7744C59.6877 16.2908 48.6404 9.16277 56.47 3.21384C52.1798 11.3065 61.9401 15.4869 55.0221 21.4358ZM62.53 27.7063C62.3155 26.5272 60.8675 25.2409 59.9022 24.973C68.5899 24.7586 61.1357 13.9326 70.6278 11.4137C63.6025 17.3626 71.1104 24.8658 62.53 27.7063V27.7063ZM67.7855 46.5177C68.4826 45.5531 68.3754 43.6237 67.8927 42.7126C74.1672 48.7687 76.5804 35.799 85 40.676C75.8833 39.8185 75.8833 50.5373 67.7855 46.5177V46.5177ZM58.2397 63.507C58.8665 63.3081 59.4392 62.9678 59.9134 62.5124C60.3876 62.0571 60.7508 61.4989 60.9748 60.8809C61.2429 69.5632 72.0757 62.06 74.5426 71.5997C68.6972 64.5789 61.082 72.0285 58.2397 63.507V63.507ZM39.47 68.7056C40.5426 69.4559 42.3123 69.2952 43.2776 68.8664C37.2177 75.1369 50.3028 77.5486 45.3155 85.9629C46.1199 76.7983 35.3943 76.7983 39.47 68.7056ZM22.47 59.2195C22.66 59.8422 22.991 60.4128 23.4375 60.8868C23.8839 61.3609 24.4337 61.7256 25.0442 61.9528C16.4101 62.1672 23.8644 72.9932 14.3722 75.5121C21.5047 69.6703 13.8896 62.06 22.47 59.2195V59.2195ZM17.2145 40.4616C16.9085 41.0461 16.7399 41.6925 16.7213 42.3518C16.7027 43.0112 16.8347 43.6661 17.1073 44.2668C10.7792 38.1571 8.52681 51.234 0 46.2498C9.11672 47.1073 9.11672 36.3885 17.2145 40.4616V40.4616ZM26.7603 23.4188C26.1296 23.6102 25.5531 23.9478 25.0778 24.4042C24.6025 24.8606 24.2418 25.4227 24.0252 26.0449C23.7571 17.3626 12.9243 24.8658 10.4574 15.3797C16.4101 22.5077 23.8644 14.8973 26.7603 23.4188ZM67.0347 36.7636C67.4101 35.5846 66.6057 33.9232 65.7476 33.1729C73.8454 36.3885 71.1104 23.5795 80.8707 24.8658C72.0757 27.5991 76.0978 37.4604 67.0347 36.7636ZM64.6751 56.0039C65.6404 55.4143 66.3375 53.6457 66.2303 52.681C69.6625 60.6665 76.795 49.5726 82.7476 57.4509C74.6499 53.1634 70.5205 62.9175 64.6751 56.0039V56.0039ZM49.2303 68.0089C50.4101 68.3841 52.1798 67.5266 52.7697 66.7227C49.552 74.7618 62.53 72.0285 61.082 81.7826C58.347 72.9932 48.4795 77.0663 49.2303 68.0089V68.0089ZM29.9243 65.6508C30.3606 66.1435 30.8975 66.5371 31.4988 66.8052C32.1 67.0733 32.7517 67.2096 33.4101 67.205C25.3123 70.635 36.3596 77.763 28.53 83.7119C32.8202 75.6193 23.0599 71.4389 29.9243 65.6508ZM17.9117 50.1621C17.6972 51.3948 18.3943 53.1634 19.2524 53.7529C11.1546 50.5373 13.8896 63.507 4.12934 62.06C12.9243 59.3267 8.90221 49.4654 17.9117 50.1621V50.1621ZM20.4322 30.9219C19.3596 31.5114 18.6625 33.28 18.7697 34.3519C15.3375 26.3128 8.20505 37.3532 2.25237 29.5285C10.2965 33.7624 14.4795 24.0083 20.4322 30.9219ZM35.7697 18.9169C35.1165 18.8548 34.4578 18.9434 33.8442 19.1756C33.2306 19.4079 32.6784 19.7778 32.2303 20.2567C35.3943 12.164 22.5773 14.8973 23.8644 5.14322C26.5994 13.9326 36.4669 9.91308 35.7697 18.9169ZM45.53 18.2201C44.5647 17.5234 42.6877 17.6306 41.7224 18.113C47.7823 11.7889 34.8044 9.53792 39.6845 0.962891C38.8801 10.1275 49.5521 10.1275 45.53 18.2201V18.2201ZM42.5804 20.3639C47.145 20.3851 51.601 21.7564 55.3867 24.3051C59.1724 26.8537 62.1183 30.4655 63.8528 34.685C65.5874 38.9045 66.033 43.5427 65.1334 48.015C64.2338 52.4872 62.0293 56.5931 58.798 59.815C55.5666 63.0368 51.453 65.2304 46.9759 66.1191C42.4988 67.0077 37.8586 66.5517 33.6405 64.8085C29.4224 63.0653 25.8151 60.113 23.2737 56.3238C20.7322 52.5346 19.3703 48.0782 19.3596 43.5165C19.3525 40.4695 19.9487 37.4513 21.1138 34.6356C22.2789 31.8199 23.9899 29.2624 26.1483 27.1103C28.3066 24.9583 30.8697 23.2543 33.6899 22.0964C36.5101 20.9386 39.5316 20.3498 42.5804 20.3639V20.3639ZM42.5804 22.722C38.4735 22.7008 34.4526 23.8979 31.0267 26.1616C27.6008 28.4254 24.9241 31.654 23.3352 35.4388C21.7464 39.2237 21.317 43.3946 22.1013 47.4234C22.8856 51.4523 24.8484 55.1581 27.7412 58.0716C30.634 60.9851 34.3267 62.9753 38.3519 63.7904C42.3771 64.6055 46.5538 64.2087 50.3533 62.6503C54.1528 61.0919 57.4041 58.4419 59.6958 55.0359C61.9875 51.6299 63.2165 47.6209 63.2271 43.5165C63.2414 38.0249 61.0758 32.7518 57.2054 28.8536C53.3349 24.9555 48.0754 22.7504 42.5804 22.722V22.722ZM63.6025 43.1413C63.6025 47.3071 62.3665 51.3793 60.0506 54.843C57.7348 58.3067 54.4432 61.0063 50.5921 62.6005C46.7411 64.1946 42.5034 64.6117 38.4151 63.799C34.3269 62.9863 30.5715 60.9803 27.624 58.0347C24.6765 55.0891 22.6693 51.3361 21.8561 47.2504C21.0429 43.1647 21.4602 38.9297 23.0554 35.0811C24.6506 31.2324 27.3519 27.9429 30.8178 25.6286C34.2837 23.3142 38.3584 22.0789 42.5268 22.0789C48.1164 22.0789 53.4771 24.298 57.4296 28.2479C61.3821 32.1979 63.6025 37.5552 63.6025 43.1413V43.1413Z" fill="#AA0107"/>
</svg>
