<svg width="922" height="1015" viewBox="0 0 922 1015" fill="none" xmlns="http://www.w3.org/2000/svg">
<path d="M25.505 749.313C27.6209 748.904 29.6788 748.237 31.6328 747.328C33.6114 746.598 35.4887 745.619 37.2191 744.413C36.5686 741.865 36.6167 739.189 37.3585 736.666C37.7319 735.174 38.3971 733.77 39.3158 732.537C40.2344 731.303 41.3883 730.264 42.7109 729.479C43.843 728.81 45.1641 728.534 46.4693 728.692C47.7745 728.851 48.9909 729.436 49.9297 730.357C49.9911 728.384 49.3653 726.452 48.1593 724.89C46.9532 723.328 45.2419 722.234 43.3182 721.794C42.11 721.504 40.8492 721.514 39.6457 721.823C38.1854 722.125 36.7888 722.678 35.5184 723.459C32.7265 725.083 29.5404 727.512 26.0203 729.944C22.2511 732.634 18.3235 735.096 14.2589 737.315C9.78314 739.487 4.95337 740.837 0 741.3L10.9228 746.156L21.9061 750.21L25.505 749.313ZM53.2866 758.109C62.8083 754.629 69.5592 746.963 74.9141 740.11C80.2691 733.256 84.4963 727.347 89.4386 727.441C91.4258 727.346 93.3853 727.937 94.9877 729.117C96.59 730.296 97.7376 731.991 98.2373 733.916C97.0456 733.266 95.6718 733.031 94.3318 733.247C92.9917 733.463 91.7615 734.118 90.8344 735.11C89.7826 736.204 88.9577 737.495 88.4072 738.909C87.8568 740.323 87.5917 741.832 87.6272 743.349C87.6264 747.255 89.1124 751.016 91.7834 753.867C95.0639 756.865 98.9873 759.073 103.253 760.32C86.5692 761.593 69.7928 760.851 53.2866 758.109V758.109ZM49.0068 757.342C47.2008 756.955 45.1293 756.771 43.2549 756.185L37.5687 754.894C35.6286 754.442 33.6886 753.99 31.8142 753.404L26.1911 751.645C28.6421 751.123 31.031 750.343 33.3179 749.318C35.5002 748.304 37.5909 747.104 39.5667 745.73C41.5281 744.376 43.4116 742.912 45.2082 741.345L50.2477 736.832C52.9073 734.049 55.7417 731.44 58.7337 729.019C59.9189 728.131 61.1876 727.361 62.5219 726.718C63.7023 726.229 64.9902 726.058 66.2574 726.222C68.2052 726.424 70.03 727.27 71.4434 728.625C72.8568 729.981 73.7784 731.768 74.0624 733.706C72.9209 732.945 71.5424 732.624 70.1823 732.802C68.8796 732.798 67.6134 733.231 66.586 734.032C64.2033 735.942 62.6663 738.712 62.3062 741.745C61.9338 744.351 62.3018 747.009 63.3682 749.416C60.1876 752.296 56.489 754.546 52.469 756.046L49.0068 757.342Z" fill="#091E5E" fill-opacity="0.3"/>
<path d="M129.05 754.508C132.276 751.658 134.924 748.214 136.85 744.363C135.012 742.491 133.683 740.18 132.991 737.649C132.584 736.163 132.481 734.61 132.687 733.082C132.893 731.555 133.404 730.085 134.189 728.759C134.837 727.586 135.852 726.658 137.079 726.118C138.305 725.577 139.674 725.454 140.977 725.767C140.001 724.041 138.472 722.695 136.636 721.946C134.801 721.197 132.766 721.089 130.861 721.64C128.266 722.623 126.136 724.547 124.894 727.029L119.833 737.352C117.873 741.555 115.653 745.632 113.185 749.558C110.519 753.739 107.052 757.352 102.985 760.189C106.855 759.758 110.858 759.392 114.794 758.827L126.332 757L129.05 754.508ZM157.515 748.341C159.141 746.478 160.537 744.427 161.674 742.232C162.754 740.037 163.695 737.777 164.492 735.465C165.231 733.188 165.815 730.863 166.24 728.506L167.323 721.887C167.957 717.542 168.527 713.664 169.237 710.52C169.605 709.062 170.178 707.663 170.941 706.366C171.573 705.253 172.487 704.324 173.591 703.674C175.264 702.585 177.263 702.108 179.248 702.324C181.234 702.539 183.083 703.435 184.485 704.857C183.116 704.888 181.798 705.376 180.739 706.244C179.681 707.111 178.944 708.309 178.646 709.645C178.283 711.11 178.221 712.633 178.462 714.123C178.704 715.613 179.243 717.039 180.05 718.315C181.004 720 182.286 721.476 183.821 722.657C185.356 723.838 187.112 724.699 188.985 725.189C193.224 726.348 197.695 726.359 201.94 725.221C195.031 729.816 188.054 734.211 180.607 738.21L169.298 743.641L163.44 746.091L157.515 748.341ZM153.519 749.708L147.925 751.622L142.262 753.336L136.666 754.916L130.866 756.23C132.71 754.566 134.354 752.693 135.764 750.649C137.205 748.665 138.463 746.555 139.521 744.342C141.527 740.183 143.103 735.83 144.226 731.351C145.176 727.598 146.419 723.927 147.946 720.37C149.192 717.489 150.709 715.073 152.973 714.187C154.841 713.452 156.887 713.296 158.845 713.74C160.689 714.235 162.317 715.326 163.477 716.842C162.155 716.752 160.839 717.083 159.717 717.788C158.595 718.493 157.724 719.535 157.231 720.764C156.638 722.174 156.345 723.69 156.368 725.219C156.392 726.747 156.732 728.255 157.368 729.645C158.3 732.086 159.917 734.206 162.024 735.752C161.378 737.801 160.521 739.777 159.466 741.648L157.752 744.466L155.835 747.019L153.519 749.708Z" fill="#091E5E" fill-opacity="0.3"/>
<path d="M221.304 708.107C222.698 704.109 223.41 699.904 223.41 695.67C220.961 694.761 218.788 693.237 217.098 691.246C212.65 686.072 213.126 678.656 219.325 677.205C217.684 675.986 215.665 675.387 213.626 675.513C211.586 675.639 209.656 676.482 208.178 677.894C206.188 679.579 205.342 682.323 205.1 685.531C204.896 689.424 204.926 693.326 205.192 697.216C205.794 705.825 206.209 716.172 201.806 725.155C208.115 720.765 214.356 716.175 220.195 711.388L221.304 708.107ZM243.476 691.372C248.804 672.699 236.817 651.358 244.769 643.616C248.281 640.183 253.087 639.878 256.11 642.192C249.848 644.111 249.706 651.524 254.485 656.361C259.265 661.198 268.489 662.394 276.944 659.056C265.876 669.76 254.943 680.531 243.476 691.372ZM240.492 694.067C235.055 699.051 229.485 703.969 223.646 708.756C226.98 699.582 225.765 689.508 224.695 680.835C223.625 672.163 222.7 664.892 226.678 661.188C228.087 659.701 229.971 658.753 232.004 658.506C234.037 658.258 236.093 658.727 237.819 659.831C231.557 661.75 231.415 669.163 236.128 674.135C237.954 676.045 240.242 677.453 242.771 678.223C242.928 682.415 242.443 686.608 241.333 690.654L240.492 694.067Z" fill="#091E5E" fill-opacity="0.3"/>
<path d="M293.025 640.499C293.881 636.459 294.23 632.329 294.063 628.203C291.525 627.483 289.214 626.121 287.354 624.25C282.641 619.278 282.783 611.865 288.911 609.88C286.022 607.633 281.15 608.072 277.704 611.371C269.752 619.113 281.473 640.656 276.81 658.99L292.317 643.977L293.025 640.499ZM313.59 623.309C318.254 604.975 306.532 583.432 314.484 575.69C315.896 574.191 317.782 573.225 319.823 572.954C321.864 572.682 323.936 573.122 325.691 574.199C319.429 576.118 319.355 583.731 324.135 588.569C328.914 593.406 338.004 594.536 346.459 591.197L313.59 623.309ZM310.74 626.069L295.233 641.082C299.897 622.749 288.309 601.271 296.127 593.463C297.571 591.967 299.483 591.01 301.546 590.751C303.609 590.491 305.699 590.946 307.468 592.039C301.206 593.958 301.132 601.571 305.777 606.342C307.641 608.208 309.95 609.569 312.486 610.296C312.793 614.423 312.442 618.573 311.448 622.591L310.74 626.069Z" fill="#091E5E" fill-opacity="0.3"/>
<path d="M362.674 572.706C363.585 568.676 363.935 564.538 363.712 560.411C361.183 559.642 358.895 558.234 357.069 556.323C352.29 551.486 352.363 543.873 358.625 541.954C356.87 540.877 354.798 540.437 352.757 540.708C350.716 540.98 348.831 541.946 347.418 543.445C339.466 551.187 351.188 572.73 346.524 591.063L361.898 575.985L362.674 572.706ZM383.105 555.451C387.834 536.983 376.047 515.574 383.999 507.832C387.511 504.399 392.451 504.159 395.34 506.407C389.078 508.326 388.936 515.739 393.649 520.711C398.363 525.682 407.719 526.61 416.173 523.271L383.105 555.451ZM380.455 558.143L364.882 573.29C369.611 554.822 357.889 533.279 365.776 525.671C369.288 522.238 374.093 521.933 377.048 524.047C370.855 526.165 370.713 533.579 375.492 538.416C377.27 540.385 379.576 541.804 382.135 542.504C382.358 546.63 382.008 550.768 381.097 554.799L380.455 558.143Z" fill="#091E5E" fill-opacity="0.3"/>
<path d="M432.189 504.849C433.211 500.858 433.607 496.732 433.361 492.619C430.832 491.85 428.544 490.442 426.718 488.531C422.004 483.56 422.146 476.147 428.408 474.228C425.519 471.98 420.58 472.219 417.133 475.518C409.181 483.26 420.703 504.872 416.039 523.206L431.547 508.192L432.189 504.849ZM452.822 487.858C455.288 478.757 453.674 468.82 452.604 460.148C451.534 451.475 450.675 444.07 454.786 440.431C456.196 438.895 458.112 437.919 460.183 437.682C462.254 437.445 464.341 437.963 466.061 439.141C459.731 440.86 459.324 448.476 464.037 453.447C468.751 458.418 477.844 459.882 486.301 456.878C475.028 466.983 463.958 477.354 452.822 487.858V487.858ZM449.973 490.619L434.531 505.498C439.194 487.164 427.872 465.484 435.959 457.808C439.405 454.509 444.345 454.27 447.234 456.517C440.972 458.436 440.63 465.918 445.343 470.889C447.17 472.8 449.458 474.208 451.986 474.977C452.181 479.089 451.786 483.207 450.814 487.206L449.973 490.619Z" fill="#091E5E" fill-opacity="0.3"/>
<path d="M503.057 439.317C504.14 435.352 504.691 431.261 504.697 427.151C502.238 426.158 500.035 424.623 498.251 422.661C493.938 417.553 494.479 410.003 500.878 408.483C499.202 407.249 497.143 406.647 495.066 406.786C492.989 406.925 491.029 407.794 489.532 409.24C485.22 412.947 485.746 420.355 486.616 429.096C487.486 437.837 488.766 447.777 486.166 456.812L502.147 442.53L503.057 439.317ZM524.369 423.657C525.763 419.199 526.469 414.555 526.464 409.885C526.493 405.076 526.123 400.405 525.954 395.999C525.418 387.256 525.36 379.911 529.74 376.404C534.12 372.897 538.599 373.596 541.223 376.046C534.756 377.366 533.746 384.853 537.929 390.229C542.111 395.605 551.076 397.671 559.74 395.6L550.778 402.348L541.885 409.296L533.06 416.444L524.369 423.657ZM521.451 426.218L513.291 433.026L505.199 440.035C507.999 430.931 506.919 420.923 506.183 412.248C505.447 403.573 505.121 396.096 509.5 392.589C513.88 389.083 518.291 389.582 520.915 392.032C514.448 393.352 513.706 400.97 518.02 406.078C519.693 408.168 521.865 409.804 524.335 410.836C524.239 414.915 523.597 418.963 522.426 422.871L521.451 426.218Z" fill="#091E5E" fill-opacity="0.3"/>
<path d="M577.979 379.764C579.488 375.949 580.446 371.94 580.824 367.855C578.471 366.714 576.455 364.981 574.974 362.826C571.057 357.248 572.535 349.824 579.273 348.969C577.691 347.585 575.684 346.78 573.584 346.687C571.484 346.594 569.414 347.219 567.716 348.459C563.134 351.701 562.658 359.117 562.661 367.931C562.695 372.271 562.732 376.945 562.369 381.756C562.222 386.421 561.31 391.03 559.672 395.4C565.382 391.215 570.957 386.964 576.736 382.979L577.979 379.764ZM600.648 366.764C604.588 358.386 604.977 348.433 605.643 339.613C606.308 330.794 607.252 323.441 612.104 320.665C616.957 317.889 621.374 319.056 623.6 321.977C622.136 322.054 620.715 322.501 619.47 323.278C618.404 324.161 617.604 325.323 617.16 326.635C616.72 328.111 616.595 329.663 616.791 331.191C616.987 332.719 617.5 334.189 618.298 335.507C622.359 342.487 630.322 344.561 639.131 343.891C632.615 347.348 626.234 351.204 619.72 354.995L610.217 360.812L600.648 366.764ZM597.593 368.925C591.681 372.845 585.834 376.63 580.124 380.815C583.728 372.106 583.784 362.156 584.115 353.339C584.075 349.39 584.446 345.448 585.224 341.577C586 338.299 587.314 335.618 589.707 334.13C592.099 332.642 598.774 332.255 601.266 334.974C594.659 335.56 592.848 342.986 596.499 348.767C597.978 350.944 599.934 352.756 602.217 354.064C601.589 358.074 600.453 361.987 598.836 365.71L597.593 368.925Z" fill="#091E5E" fill-opacity="0.3"/>
<path d="M659.266 331.312C660.406 329.611 661.355 327.79 662.095 325.881L664.119 320.055C661.982 318.521 660.303 316.433 659.263 314.017C656.277 307.897 659.093 300.796 665.773 301.078C663.746 298.089 658.927 296.724 654.403 298.83C653.076 299.354 651.909 300.215 651.017 301.327C650.118 302.652 649.41 304.096 648.914 305.618C647.619 309.347 646.732 313.205 646.266 317.124C645.499 321.404 644.868 326.083 643.769 330.699C642.79 335.276 641.231 339.709 639.132 343.891L648.241 338.878L657.686 334.196L659.266 331.312ZM683.704 322.506C688.988 315.119 691.246 305.084 693.517 296.719C695.789 288.354 698.136 281.191 703.596 279.211C709.057 277.232 713.016 279.671 714.577 282.931C713.202 282.635 711.769 282.777 710.48 283.339C709.191 283.9 708.11 284.851 707.39 286.059C706.669 287.439 706.244 288.953 706.141 290.506C706.038 292.059 706.26 293.617 706.793 295.079C707.996 298.679 710.463 301.72 713.738 303.639C717.294 305.821 721.302 307.16 725.455 307.553C721.925 308.649 718.326 309.546 714.863 310.842L704.409 314.53L699.214 316.307L694.022 318.418L683.704 322.506ZM680.176 323.936L670.728 328.284C667.599 329.577 664.405 331.005 661.28 332.632C663.593 328.589 665.377 324.266 666.587 319.769C667.82 315.218 668.785 310.536 669.687 306.322C671.488 297.56 673.57 290.599 678.827 288.354C684.085 286.109 688.107 288.081 690.003 291.338C683.386 290.589 680.236 297.692 682.823 303.949C683.848 306.357 685.42 308.493 687.413 310.189C686.094 314.069 684.283 317.764 682.024 321.183L680.176 323.936Z" fill="#091E5E" fill-opacity="0.3"/>
<path d="M747.627 299.298L749.612 296.945L751.462 294.527L754.628 289.427C752.881 287.408 751.668 284.984 751.1 282.376C749.646 275.844 753.802 269.4 760.293 271.085C758.931 267.757 754.572 265.454 749.772 266.427C748.313 266.824 746.946 267.505 745.75 268.431C744.554 269.357 743.553 270.51 742.803 271.824C740.746 275.249 739.073 278.89 737.813 282.681C736.11 286.835 734.609 291.254 732.571 295.41C732.205 296.5 731.696 297.536 731.06 298.494L729.483 301.711C728.357 303.742 727.029 305.654 725.521 307.419L730.584 305.91L732.982 305.089L735.447 304.469L745.511 301.919L747.627 299.298ZM773.177 296.025C780.006 289.895 784.207 280.647 788.421 273.068C790.299 269.569 792.485 266.244 794.954 263.133C795.962 261.867 797.172 260.774 798.535 259.9L800.33 258.951C801.036 258.695 801.779 258.554 802.53 258.533C807.536 258.16 811.566 261.133 812.462 264.732C806.232 262.177 801.134 267.826 801.721 274.432C802.307 281.038 808.64 288.134 816.81 291.141L805.864 291.762C804.924 291.795 803.988 291.891 803.061 292.051L800.459 292.271L794.988 292.916C791.253 293.412 787.648 293.641 784.047 294.204L773.177 296.025ZM769.575 296.588C766.108 297.216 762.709 298.044 759.375 298.738C756.042 299.432 752.574 300.061 749.175 300.889C755.668 294.427 759.401 285.116 763.011 277.074C766.62 269.032 770.443 262.592 776.045 261.68C781.647 260.767 785.275 263.543 786.371 267.074C784.952 266.495 783.388 266.368 781.894 266.709C780.609 267.21 779.469 268.022 778.574 269.072C777.588 270.254 776.889 271.648 776.53 273.145C776.171 274.642 776.162 276.202 776.505 277.702C776.784 280.318 777.825 282.794 779.499 284.824C777.389 288.34 774.808 291.55 771.828 294.367L769.575 296.588Z" fill="#091E5E" fill-opacity="0.3"/>
<path d="M840.031 288.888C843.512 286.774 846.683 284.187 849.453 281.202C848.267 278.851 847.716 276.231 847.857 273.602C847.877 272.052 848.241 270.527 848.923 269.136C849.605 267.744 850.588 266.522 851.8 265.557C852.926 264.661 854.304 264.14 855.742 264.069C857.179 263.997 858.602 264.379 859.811 265.161C859.513 261.357 855.949 258.113 850.804 257.753C847.731 257.813 844.798 259.056 842.618 261.223C841.277 262.464 840.016 263.79 838.843 265.192L834.876 270.232C832.3 273.791 829.66 277.818 826.75 281.38C823.795 284.979 820.462 288.252 816.81 291.141C818.516 290.937 820.232 290.835 821.95 290.834L826.958 290.794L837.307 290.713L840.031 288.888ZM865.236 292.763C867.273 291.643 869.227 290.378 871.083 288.978L876.525 284.661C880.039 281.562 883.218 278.131 886.399 275.035C889.198 272.213 892.239 269.642 895.487 267.351C896.74 266.464 898.16 265.841 899.661 265.519C901.162 265.198 902.713 265.184 904.22 265.479C909.17 266.575 912.206 270.558 911.901 274.233C906.659 270 900.145 273.791 898.662 280.547C897.179 287.304 901.117 295.553 907.902 300.708L897.332 298.187L892.114 296.959C890.373 296.439 888.502 296.186 886.696 295.8L876.065 294.081C875.129 293.954 874.259 293.694 873.323 293.568L870.649 293.255L865.236 292.763ZM861.627 292.324L856.48 291.63C854.81 291.644 853.073 291.457 851.403 291.47L841.182 290.949C845.129 288.509 848.685 285.487 851.729 281.985C855.042 278.62 858.018 274.924 860.796 271.63C866.622 265.174 871.922 259.79 877.737 260.479C883.552 261.168 886.12 265.087 886.149 268.76C885.025 267.835 883.637 267.291 882.184 267.206C880.731 267.122 879.289 267.501 878.065 268.289C876.785 269.166 875.71 270.31 874.913 271.641C874.117 272.973 873.618 274.462 873.452 276.005C873.139 278.577 873.458 281.188 874.379 283.61C871.407 286.428 868.055 288.814 864.419 290.7L861.627 292.324Z" fill="#091E5E" fill-opacity="0.3"/>
</svg>
