<svg width="946" height="1047" viewBox="0 0 946 1047" fill="none" xmlns="http://www.w3.org/2000/svg">
<path d="M62.7255 690.889L58.9662 695.07L55.0228 698.974L46.8782 706.635C51.0042 707.797 55.0565 709.087 59.2011 709.918L51.2587 718.721C48.5131 721.428 45.6937 724.264 42.6165 726.952L48.566 728.815C50.5922 729.46 52.5631 729.903 54.4604 730.474C47.4114 735.631 40.0385 740.33 32.3871 744.542C28.4811 746.585 24.3725 748.684 20.2086 750.58L17.0028 751.997L13.8708 753.286L7.34885 755.716C14.427 749.141 21.1444 742.188 27.4716 734.887L24.5981 733.928L21.6695 732.767L15.9596 730.186C21.2297 725.159 26.242 719.984 31.1253 714.735L23.15 711.03C30.9578 703.004 38.234 694.478 44.9321 685.505" fill="#CB6801" fill-opacity="0.55"/>
<path d="M99.972 695.764C96.4883 702.155 92.7283 708.731 88.5263 714.882C92.7631 715.252 97.1659 715.032 101.421 715.07L95.8547 725.403C93.8641 728.884 91.8735 732.365 89.6251 735.699C91.7435 735.883 93.8067 735.866 95.7962 735.977L102.041 736.126C90.6727 749.947 77.5531 762.229 63.013 772.662C68.1368 764.3 72.8 755.846 77.0028 747.3C72.9686 746.875 68.7318 746.505 64.7161 745.749L70.0981 736.337L75.2223 726.778C73.6381 726.557 72.2566 726.28 70.8751 726.003L66.6016 725.099C69.4032 720.2 71.8732 715.282 74.288 710.162C76.7028 705.041 79.0438 700.05 81.1271 694.911" fill="#CB6801" fill-opacity="0.55"/>
<path d="M137.019 691.115L135.857 696.439L134.363 701.744L130.97 712.464C135.152 711.433 139.389 710.606 143.387 709.299C141.819 717.038 139.793 724.678 137.319 732.177L143.435 731.055L149.441 729.528L146.584 735.422L143.672 741.113C141.663 744.926 139.377 748.922 136.908 752.643C134.438 756.363 132.097 760.157 129.296 763.859L125.131 769.347L120.837 774.762C123.695 765.531 126.083 756.162 127.993 746.69L124.972 747.186L121.822 747.609L115.669 748.197C117.79 741.197 119.634 734.382 121.22 727.419L112.47 728.061C115.215 717.152 117.365 706.102 118.909 694.96" fill="#CB6801" fill-opacity="0.55"/>
<path d="M171.545 676.813L171.652 687.995L171.096 699.139C173.012 698.182 174.928 697.225 176.789 696.065C178.65 694.905 180.566 693.947 182.427 692.787C182.848 700.727 182.809 708.575 182.493 716.606L193.456 710.899C192.754 715.118 191.924 719.262 190.891 723.462C189.858 727.662 188.88 732.064 187.516 736.245L185.488 742.784L183.072 749.102C181.505 753.339 179.662 757.759 177.634 761.903C178.017 752.25 177.89 742.584 177.256 732.945C173.443 734.528 169.684 736.313 165.815 737.694L165.818 726.917L165.564 715.993L161.548 717.632L157.421 718.864C157.33 713.338 157.111 707.738 156.689 702.193L154.963 685.466" fill="#CB6801" fill-opacity="0.55"/>
<path d="M205.797 653.115L208.388 675.811L219.112 667.23C220.472 675.023 221.759 682.945 222.715 690.848L232.646 683.353C232.466 700.851 231.002 718.312 228.264 735.595C226.259 726.236 223.72 716.914 221.107 707.721L216.114 711.367L211.194 714.884C209.667 707.681 207.993 700.735 205.987 693.771C203.629 695.502 201.086 696.957 198.599 698.614C195.821 687.616 192.563 676.856 189.03 666.281" fill="#CB6801" fill-opacity="0.55"/>
<path d="M241.323 623.302L244.355 646.422L255.135 636.846L259.807 660.39L269.296 652.472C269.475 669.511 269.986 686.57 269.814 703.923C266.52 695.024 263.022 686.181 259.525 677.337L250.644 685.09L243.263 664.787L236.224 670.514C232.23 659.847 227.959 649.364 223.689 638.881" fill="#CB6801" fill-opacity="0.55"/>
<path d="M277.66 592.071L280.692 615.19L291.471 605.615L296.069 629.288L305.559 621.369L306.556 672.581L295.862 646.106L287.109 653.933L279.526 633.685L272.487 639.412L259.878 607.907" fill="#CB6801" fill-opacity="0.55"/>
<path d="M313.922 560.969L316.955 584.088L327.734 574.513L332.406 598.057L341.896 590.138L342.819 641.479L332.124 615.004L323.446 622.702L315.862 602.454L308.879 608.384L296.215 576.677" fill="#CB6801" fill-opacity="0.55"/>
<path d="M350.259 529.737L353.291 552.857L364.071 543.281L368.669 566.954L378.159 559.036L379.156 610.248L368.461 583.773L359.708 591.599L352.125 571.352L345.215 577.152L332.478 545.574" fill="#CB6801" fill-opacity="0.55"/>
<path d="M386.522 498.635L389.554 521.754L400.463 512.252L405.006 535.723L414.495 527.804L415.492 579.016L404.724 552.67L396.045 560.368L388.462 540.12L381.552 545.921L368.814 514.343" fill="#CB6801" fill-opacity="0.55"/>
<path d="M423.264 467.293L426.094 490.468L437.002 480.966L441.398 504.694L451.016 496.85C451.195 513.889 451.374 530.929 451.755 547.914L441.19 521.513L432.437 529.339L424.854 509.092L417.815 514.819L405.28 483.185" fill="#CB6801" fill-opacity="0.55"/>
<path d="M460.982 436.338L463.204 459.679L474.37 450.324L478.231 474.089L487.905 466.447C487.752 483.469 487.728 500.564 487.981 517.475L477.692 490.889L468.884 498.513L461.503 478.21L454.538 483.808L442.482 451.936" fill="#CB6801" fill-opacity="0.55"/>
<path d="M499.861 406.047C500.153 413.913 500.777 421.798 501.272 429.609L512.751 420.604L515.875 444.461L525.733 437.095L524.767 462.719L524.28 488.104C520.986 479.205 517.894 470.252 514.673 461.224L505.681 468.572L498.982 447.974L491.685 453.554L480.716 421.276" fill="#CB6801" fill-opacity="0.55"/>
<path d="M540.452 377.249L540.537 400.736L552.716 392.303C553.266 400.316 553.816 408.33 554.569 416.288L564.795 409.475L562.577 434.896L561.169 460.096C558.206 451.216 555.519 442.152 552.703 433.014L543.472 439.883C541.393 433.048 539.516 426.157 537.51 419.193L530.103 424.368C526.717 413.535 523.533 402.647 520.35 391.759" fill="#CB6801" fill-opacity="0.55"/>
<path d="M582.995 350.422L581.68 373.964L587.889 369.987L594.356 366.158C594.372 374.208 594.388 382.258 594.607 390.253L605.33 384.067L603.429 396.666L601.656 409.34L600.16 421.829L598.922 434.466C596.438 425.346 594.101 415.969 591.82 406.795L582.276 413.313L577.474 392.09L569.754 396.914C566.976 385.915 564.4 374.862 561.899 363.679" fill="#CB6801" fill-opacity="0.55"/>
<path d="M627.914 326.323L624.609 349.754L637.967 342.85C637.246 350.992 636.802 358.95 636.486 366.981L647.559 361.679C645.567 369.95 643.704 378.294 642.117 386.455C640.53 394.615 638.925 403.107 637.669 411.285C635.793 402 634.12 392.66 632.446 383.32L622.552 388.954C621.283 381.898 620.217 374.787 619.151 367.676L611.136 371.818C609.095 360.728 607.256 349.582 605.694 338.253" fill="#CB6801" fill-opacity="0.55"/>
<path d="M675.355 305.89C673.327 313.626 671.372 321.233 669.803 329.062C674.446 326.927 679.071 325.123 683.695 323.319L681.702 335.182C681.074 339.271 680.391 343.158 679.966 347.192L685.678 344.983L691.518 342.848L687.517 354.931L683.773 367.162L680.435 379.282L678.904 385.25L677.503 391.292L675.96 377.236L674.619 363.125C672.828 363.796 671.076 364.564 669.368 365.426L664.173 367.929L662.724 346.229L654.268 349.947L652.891 332.907L652.176 324.285L651.718 315.811" fill="#CB6801" fill-opacity="0.55"/>
<path d="M724.803 290.026C721.982 297.651 719.309 305.019 716.893 312.534L731.3 308.283C729.069 316.075 727.095 324.014 725.269 331.695L737.152 328.567C733.594 336.285 730.092 344.205 727.068 351.886L724.745 357.743L722.551 363.674L718.44 375.352C718.209 365.982 718.139 356.531 718.228 347.001L707.579 350.664L708.046 329.203L699.313 331.908C699.28 320.597 699.652 309.176 700.227 297.7" fill="#CB6801" fill-opacity="0.55"/>
<path d="M775.944 279.579L770.691 290.261L768.128 295.64L765.566 301.018C768.127 300.429 770.54 300.098 773.027 299.639L780.544 298.462C777.465 305.94 774.515 313.492 771.768 320.989L784.037 319.279C775.243 333.543 767.351 348.344 760.407 363.594C761.202 354.126 762.181 344.934 763.308 335.484C759.605 336.275 755.902 337.066 752.254 338.059C753.122 330.857 753.99 323.654 755.116 316.599C752.095 317.096 749.129 317.795 746.034 318.42L748.047 301.436L750.521 284.544" fill="#CB6801" fill-opacity="0.55"/>
<path d="M828.741 275.211C826.437 278.342 824.115 281.804 821.996 285.211L815.582 295.231L823.19 294.791L827.059 294.608L830.854 294.554C826.743 301.442 822.946 308.681 819.223 315.79C823.423 315.626 827.494 315.387 831.676 315.555L827.677 320.453L823.862 325.629L816.435 335.924L813.026 340.989C811.736 342.646 810.703 344.451 809.542 346.183L803.091 356.865C804.808 347.581 806.855 338.316 809.106 328.995L797.923 330.3C799.51 323.337 801.225 316.448 803.217 309.375L794.061 310.127C796.607 299.093 799.355 288.004 802.564 277.008" fill="#CB6801" fill-opacity="0.55"/>
<path d="M882.199 278.064C876.616 283.939 871.29 289.961 866.296 296.002L881.585 297.388C876.499 303.889 871.615 310.335 867.063 316.8L879.35 318.351C873.029 324.317 867.114 330.174 861.512 336.38C855.91 342.586 850.566 348.94 845.627 355.183C848.448 346.36 851.675 337.427 855.159 328.641L849.577 328.529C847.679 328.366 845.772 328.304 843.867 328.343L847.886 318.323L852.034 308.376C848.921 308.136 845.808 307.895 842.75 307.858C846.677 297.101 850.917 286.694 855.691 276.251" fill="#CB6801" fill-opacity="0.55"/>
<path d="M935.268 289.078L925.742 296.462L916.657 304.27L924.081 305.949L931.541 308.161L922.567 316.375L914.109 324.883C916.135 325.528 918.18 325.842 920.132 326.616L925.953 328.405L915.505 335.604L905.555 343.43L896.066 351.349L891.515 355.418L887.147 359.765L893.709 347.093L900.713 334.845C899.807 334.591 898.884 334.406 897.95 334.291L895.187 333.738L889.643 332.962C893.181 326.774 896.794 320.456 900.664 314.286L891.583 312.515C897.057 302.643 902.937 292.66 909.203 282.899" fill="#CB6801" fill-opacity="0.55"/>
</svg>
